<mxfile host="65bd71144e">
    <diagram id="C5RBs43oDa-KdzZeNtuy" name="Page-1">
        <mxGraphModel dx="1513" dy="864" grid="1" gridSize="10" guides="1" tooltips="1" connect="1" arrows="1" fold="1" page="1" pageScale="1" pageWidth="827" pageHeight="1169" math="0" shadow="0">
            <root>
                <mxCell id="WIyWlLk6GJQsqaUBKTNV-0"/>
                <mxCell id="WIyWlLk6GJQsqaUBKTNV-1" parent="WIyWlLk6GJQsqaUBKTNV-0"/>
                <mxCell id="3" value="契約書作成実行" style="shape=mxgraph.flowchart.terminator;strokeWidth=2;gradientColor=none;gradientDirection=north;fontStyle=0;html=1;" vertex="1" parent="WIyWlLk6GJQsqaUBKTNV-1">
                    <mxGeometry x="313.25" y="10" width="120" height="30" as="geometry"/>
                </mxCell>
                <mxCell id="8" style="fontStyle=1;strokeColor=#003366;strokeWidth=1;html=1;entryX=0.5;entryY=0;entryDx=0;entryDy=0;exitX=0.5;exitY=1;exitDx=0;exitDy=0;exitPerimeter=0;" edge="1" parent="WIyWlLk6GJQsqaUBKTNV-1" source="3" target="58">
                    <mxGeometry relative="1" as="geometry">
                        <mxPoint x="373.25" y="60" as="sourcePoint"/>
                        <mxPoint x="372.25" y="110" as="targetPoint"/>
                    </mxGeometry>
                </mxCell>
                <mxCell id="9" style="fontStyle=1;strokeColor=#003366;strokeWidth=1;html=1;exitX=0.5;exitY=1;exitDx=0;exitDy=0;entryX=0.5;entryY=0;entryDx=0;entryDy=0;" edge="1" parent="WIyWlLk6GJQsqaUBKTNV-1" source="58" target="62">
                    <mxGeometry relative="1" as="geometry">
                        <mxPoint x="374" y="190" as="sourcePoint"/>
                        <mxPoint x="374" y="230" as="targetPoint"/>
                    </mxGeometry>
                </mxCell>
                <mxCell id="58" value="設定情報の取得" style="rounded=0;whiteSpace=wrap;html=1;" vertex="1" parent="WIyWlLk6GJQsqaUBKTNV-1">
                    <mxGeometry x="313.5" y="110" width="120" height="60" as="geometry"/>
                </mxCell>
                <mxCell id="59" value="設定ファイル" style="shape=document;whiteSpace=wrap;html=1;boundedLbl=1;" vertex="1" parent="WIyWlLk6GJQsqaUBKTNV-1">
                    <mxGeometry x="153" y="100" width="120" height="80" as="geometry"/>
                </mxCell>
                <mxCell id="60" style="fontStyle=1;strokeColor=#003366;strokeWidth=1;html=1;exitX=1;exitY=0.5;exitDx=0;exitDy=0;" edge="1" parent="WIyWlLk6GJQsqaUBKTNV-1" source="59" target="58">
                    <mxGeometry relative="1" as="geometry">
                        <mxPoint x="493" y="200" as="sourcePoint"/>
                        <mxPoint x="313" y="140" as="targetPoint"/>
                    </mxGeometry>
                </mxCell>
                <mxCell id="61" value="" style="shape=image;verticalLabelPosition=bottom;labelBackgroundColor=default;verticalAlign=top;aspect=fixed;imageAspect=0;image=data:image/png,iVBORw0KGgoAAAANSUhEUgAAAMIAAAD1CAYAAAACniokAAAAAXNSR0IArs4c6QAAAARnQU1BAACxjwv8YQUAAAAJcEhZcwAADsMAAA7DAcdvqGQAACHMSURBVHhe7Z3ZjxzHfcd/c+7BvbikKB6mRUmkqMu6bMuK5AM07MRJjESKXoIgQGA/BAhg5CWODf8FcU44zwaMvDmALVl2EASJbcCWHSmWZUkWJdMSVzzF5ZLLvY/ZOXom9e2ZIntnu2eqqqu6q2fr0/pphr3TVdVVv2/9qvrMtRjkcOxy8p1Ph2NX44TgcDCcEBwOhhOCw8FwQnA4GE4IDgfDCcHhYDghOBwMJwSHg+GE4HAwnBAcDkYi1xo1W03aaFSp1vSoVq9RPdfs/MWhi8niCE2URymXy3XWOGQwKoRGo0Er3hbd2FyhC8tzNF9fo9XNDdqgGjUsFgOEmzatZoty+Zz/GSRq3cMTx+iJwydp39C4E4MCRoQAR1qsrtOVlXk6vXKZ3l18n65sLtL1yjJVvDrVWWSotGqdX6dDsxnt7PiblzMeKIVAXQUp5Qv+Z3D9aKFMnzhwP/3R8SfooeljNF3e48QgiXYh1JoNmltfpF9efZd+fv23NLM6S9dqq1RlAqg16p1ftWmyrLF0k2NL2PoootLhhO1iv9TD0ouqqX5ljVPF2LJX+g0miD3FITp16EP02MET9OD0HfTA1AdoemiM8jk3BRRFqxAqbB7w7sL79KPrb9MrV87QexvXaNOrsVDOelgWJeCwIB/orfi6IPg7X9/PyYKiidoVrO2XDoen1yutMPpVY1T+IqXqlTaEMMbmB6cOP0gnp4/SvpExOj55xIlBEm1CQCQ4M3+Rnjv/Mr10/R2a3Voiz/NuOgAcrJtezhkmkCh6pRO2eyIpRzpuRLn6pam8XY9fIE10MHsKw74Q7mVCAKPlYRcZJNFSQxDB+ZVr9B+XfkU/uvommw8sUMNr+I0IAYSJAEStd4jRPQ9AJIVt1rborcWL9Pby+/5czYbJv+3EFgJ6pYXNVV8AP7l6mpZYxaOX6iUAh162dfj5vC+QDScGKWILYYvNAd6+cYlevPQmXd64cVMEjmTYUddsPoY1iAxODOLEEgIqdn5zhV6ce4t+uz7rRJASYf7txCBHLCHgkOiZhcv0+sI5v8JR8TL0mgjaSNSENy1Qnl51iNaAOTH0R1kIaITlrQ16bfWCf7IMuGgQTpoCQufkxNAfZSHg7OtqvUIzC1f8T9lo0AuZQ6cmyFqk6gcXw1a96sQQgbIQcAnCXHWFZlk0UKnQJJzNtqFMmkAM6GDcodVw1IXQ9Ghtc4M2G+1rhmSGRYPW42YFHrXdMGknykJosMqrslBbbzU6a7JBliRoosNwc4ZwlIUAKjn9IrB1ftBrmKVa4rT21IlhJ7GEIAMcjC9RqIggKj03P+iNE8N2YguhQc0ern1LAP1IIhKkIQ2bBYlLMZwY2miLCNzhuxcRVEUQlb6LBuI4MbRJbGgURdpzAhFMzA/iolPsTgwpCyGOCESjjQwm0oyiX05JlgXsdjGkIgQIwFQkcMMidXazGFIfGqmQaM8dJ2pZLMqoku1WMWgRgkjvzqNA3EjQSwRxxvJJD0VsplsMp5cu+WIY5GhrNCLocn7TOBHsBGLAuQaI4TdLl30xLFTXBlYM2oQQdHpTzq8aDVQZ5B5QlN0ihkzMESAAVRHgL72aLU406JlunzL1Ik6ZTNAthsXaxsCJwXohmHQKVXFlHZU9C4rhrQEUg9VCEBFBnJ43DbLsOlwMmEC/uXhhoMSQiaGRjfRq/jjOEVf8puFHk7ZFhkzLu42VQkDF9qtcOEOcaDAIjZcGwaNJNyNDNftisE4IIhXar0c0LYJeW8cRZxLoKkNwzjAIYrBKCEmIQIR+eaSJTWULDpO4GLKKFUKAAJLqTeLm02trmwVkim4xLFTX23/IGKkJgTu/qGPCyeJGA5G8TDmzSKqidWEbgyCG2ELo9eaZKGQbXMQ5k3ChtN3U9oizWt/0xYAnH2ZNDFoiAq5MhHOLLqKIRAEgkmKvfHk+vfLql4dIOXshUy+q6MohrK4QFQqtvC+Gd5avZE4MsYWQz+sfXfVzSg5+IdK4vZxMNJ9eiKQRlyTyiAvEUMyoGFKbI4QhKgAg6hZxRaADG1w4yTJkMTJYIQQZAYAkG7VfXjrE1EusWYQPkzCBzooYYgtBZbLMkRUAkPl13Gigwz21pKFBbEkDMfCjSVkQg5aIINJM3OmDJgN+LboFBIAlCtm8VRHJpVc5dZHM3kaTBTFoGxp1O3m3qYItZbZmuXW+hSNaFpFfxdkvUZLIwyRZiQxWTZa7kXUBXSJIin7l1YHuHFTr0HYxWCsE2epOwqmC9HOIpEqT7F7Hw2YxWCcENKxs4+oWQb/UdIhApMxC+VgW5fphqxhSEQKaLspkgDP1cyg4E7d+iJTBFhHcJJejBnn+V090GwuwTQyJCAHNEzQdiDiTDCKp6RCBCOg1+8HzKuTytNWo0fXKMtWaddai5ppUWJx94Ptn00k3bbWGKooynUAAoiIQbTjdZeyFSNllH4XTbHjMqbaoVqvhxE5nbbL7JQvEYNNJN+vmCFHICkCnCETSE0pHsPyy5Ip5mq+t0hoTgylE61MGmyKD9UJou794I8g0mK6m1ekiKg6XZ8OjxcoazW4sUMVrv9xRZ5lMY8O1SVYLQVYAJkSgqyeU2Zd+dKeEJ5U26nU6u3aVFjZWO+v0oasOepH2MMlKIbRjgHjlyzaU6K9F0jXvIv3BkyUKpSJdWb1BM6uzVMFcIaOkFRlSFwJ3+uAiQ5oi0E0c4bWfX0307uxlOr82R3UWIXREhaTrIa1hUipCUHX6IGggUyIQRTQ9kf2M63D+o9zZpHk5X6E3L8/QxfXrVCOPcvm81mGSTqL2OA0xaBECd2rRJQ4qApBFZ/px9zdI/5Ry1Crk6FJjkV69+A7NLFyherXKWpmJweD5BRMkLQY9QjDomNzxucmCLbj1QyQPqfSEftXOtx9iKbEGzbWb9FLlhh8ZXr9xjlbYBLrVbLajgyURQmR/khSDtd2EquNzsKXM1nHyCiNpEQTTwRCJSnlfDG8wMbx8+g06s3DJF4TntS/HuCmKXsZ+hyfambCCoJWoQJV61ReDyUfF5FgFKnnAWr1C3z//C/rG6R/Q7MYilQvFzl/U0eWMsqmI5iuTrogQdOa7M632y1pyWx7lqy06kNtDB0amaGrfXto/PUW3DU/6vyoXyv6n7dS8Gk0V99DxyUP00UP30KGx6c5f9JC6EBSzj0Q2NZ3OyElfBJz2em+rQflakybW2gOA0bFRXxRgT2nY/8wKpYkR+tMHPkXP3PMkiyz6BjSxhfAvv36B5irLPYWgmIUUsjnodESO6HAIiOQvmlr/tFjJGk2iikeFjQa1qh6Ntm5FgjwbRjXr7WuUgt9tBOX7wqk/pi9/7Fkq5+OPQjixJeXl2s2PxogyU/j5dkwG0TKZKrnOOhFLq31otTVWJG+yRMQ+K8PeTVtvbNFmruZb8LuNZkqk1k6We4GmV3UlU8Jkku98602aIsQktTVcoMaeIvtkVspRs8BkMlTIhAEI1wSZEgKcI46DyIhAJh9REehGRdT+URsmguZYgZpl5lwFFikgiDIbEnUZ1usyCE7VAD5bo0zEw2Zc1nohoKm5qQKHSVsEMmUQ+ZWcCLb/FodFceKNRgrMSZkLFNrehkOmwU+sbyGKaLBcXt0gJNNYKwQ0nUxTRyHnMHryjIP+/MNTRGQgnG9gYkBve1MEEGzn5h7+qQOIIQ4QhElSFQKaKMpU4T0vN1Fk82Wp+4sIouUQzV9mv/oSEINPSHQIM073v0HUv7ujhKyZZHuJFfGdDp+SphNZx+eolEVUAMBmEcC1fPfqEgN33G6HDoK/Bf/O/83XBf+tI7I0WbImo0L0nmYIVedQ2cqECMwhkX93ZNAMF4gIcPpuM00CWZgDjqbibNhCxUVNiUD0l3L7qrCHHTF4pc6/NYBoAEfmnyIWhcnhUY9s7UVVAEBtK2wnvmX6IhBnR6pMDDhm3xyK73TNfMuPBAXmZjIRIYpeIolLZoTAnT+OQ6hsCQGkLQJ5YqaMyIBLLZgY4MzdxuHfg+uD3/PNtpj4v4OHRGXNNNYKIej4cZwfYGuVFGQEAEyJIO7+R9Ez1Y4YfMOQJGDdju+vD/se8qmKaTFYJQRdjs9BKqopmRSBDPLpiv1e6FdcDMUuJwyIgjv+ju+MuM6fJLGE4LU0nnDR7EhxUjMtAnPuYSDlKDH0g4siI8QSgipwnG7TBVKKk5pNIpBLW/y3ciVmv8flGCpiyBCxhIAH0AL/LcsBp+5npoibMitd55sYsvsi82tT9SSbKi+Hkhj4cEmTmZwnpBIRdIDm6TYV4Px8kcEeEeC3Yr+XK/HOcgTF0GIfsKAw/H8rwtPrZaA6JLsXYnSSzw7izd4bFecHcA57RJA8XAz+J/7dZOXtCCPHpoxBp+XfRUyGpoEhmmQR0gGuwU0HKgIAKk6qq8zhiKcuW45e+woR5NkkepsY8BnwJnyHMHTC8zOBlUJAtQZNF6pRAKhEAZktkL5cHuK/lSt5uyz96BYD4I7PP02IwRSxhKDj8CmqvNtMEEcAKiKwBdmyyOzrjsjQ8abuyKCLnGeuZjUWMxoUP8pM044BajnJCgCo5CSfTxI1J0ZYZDCFyTxiCYEfPgVomihLgzgCALtRBCr7DPz7iX0zLwZTJBIRkoI7fxwBgCREgDxMiyBeLYjB6xqPi2mWc20xMK/yj/kHPrWYQQwnnww6nB+oOWcyDiebSzJl2g7ug/bFgE/m/zm2+C3D/q3DTJJpIbTdX0+TqwpAJXeVvGRIqkxhdX9TDGyoxMXgrze7y7GJJQSdF92FwR09aokD7/25yYBfy+aulhfPSXwb1XLJwLbwlyj8B4mxIRIXA+CfqpgWknURgVdyr4qOg0rDBzHcHgHkc0qubP0JikEHpvyBk6oQuMMHF5PEEQBQ3TpuviKo5GC6XNsjQyuWecxTPX3P/N2BNiEEnVl0SQodUUB1a7V85bZRykGxPmTbrS0G3LNsdrIbF+uGRrrgzp+mANTylttGKYcYdSILcmJauCkGWUuKgRICdz4dDR0nBfX85bZTySVO3bCa7XyTh4vBVgZCCLqcnxMnJZtFEIc4IuDIioFf1ZoEmReCbgHESU1nWUygWj5VEYRtZWtkyJQQ0JDdpgOkEieleGWRz10lJ9XysT3rfNOHiBiiooH/iHhNh2SDWC0E7mDxHC0apBg31Xjlkt9WJTcTddePfjm2xcD+F0HSE2c9QpCs6KBz9zLdIMWgxSFeGeVLoFpm1TKyvfMXWWTKmWNqQGSwYaikXALsLJ5eweGOIWJJI9M4/Yi3D2olUc5NsZxsDzvfzIPIYANWD43iouZ24cQXsapTqpGGCFS37DdMSoKBEwIag1tcuPPHE4A66eSqho6ymno3gwgDIwRdzs/R5/xqJYuTe9LRIE5Zg7ApcWqRQVkIlgzt/EbQ1RAcvSKQJ07uSUcvE7mlIYZYk+WkQZ7dpgs4ELc4oFe9tWwvq4jhDo+w9UIWo+zB8iZNWLmTFkOsiJA3HBd4w6g0ECoXNw55Ta+v1ZsNZviMaw1qsE9Vq7LtawpW9zrG0lC1RhN11TFWbyL1LdsmYfQSb5JiyLGCKO3Par1Cz517ib5x+gd0dX2Rivn4Mx0dFcsp5vJULpaonDM/A2vG6Il10O7L9dHwmrTpVZkgvM6anejKUcT9+POMcLa5XmjSVx59lr7yyJ9QOa/vBgVlIawxIXyXCeEff/09urG5IiwEvU0WDnq04xMH6TOHHqIHpo4yURT8nt/RnwJrxzOrs/SD91+hcytz/rrufjlJEQSBIGo5z24hoAJtALuDIcrjt52gv3nwafrEwftYVCixXvvW/dX5wPOYHF2Uc/Tjq6fpX19/gV6ef9evT9xcw0lLBADDtxabRTkhCMCF8OH9d9OX7v0D+sSBe/1opbibuwrU0Gh5hH469zb981sv0C9vzBgRgmpbNFhnhuWrj+gXwuCcR2CV6xtbPC3N5egmTREAOGuORXOdz1PlZFoIN50/RuU6xEhbBKbJlBCCju+cPzlsqWmTT9HSIgTPkFM6xx8cbG8/KyJCt8NzcwwGWWhLLULAocluJ5axNMHNITjPMFQoGbOS4NENlCVse12GciCPJNHVvsxTOt/MoOXw6bWNZVbJlhw+ZQsuVXh8//G+h0/hFJVGldaYbXm1zlr9TJRGaLwwTPl8dL+DI+SoU5yxN0Ej16Sx/DCNF4doKF9m+975QwDUUNjh0zji0SkEDMFbrCh/++gz9NWHLDyPkEUhoHELhQK9sXCBvnPhJZpZvdL5iz4aLE9c6vHU7ffRF+8+ReOlUf8cRzeISNVmnf5r9nX6/sVXaNPb6vxFH9WmR3eP307PHnuKPrz3WGid2CoEHg2cECSQEUKxWKIfvv8Gff2t5+lV1ugmGG8N0dPHf4f+7tE/o8nyHhZ56jsuWcCQpeJV6Rtn/pP+6a3vU75OVCvquyQEQ9dhr0T37D9CX/3QM/TZQw/5eXbXCf6lQwiKLrUDLgCOSSFk6vBpb1BprKJkGsFrUp5FhbHiME2Xx2gvs+nyuDabYBGAeRxrsN6dBC/zKBu2TDGxlIZKNFXao2yTLN/gd+xXs0Q0XCz70cexkwEQQlsAcbmVAk9vp8kuQCVSil0EfYtgnliC65LGVDQwTQaFgAoKmj7CGjFOTkgP18eYIi1njyKrIgDKQkBRcQGUGZB6lCVDsrnJY5MAQJZFALREBE9aENzNoiw90i9B9si6CEAsIeS3bc5dSMTsw85ShTOIw6G0URaC+pFlhyoQgE0i0Ena+6VlaDQI6BQ2ekmdPaWNAtC9j2njhMDAzfc1r+GfiJOx4FMrsH3Nq/uG9beM/a3P/dL8hBXORAe35flg+7jWaOGzoeXebd0CsEHkAyUE6eos5KmUy9NIoUTj5RGaLI/6J6BEDZdMjJVGmA3TBNt+gm2/w9jf/RNrHcIiD3escqnkb4OTaki3va0ew0lDnGCz5ZZaji2RTsslFrMbizSc13e6W4SoQmN3aqz3E7norpDP04X1eXpr+RItbK131uoFF7udnDhMj0/d5Ts6nhsUBk6i/WblCr2xcL6zRi+VXJ0OlSfp4b3H6MjoNOsBd0oSNdTrEgtFVwlFRQDWX2uUhBBEC4ndERVCmxyrYC/WhWW94PkWBJ6c4T+jodU08pQNXg7sZ9SD2fCLKCFE1588qlFg111rhGrqNlPA/8uFon8phAlD2hCiCBBL+76B8LTiGC+HiCCDwGltEIFpUhFC0MHDLEnQyDcfdWjIRB3JdFmQvoxT47c6rx2wVQRAmxC4E4uYw2EbVg6NkgTjXxgmziYMlz2Lzj94ObBNdzpxTaYcJrA5GoBdLwTTtHLiDsCHLZgQ6kamHLqxXQRA21GjoYQPn0aB3RE9aoQe8vrWKr2zfIWWGxudtfo5NnY73TdxuGc58ODii5Ub9Pbipc5avdTzLdqbH/Vv1zw8sjd00oySBY8avTJ/1n9qIIsl7R8ooFMEmTh8mjUh+MOQQoFeuv4uffO3/01n167663vdYC9Kk01Mg3z+6EfoSyc/F3nPMoYuVa9O/37+JfrWez+mTa9Gwzm99VlhaT40dQf9xd2n6IkDJ0jkVs3dJISBHBqJahvP0dysb9Hc1gqdX7tO761eo/dW5pTsPNsW5n9fY9+Zzaxe9T/nWfoAD9MNK1muMxZabWzSBVaOC0iLffJ0dNh7a6xclXmqNM09rSMIBKBTBKYZCCHA8W+aZOXjnmUcZ8dJLESO7uPvIlZkPTqcHNaenGKyi8lp3o88MqCnhiFNno4Ow2S5mFBzZ0kAHC01Eyd0yrLN6Tumg7ziLnQ3OpLhplK5wWIoFilVuutDNy1Dt75qEYKuVyeFOXm32QIrjbFGxy2wSNmevRXDVH10Y0IKeoSAKohw0m5H7mVZgJXUaINnzfmB6Tq5icEstA4as+rcIqChsZggzRNdcTFVJ93AlfgFH1qdtoOWNE2/ZjYtuPMn1dgmwY05WSWJ/tSEuDLPoDg/x0RkTqqOkhpUOCF0aL9ku+l/YvKvxVi6shO79iP2286rakgjeNUpyqITlkvnm1k0F7snTggdcNYShifT+W9v7Fjwe9i/exkO9eUkWhP3LMOR29/beakY9mOHKNl6XfcsDyJaLrHAm/dxYskG0FvhZvWP7j9Of33fHwpdYvHtcy/SzGr75dom+OyRR+gvj3+652Pht5o1+t7cq/Ttd17033pf0nyJRb3VoKMj++iLJz9Dj0/fHVon+FfUJRY2RAHcSYiT8F957Fk7rzWySQjoDWutOn1s/z19hYAzwXOVFZpZn6P1mpkXdIBDo9PCF93NLF9lvbrni0MnSHNqaIyOjx2k/UPj/r6LCiGpYUM/T3RC6EOwt8IwoMZ6v35C4CRx6FKmik2WB8VA8lHlwdrdKoTMzxF0hGxcZ1RgVWHCZG6Iwe/C0tBh/rVGIZde9wIiUOwnpUkom0gyJwQ4fnCJCxoaD+iqs97GhGGCKupM+F1YGjoM5cBnUo4tgw1Fii2EFg7PaXBIEHTwqMUE6K9Nmgxh2+s027BFl7GFgDE5CDqr6pIWuHSaX/5swmSGRmHb6zLsp03YFJwyNzTSDY6mLFbX6UZ11ZjhFbYijY7fhW2vw2YrS/5+Yn9t8D+bRABiHzX6+mvfpbnKMpvB23H4VOaoEW5YubB+nV5ZOUfX1hY7a/XRfr1sju6fPEofP3DSf3gXzvR2g0iAecqvli7QqzfOdtbqBWWZLu2hpw7dSx8c3id0HuHl+Xf93xQEI5ooIU0hhNWHT7MqBDgfjqS8OH+GvvXOj+jVpXOdv+gD8yc4/+eOPEZfe/Bp//WyuDe5G35C7d/O/oS+OfND//5i2SfS9QRC8xp0/9RR+quTn4uskySEoOZtbdzhU1MU8lRt1P17lq9uLPp2bXNZm6GDmF9fptX6ZifDtrN1w+cQmy1WFrbd7CYry+aSPmP7dWVzgebZEAnvc05rPhZHBKbZ9XMEfs8y3nE8Uhii0UJZm5VZNGiyQCn6nmUMoxBByvmSXxadhnMl6EF1n7EWAbtnswjArhfCdlr+oWBdJkrwqNKt3hqfOi0dbBcAxwnBYYysiAAMhBDS7/fsJo05QZZEAJSFgP3EOeWk4Q4ftCyh7/hLf9qnKZOvoayJAFgbEYKOHrQsoXhkWgtpCABkUQRAmxC4o+qyLAMBcBEkLYa0ogDIqgiAmyx38G9xhAt1nFjUtt0iGbhHGKbyVDak2WTb8TREbFsZ2L/DDDQMDWWRfCeLzOKEwPCfWcpG7zAcyhQ1wLeD8eefcsPZ4XJL7rg90sXFcd1pRRn7zz/z28/8+xEMNHfWBcBRvsRitV6h75z7Of3Da8/7Z1CtuWeZ7Y7MJRavL12g71x4iWZWZzt/0Qd6aPCpgw/QF+8+1fOx8Hhh+Qtzv6LnZ/7X3072Jpp+VLw6nZg4SM8ee4o+vPeYlkss1DxHHSuvNcq6EADEUGlUab665juKKfaW99D+8jjl89GvacUJuIXqOi3VzLywBDfmTJZG6LahcRoulDtrtyMqBDWPiY8TggTYHZl7lhEVSgU2aDBY/mbToy2vFlkGDi6vKDIzBcpRZ5En6ql3IkJQ8xY9uIvuDAKn2GRRYb22acyQvkh/s8WiUtj2ugzliBKBCGmKwDRussxAf2faRAjbTrepAAEMsgiAE4IjFDxnyX8Rp4UCMHEQeCCFkOKbVAeM3VORAyUEjMNxgqkbHG939Gc315IeISTYccDZoywMHCLNs6X9kj9n/Yyj9VZRTZi8xNPKiBDm5NxkwMkrXK6AIyV1HDp0JmB12mKGOYJN4DyLSWeNfR7h7197jmY3l2g44vi3YvLKYGiE483HJw75L/p+YOqof64gzmHD3QRu6/zNymV6/vIv6OzSbMcB0x008bv9cO0WziN8+bFn6Wu2nVDjQrDlzfsAYigXiv59yDjRl9vVo195al6dNhpVP0KkCRcAxwlBmpw/JKqyEI9IgO8OcfDwALyfIc2DDN0iAE4IyiTVkEpVaDVhR9+SIkwEwKQQrJws6wMVas5afpPB7F7g1LKWBrw202DAhaCXoHNhyQIp+bQ0aQmA44TQh6w5PgcCyIoIbMAJIYIsOj8nawJIOxoAJwQGd/rgkkWyGAVsEAHYdUIIOjtfsgx3/iwKwBYRgF0hhEFx+m6y5vwcmwTAybwQgk4etQwSWY8ANooAZEIIQafuXnYLWXR+jq3OH8S4EIJOq7rsVrLa+wfJggiANiEEHTe4OOTJuvNzsiICsCsmy1liEAQAsiQC4IRgCYMUBbImAuCEkCLc+Z0A0scJIQUGxfk5WRYAxwkhIQap9w8yCCIATggJMGjOD7I+FOrGCUETwR6/2waJQRMAxwkhJoPo7GEMqgA4TggKDGpvH4UtAth1D/iyiaDT7ybnBzZGAdR/wYAinBAi2G1Oz+HOb5sATKMsBDwopUh2vCVHB9zxd6sAgO3OD2f1HdbAc8eUhYCX3e3Nj1KxYOPzjPrjHH87WYgAGBGV8iWaKI9QAQ840oiyEAr5Au0fnqCp0ij57wXurLeNbofn5miTpWEQ/OzAyATdPjRB+cCTu3UQKyLcPjxJR0f20SiVmHOlW5ndjs7NEU6WBMDJ14mOjO6ju8cP+Y/714myEPBg3cnxcf/tlSNDw4k+Rtw5vDpZFADg/vWhvXfQifGD/nedqAuBKXKyMEJP3H6SThZv98MWokK3g5owhzjc8bMqAE6tWaf7Rg/Rxw/cS+PjY521+og10CoWi3Tn3oP06WOP0HijRPUEo4KjP1l2/CCIBuOtIfrIHSfpySP3U97A23xipYiosG90gn73g4/SJw88QENe3n9JhyNdst77B/GHRLUmnbztKD19xxNssjzZ+YteYksLL+I4sf8IPXPfk3TX0G3UZIWuOzGkwiAJAHARYEj053d+ip44fC8VCmbOXcUWAibN4+UROnX0YfrCw7/nFxqFhxgGqVFshTv/oNU1F8GR4hT9/snH6fN3fZQmyqOdv+pH+UUh3XieR9crK/S9mZfpuTM/o9NLF6ma98gr5ajA9OZe8aqXQe1k8DKQXL29b/eMHKRn7nmKnr3343Ri6pCRuQFHmxAAkprbWKKfXT5Nz138P3rj8gwtb63RRpENlcrtnYAoHPFA/z9ohyVw1LHUaHeWBwuT9NC+Y3Tqrkf8SPCB8f1GRQC0CgEgudXaJp29cYX+59Lr9PrVGbqwdo0uVW7gfa9tUTgcXezJlWiqsIeOju2nJ+98gD558EF65OBd/tULSaBdCBw+VDq/NEdvLJyns2tXaXZjgRaWllmPxrN077uMYnc8HK3d/nuHxmj/9BSdGDtMD+2/k+6ZPkwHx6a1viOtH8aEwEHIW6yu00JljbZqWzTPPmv1Wuevjt1OoVigfeVxGh/dQxOlEf9wfJIC4BgXQje1ZoO8lN/f67CLoULJ+BygH4kLweGwEXcIx+FgOCE4HAwnBIeD4YTgcDCcEBwOhhOCw8FwQnA4GE4IDgfDCcHhYDghOBwMJwSHg+GE4HAQ0f8DACGbNETMLz8AAAAASUVORK5CYII=;" vertex="1" parent="WIyWlLk6GJQsqaUBKTNV-1">
                    <mxGeometry x="253" y="80" width="31.67" height="40" as="geometry"/>
                </mxCell>
                <mxCell id="62" value="サンプルファイルの&lt;br&gt;コピー" style="rounded=0;whiteSpace=wrap;html=1;" vertex="1" parent="WIyWlLk6GJQsqaUBKTNV-1">
                    <mxGeometry x="313" y="240" width="120" height="60" as="geometry"/>
                </mxCell>
                <mxCell id="63" value="サンプルファイル" style="shape=document;whiteSpace=wrap;html=1;boundedLbl=1;" vertex="1" parent="WIyWlLk6GJQsqaUBKTNV-1">
                    <mxGeometry x="473.5" y="230" width="120" height="80" as="geometry"/>
                </mxCell>
                <mxCell id="64" style="fontStyle=1;strokeColor=#003366;strokeWidth=1;html=1;exitX=0;exitY=0.5;exitDx=0;exitDy=0;entryX=1;entryY=0.5;entryDx=0;entryDy=0;" edge="1" parent="WIyWlLk6GJQsqaUBKTNV-1" source="63" target="62">
                    <mxGeometry relative="1" as="geometry">
                        <mxPoint x="483.5" y="180" as="sourcePoint"/>
                        <mxPoint x="443.5" y="180" as="targetPoint"/>
                    </mxGeometry>
                </mxCell>
                <mxCell id="65" value="" style="shape=image;verticalLabelPosition=bottom;labelBackgroundColor=default;verticalAlign=top;aspect=fixed;imageAspect=0;image=data:image/png,iVBORw0KGgoAAAANSUhEUgAAAQ0AAAFfCAYAAABUVJn0AAAAAXNSR0IArs4c6QAAAARnQU1BAACxjwv8YQUAAAAJcEhZcwAADsMAAA7DAcdvqGQAAHhXSURBVHhe7b1psyzJeR72dlV3n3PuNpgZYGZAACLI4CKApECKFE2RhLmIkkVZS0iiPtnhX+Ef4Aj/Cn+zw98cIYlUSCak0EJTDkkWKQIgKRLrAHe2u83dzj1Lb1Xt53kzsyqrKqu6uk/3WfPp85zKzMqtcnkqM2sbLAGJiIiI6Ikdi8YSvxID/NoQtStiMGhvHz5CbaUMmtstHRwjtokziEY9WL1yKBh5TTQS/d8E/EbNuPEwHb+lk7N9kNhdtJWBMywR1nmAWd3Y1vwt0RJ3xFo4g2hQ0cuKMrWZmi2N+OXqh8LBimSFJfhfFQ5/LKJZKa0RVxSDpKzfrSHXRlU2HVrVnuFf7omGaWWmvYUYcVacQTQWIEWBW1YcK2Qf9TZUo5EU90Ol2h/BSnUok4e/KBrXApuLRj2cs2PLduG3DTot0cooGhCMIiQMNBu7M7kTlXGNOBvOIBpz1GGGaqBokKyQW1CLkSxRR5QRJyeUDcJVm191LnGjF/ov4oqj79pEHc1g1qHWJlyLZXvhCIPj2yHcVBoQZDAwI1wDxsE91RFuxOY4g2hkkudzrTRysYCALG+hQlMdbDw5EnkFxbj/aCGPnh3Lq9OZLDKzxuFX3YaJR1xaYDy5bt9EI3AnFkWwUTjHobYxtr90mMve3ky+9PnX5Wc+e1tgVSQJ/NppiwEFw06dI86MM4gGqtEMDzAcxbhjzmocyP2HIt9492N578mxPHmVy0RuyyI9kPkglXleaRoR1xTrjjRMCyxbRrhJmmmI5HvwMJI0TeByKLduTeSv/sjr8nOfGsgPvjXWtpiAg4SCwbEuQdEgma8oHGdFWDRsJS5ZSTxzVAqalYEKwC5OKTOIxdErkQ8eZ/J7//WRvH+YyGQGXR/dxUhkJKezXGYYhWTLga5lkRHXGwP23DVgmmDZDJtNEvYBGhXb3vJAhWNvfyhHJx/LnbvH8uUvflJ+ZHQsP/651+RTb+9JMmKIHK0UjVNNGPqqaPgwArJeTiOIpmi4+oNgoJ/DCMlgnbl93MDCwd90KvL4WS7vfu9Y/vg7z+TjwafkxXJfTo4XMp1g6rJMVFiYhEZrF8iicFxvrDPSME0K/82fgW0vJTgFNgIgaF/L5VhuHQzk8PCx3Ls9kV/76c/K69lz+cR+Jj/2o6/Lp97ckxRZUNHANCXXqQnlgbF6i6ZwM6JBlygffdEqGksUthGNVIopIt2zXLJRIi9mS3n3o4X88bdO5bvvv5RnJxhx4CwwG4zhyVaAxmzN/dtRxBUGu3tjoNACti8fHMP6KKLBWYuTkQQR5zKGeyrpciHjZCb3RhP5hS99Wg6SiWTTl/LZt27JD336trxxJ5F9TFEGCdqxNkHGxgQpGkzJxD4oBMXQttaIDrSLBgsbhcsK4oiBFUZ3aseL+UD+5P5M/tOfPpNHhyOZZfvy5NmR5CkqNMXYMOJGo96k2qBNzROONhGhc4o42QazwRDhEhWNvcFCPjGays/+1DsySnPZH85lmB3J2/dS+Qvv3JE37g1lDHdJubbB2MzFfox/8Z/kxLsUDNqjaKxGtYxqdU3RyGWBisokg2ov0qUcws8ff/9Y/v2fvpI/fzCQBycjeXqKiEa3JeFkMiJiS/A1xHXzspF6e2HkOkoyGEmWpfL4+bG8//BQnr7KZJonaMOlTBjJSMGRkldjnGBE9ENVNPx6gOzTStGAbMgMtlfw/vVvT+S//NmxvPsol5f5WI7h52g+E9QNzhSx4CM2h7a5Nhof+t/AmCkEbHZcw8gzGg5knu/Jg6cncv/hsbyciCzyVMVkiS08qGg4oSjFJKIvqqJRASsqhWgMZA4+myfyvccif/inJ/KdDxZyPEdFJNyPweII2yVHJbH4I84A7cHo+I7aBs3W2c3Mp1z9oLP1gX3YPxjLgFfuRvf0kv83330uz55iepKbEUUGYTEzbcZhF+oi1kJTNFj6ChqgyMuxLJapfPRU5D997VDefzqRoynGH9NTGaPcR4uRpFBwN8rQuo2I2DooCPX2ZUcKnhuXOZfJWNLxXZkt9+XDx6fy3nvHcvxqINl8gJMbfem1P0uaGU5jAikmUUi60D7SKGqDN2Ul8hCi8dVvfCxPj1G8o7Hsg8MMs0IM+1LOTaz3WNwRu4COLXhiqjQwTy1otFbeE3R0mmGEPJQ7r78tLzCH/ua7r+TpS3spF/4oN7yKYhZtGbtPCkkchbShKRosJ5AbV2zvf7CUP/nOobzMxjJN9mSWj2S+HBrV5vXzAVenbYUAfW7i4mVcR72HLOLKgicLV+frkCKQ6JU5Q7dy4cCrdiRM7q/AkncX55wS8yqfRqWtWe8wTzIZ7mFyDbcZbxG4c0fefX4o3/jgmbw4gR+0Xa5vLNl0EccgzxCUE/EF4iJnYDkKiaiifaSBAue60qtTke9/+EoefHwis8GeXvLKByhiUAcifDjI9npaIyJ2AowIqB+8f6je0LT1aVu0Nm2PEAFsFxCFV9OF3HrtDTnGtPpb7z6Wjx5PZZHt6V3Levdq4wG3IrKIAFpFg8VOnX1+spTvPziUp5BovRFGld/AnWGMZJi68kcQERGbo9pp2ZwczfIZ/5lJhmmHHOnyBMbOD1d4pHsCUVjMl9jyprCxvDicykdP0J4P5zKBe4bINCz961mQQxXehz625og6mqLBWsHQj2LAu/3fe3IiHz6by2I5gue0VpUREdsAW5Vh8GeGtPorUYYp4ASDbvpHUUlknI5lNsdUho9fp3fkJU+ED4/l/uMTjDggDHydA7fcr8MZigVG0uwLEQ00RQOFzQfVWF4nmPO9+/ClfMzFz4TvyqB3r5IiIs4CNjIKgmX13gy0NOtu2hzJNQ66GzqoFx+w8/kX3t+pPz72ihNejhNfJnsyWezJx4e53P/oSJ58PJV8ysuxvI+DQgGhWXKBlONss1DqGGEQFA2uIFGzXx3P5eNXmUxkHyOPoVZCs4Y2g2sPGt12ooy4YuAogJfqy3ZQVwRu/c7q1h36oWxa/M+0hpiOjGWB9jwDT2Zjee/+kTx7stDLsTpF4U8X96cw8fkr2k3+dJ/+qrm6aWiKBoGKpM4encxArk+bh4QGLFVf4s8AV/COETcR1U5o2oE1aTtzpFjUBKPYb2A6dRWmqRp//M/rI1zAzwYphAOjjsGeHE0Tefejl/LgyUSn5JoKAw54FYVXZvwfb180dPHeRARFg9qQoVxevJjIyxe8nMpbb1Gg+mKT/gXlLq2FGHF9wD7mL4BXaS6rmrWCkmaUwdDwpJ2w3rZgHvAKCLu6cy+nL4zBBTfi0ATbGZOjh4FmxtjVLRnIAtOW7N6+vHfyUv74/ceYip/IgnnjbeeLBNMZygMfrSf5eksKCbe8JDu37vzdLLD4GlBNRRkvoBe8Z5+VpbWjjIhYH2c5T5jlTCcqRjT0zAY3aoEODDqbpvG7LC6tGs8ZAr1czGRw7zWZjW7J/Qcn8uAxpuOYtiwH+yBPlvyZEYcBt2bU4cw3DUHR0Iqx2xIsnO1pqj/qMGeciJsOrh/k6NiOpr2VnbwYXXjtsrPpMI5GfCYubXMYacwmiYxHr8kweUMOj1J59/4r+ehJJvNshLB8DJ/TEQMdHfEdpfp0LGmustw0tIw0QPzj8IwWV2hNxN4ecYWRDWQ0PFDhmM/QFQZ35OkrkfcfzuTxi6VM+WQs7x7V+cwQ8sEpC4WCIxAnYTevD4RFg3M5Kxo6MCvKxRrcxFCHic4cjCoioj9WtCeevOonMN/O1slpiltP6YJOaQa8XdFcatUbxocjfUL2+YnIuw9m8vHTTKZTCEU2RHz2Hg4FI1+RwDVGuKfrfBGiwfv7rZnQSUsUh4hLBtUaUEXDOPWC8Uv14LQF7Z3xjFKZJUN5ejiV+++/kqNDdhLzsmy9X0MWGHHwcqx73sr0j5skIUEFYGGadwDXROMmlUzEzrFOe6LXcsRbwrmt2zYZTK/K8GFLXl6FgxI9YjBMZTEYyuGpyAcfTeQR7+OA/1zvKaHAIMwSYfjWbPYRxkNB8frKdUZ42IDCIVgGphhg11LGWEOZGGpw3WEZcRPBNlJ0OrWzO/o07j5cJ/dbj/pGR3Q0Z3azFEkaOzqvtRcNVGn3e+R9RUobP+GnR+g0hUSM5vIut0tJUgjHcF8+PJrKn394KO8/OZY5n+DMx5Iv9mSZ8e5U6x90YLrXHa0jDYJVpN8+gYO5Ldfso8m3lYy4kUDVa78l1dwtGA5+yyHR4/jPo3FSkzppizRGS73h0PzZfx5oBzVuD6WdJnvi4wjC0ghHIhhoyGR8S47ykXzngyN58DiX0wnXOEbICq+eMCQ/EcZwHIuYBN0I5LqiVTT0dn0WAFdEgXrBR0RcD7iWbTq8ihDc9OpInkrK1wcmd2QyHcv33nslHz3OZLpAGHQQHfEsM4gEpyq86WuKoDOQ6x3XVzhaRYM0Qy174NiYG2mCQSIizgFolRzK7BDa9rXJD2Q0GurnRk8nuewdvCbPXi3k/QcTefyCL/cxwmK6EDsGRhr6QScKhht1XE+0KACKDn9c+MkHKXylGK45ck3Dmbm2Qbuhia6ku1svImI70C4Non21nLx0Nr2i3fXyg98yH+gTsjmEapphOzqQJ8dz+eZ7p/LwKUYSmLYM8n3k5hZ8Y0SiN3vpkqnGYHj9EC75DuxY6CNuEDr6bD+ocPRvwv27MXKGaQenKryKmA4HssAUJN3bk+TWLXk1z+T77x3Kw48mkkEjch1Y1O8Svb4dpb3EWaMttepuyzUfiC7RvA04IqIbbCWOfmui2T1iUG2K3Z1xayc1tOXlYIER9AKjDXtZNskk3R/K8GBPXh7N5d3vvZRHD2b6jBZHI7m+7Wsf5N2jXB7lVZ7qMZJXHU3RsDWkUwt1wEANBaIPCQGmGFw11mnCOBK+3blFXDOg6uv1XGcf+AKhgmHNpIGNDQ5dcYaEw3cK7XfQtPRkiG7PqyBgAnvCIQfD5bDzez+jO/L4OJE/f/9YHrzgqwNt4Ix3jvL5FP54P7X/sJsBbY5XESvGdiglLWFHYzUvJjEsD9+sPNPJ0SHkFnF9oK3Dq2O/xfj0YdpRjXCnWHQJhomf90jYKYALCJR+jXMdvpNLsw4vOgO0aV4P4F2hPF/mi1wWs0zy4Z5kd96QJ/NE/uy9I3nwdCFTCAfD0j/G2sXP3FXi08iI41VDWDS6jgS1poJhD7kqIBERm4MdthCNGsPgjnKn+rXms8HFa2hG2qUL/zGPMk5lMNyXF0eZvPcRRhwQjhNMVfQeMP1xlMGrKbwc697H4RZKr25/WTHSCMEIhi8cJSMidgTtrauxvZbIBB0NVDg0ct62ZqYu6XAsw+FdeQ7huP/gUB48n8jpgpdjuSBqbm4rxYN0U5arKxwbiIaHFRUZL7lGnDeq3TwM1/nXbZvu1gI+QJHyS0yUgkUm6ZjvHR3Jhx8fyTe+/0g+evpKX161mA+xH8KBqZRJiv/NGod/yqV8OF4FnE00IiLOEbw9WztuYa/2+nLxftcYSLYwl2P39oYyy+YyQ95Gt1+To8VI3r3/Qh4+4KfcuCg6tred8w5Sjk/OJ4e7RBSNiCsCc5YnzKMNRjAG6LmDi2jFus6BhPGXDRaSJ5mMbh1IMn5dXhyN5P79V/qW83zBcQnFg5dieUmWn0tghs3UxYw3/KnK5R9zhIt7UzHsEe7q62zErtA9XUD30pEFWpBtRHzmY+0O1plGTyCO4RBTDmxPJ1MZj0Zy+849OTmdSpYP5eDOG/L8dCnfuP9cnr6cywJZ1K+3YV8ClsJBuAxdfrFwCIsGjoPZZyXpoo0+lONoKo/UtzX7RBi3+k24VXAfbBgcRvpcd24Zcbnhmr/PehW7NQWfbe5K3QuDjZFvF2cbNGsMdpdFPSwaZ0mE8dswbxVfm4gm4+v6kalROsRURWQ+z/XhNmZvgn3TvVvy8TyTP3//hXz4ZCZTfq6QQfhBJsTB/kLwP3uOu6fDHF3Jy4iwaGwBKJeIiC2DImGNBESADZhO59/c2N1tt9ZrvcwJ7x/hukUqWTKWLL0lL09y+eDhiTx+ttC3f2XULZtZIxsEw7rbz4mddcut4HLnLiKiAxgnXJRiNOBGNfxinKoCRhTJcg9ZuyWHx0sIx1QePVvKhDMqqxYcbOi0hYLDFxbbb8hedmyUw8rQz4PWX8u+iIgzgX0LG+1jaFyk3m2pZuPeD9bzeoE64RZo3ZWdhFMmPh3LgUi6p19ye/JiKt+6/0ree8iPLCFpXk3R4biZ7ujsSd1B+7us2KqsqVhwaxkRsU1oV6JI2F8IbIOrsbtWyhjNm7tyGY6HOk3nYynZcCQvppl8+73n8uGDiWRwZOfj0gj9FDdLVg6g18GcOy7/WCji0oJNmg2+zp2hR9xbGjycAeZuUb4GMB1iLDSYw7SQ4cFYEj4de7qQ7373UJ48yvXpWJNdigVUZDCFmYLjQ8cfxnhJEEUjImKbGOSSpANJk4FMJqd6lefgzoHM84UsMF85uHtP33L+ze89lwdP+DyKA8WGVyfrokGoPFtePNpFQ48GOqiLNPRmqJdJC1uVEdcf/oji4s/qYbD78bpKmLvPtFmXEBkN99BfxjKbMtUROERXGsvi1m15Ck/ffvBSPvh4JhkLEgW65GAjGxjaS8QUEXc5Fg6WF4twX1fBiIi4WlAhs+aLB7qWO+FaDvXbsIlkoz1wX55zqvL+M3nvwanMFyMZjW5jZAK/lRdY8aBsHC3d9bxxOXIRcWXhLkL4PDcwPWt0uHDR8ERCM8j/yBRpyob3cgwlHdyC6ba8OhL56NGRPH42M/dxwDUvFkN5gPZSrJJxXnyX3SgHPPYQIyLOjv4tS7sWdvsjjHbfPly8/XxvDyY9djp9fiYdSzK+o2sc7374St7liIN3f+WpfoyprsA8xjaeJ9YWDaeaIUZEnA1+Z65zNbQdcuvMwXbpx0meH1x+dH2CPW8wkAXyMMFs5MnxFKLxTB4/mUjGiyjAEt7MDWDWDpr3fhlzneeFjUYaERGXDecvAeio6M2O/UB/uWSLuYzHyG2ayyyfyWBvJIODPXk1mct3330hTx/DD18dCO8aM7+pkugqKW1wMz+zV33YrTPvFmHROO/Sj4g4A5xgXPpmq0ONXMajROYzjCgwlBjv76EXpvpMSjI+wFRlIN++/0I+fDS3rw2EFOhwyV098eGEos7don2koTWADHAlVzOt2adjRMQWwSboWO/2Xfuq0CbqtrVmqn3V4y7gjzraickFtxqCC6Kp5HzD1wKiMd9DD7sl8/3b8jjP5dsfv5L7H8/llCMOXeMYYzsUfiqB4Q354+VYvnvUPmVuuUuwNnrAlfSOSjzihuLSjw12AuiG6NcJIRpc8KQY8H6OJTgfgnv78myayfcfHMoTfTp2gJGIefOXk5wSpgyNO827L9OeohERcfmxq1FEG/xRRC/4l2P18ik6OAVEhwYQDxURPunKp2PN5dgPHkzM07F2jYOe3ftrzGVYvhVsZLbnIBhEFI2IS4r+TfM6vciJIxC+pEff7pXckucnS3nv4UQePHWP1UNYtGxs+fC4z/nYW2rGzYqYGztL8u9SqyumY0TEGcAX2CRoR4ZonHwnBVh8GMmiTSDoI/SYw2WGPk7PR+nBlMTgIV/mujCaD0cyQ5k8eH4i33rvlXz8fC7zBUYZvBSL7sgeyeVRt0TKKYr77RLrlykqkFkKMSLi7PBbU0vLcvqBbX2vC+HTNxlU914OMC+ZzKYT2ef3YvcSmcxOJUsSSW/flsPpXL7zvUP5+HGm528+Uu+mK+YJWXM5tsTujm9t0eBNam2MiDgbXEO3LC53uFua6AwTzshsb+bsakiomW3RmS2LeHS07O8hLwuYv6WMhvw8wlQW2VTSMUYg40RyDJ+Wo7G8PF7K9987lQePMuEjKgYUDd4i5r0STOEfo+N2sKFosNKajIhYD+Z51JI+YIdAKK1ZXXNjNt0fP4oIzdouDTWiQigoMv4+drJy32WAmaKYbTqESGAYwXWNNB3BMZEMg4gkGUM47srjE5HvPoRwPDOXYzGBk+UCfmYsF8RTOSwaWFK+WJ4d64uGslrVjhER60D7sNeC6o26vs+0MGxhNVct1KHYljD+S5ZQ4WjZd6GwJ12+IjBJ+UDbSC/H5guudfDKSCoZRhvzvQP5eDKTb73/Uj54dCSnM8rGCHtHRjQYlca0O6y/pgG0FTkXfR1N5URErAE9TXIkUKNtaXpGplE7GKSEba2QEpptu7Ttz9HscTRxFaikVdt3ntDMojvqZVRedjWZN6MHmHU38jhEHjHqODzK5IMHh/LR42OZZZjGjFJMY7xpnJYL43FkV6fb2bGRaPTBBRZ/xDUGm702fV4+MGP6QijU2bIK18yL0C24zK2WIy2uXWSSYOQxSG7Dti/vPXgq9x8/l+MFF0IpOiTKBGduFpFyy4e1gWgwiGO9Avx9ZMRNgA4QPG4KhtVLppZNoE1pkzNrGWkylNF4r72rawdy7ZBbBKa6OPdi3+UHDztNMUXJMpnxo9OYphxPRR6+nGKq8gQjjiOZTUTmcJvrreeGChQQL+HyhnM61bkurk6pRdxsoNGb92e6tQxz6X82W8iUnYROhO4sbNcHELvZdCGj0b4cHNyS49NjmeQYa7z2pswGt+R77700H51GEfGReq6NmJKAVGx56hVFI+LqwDst6p2TEIgJOtJkYjoEJyp8EzhPsfyEqPldFwEZmMVOTDsWvLw6zGXA78mmmKoMPyEn0wP54IOZPHq0KD6LkPPejcEUJVC+5dysedBMblY2UTQiCrAJraIPteNf3b0vXJyOBhyIt5GgNMC3WhN0kIEcn0wgIhyBoDPh7DvgqRadQmciXPfQqYhailhK0MWSfnqi9/MmWwOmYykEA1OT+XQm49GBjPduY/TBqceeDMavy5NJKt/CaOPhy5nMkD8Ka84nY/lQHOzm5cTuJcW8rwNDNGy5p1oH3YiiEVHA9isl1+FDNJc6DfGvoO++DouPh9PO0YNHzYjlQJsqzNq5mSQ7BQQE+56/PFLxyPn27lzfsgnhsF2A4YHiKoS1F3Bu6l7dV8+rz7MgFF8fZphzUAPTZCTZHMe7SCQd7Ot9GpNlKtP9W/IxtOAbHx7Kk+cLmcFPthihXEYsMluDVlBVPPgJBZI/7jdchSgaEVcG6DeA12ThsMBY/Oh4JofHcxmO9yQdDrWD6RQeQkDz9YE9FidyOcqCV0ngnOFfnsCc7snR6UC+994r+eDxVCbYPxjCfVDIPn4UR5ajuxxbFctViKIRcWVgBMA2ezvKmC9yOZll8gKikfNSJMmH3NBZeFsDr8JscQ3wUsK82QvTjHyO7o9jTzDiwBTl+x8+l8cvJzJTXxQGlJl2eZI3jI3tdiui4ZydIoE6fDPuzKOjD9q7L5lFXEdw2O+eTjVPpG4HOefkFIeiTbPR44eGpkN2jtUTDM2nuXz46BBnWKjEEqIhI3SFREZog0MVGtuGg7z6YF/jegdndHOugmK0sRwdyMvpUr79/mN59/2PMcbgW784VeG3V8zj9RxxmFHHelij1FZHvn7yEdcNu2sDzZgHgxSagY6AM+azw5k8foqz6iJFl+CbsChivOJgOtV1R55x9JXK3t4YwoGp2v4tGezfkaPFSO5/eCQffHCMwYgRdfO+DsItiPJKSn9sJrWtt90ycZ8RNwFsBbuudTZzdv6qdHAUwtunUzmZZPLoySE6zMJ8pQz7UmSm0URDuWVbvtJAqeQQUI70cOjZYCGzfCqzZS7TfF+OZwdy//6RPHk80/s36MeIxcTSP35XPo2CK9BTNPyquuoFHNEH1c55kViVE+wf7OOciXn885k8eT6Vaca7NTAc5/RGh+E1oShOepbXAMMRBBSHeXo6kdEo1dEGn44doGyG49fkcJLKN75/KA+f8kU+kAS+IlC/L8upip326c/BL7Mq2kVDQ6NCOEf11jPMegWqIsCIqw1Tt4b19Sm3ZlG5BRs0C2ubSoxrV2108N0CaWGKMhjdkxenA/nO+y/lyauJ8H6vY5xWp+g5uV5eJHlPAs+wbli+/tD8cmKJEQSOA5U2GpqnY0fpbZTUPkosES6PnozH8hTTk2++N5f3H+Yy4f1e2Z4k+S0QoxQEN/UO4UBfNuVlLs/Wy8ivmRII3A7ubGPETUS5UHlBQEPHwFzS8S15erSQP/v+M3n0aibJGKMNtksdTZBso8ysoxUiCuCVB4/NHiMqhFeWEs5DsNXLselQFhDXFydz+eDhVB4/XZrb7+FdP1DPklLBYFwMlxoGLsmuX1o8BbUx4saCwuF43hgsFzhL8qtlY5kle/LRi4l88/2n8ujpsYz2eEnRwQqFdgi4K5ud4jrAdcmiV3ImoIeZyMvjGUYbpyifTE4xmOC6qLmKwpvoaGEZGVJ86pW6tmj4GlFnxE2FuduyuOtyW9C4Vsdn2p+5cQkTeJlirv7+4xfyzfsP5fnRTFK4DfnmKwzDszmH8jwTs0PYCK4xWHp8aXGS2OPF9GUBsXz0/Fi+9cFL+eDJTD1xGkP1oEjoSoMrG2z9lQ5ibdEgXFXWGXEzYU4Yu2gJiKvaXlsAseKiJ5//RqNPOK8fHsijw6n80Z+9J/fvv5DphPN83vyVomPw8mQuA07kiwR2kf+Lh44cCBzzaMTXB6YyxWHPBiN5NsnkuxCORw9nkvMxFBSFvulcjeZnK7eCjUQjImIXMHPqkn3B51R4NyhXNhJZyBANfXywL5P0tnwPw/Cv//FD+dafP5GHH53Kgq/P441Qw5kkozk/owq4uTvJLtGHV0hcUJYciaUQTX6pDSUk6cEdSfbuyMuTXL797Rfy+EEOYTWiobKhbzifari6bvDom7heYhtx7THQy6sErwBwPfD0ZCaZ7Mmd1z8jk/yW/NGffE/+4x9+Q97/6JnMOb1PR2D926gk7eaqUDvhR+9UhblChN+Iobj6sSpkYSYYXfAht8npDCMskVu3xsIXfc0xXds/eEOeHebyZ99+Jh88XpjnXqES/Dg13xKml1VqGEDRqzoCG58sPkbk/+qPHso//g9HML8twyyRIXboogkYQq6ZjLgqqFd9caMgoZXcUtErsM4ooYpqmr3jYZtVr2jgXNtYLvRYKAi8qXwIlRgsTiEkT+X0+LHcuz2QL3zh8/KjP/yDcucWX8qrwRpglK05YJrWWKAxlHcxmOPi8zJEYg/RWhXMv744B1tDhqsi5MYkuWZBJIhYjaCKZws0LWz5YaYBEs0Oj1AOB5JhjvJDPziWH/rcUEbLqYzQnflqQV0s9vIaReMGo171V1s0jF9uzX0GpRs7hhmUz2UG4Xj18pFMjp/L/nApn3vnB+T1N1+Xd95+W+7dvaf+DTijNz9NQEmY/Kl7I3915SnD6Aef0aNN/zZbYy+Pl+g65vo+JwzcmGjLuKqxVqHx4C9N0V/zpYwwXVtmSzmdTOTu7Yn87E/clR/59B2M0zClwShF4UUYReMGo171Fy0aenlvE7DN2jS5daLh7GyZvCyb5jOMKmaymL7CiOOFZNNjmaOjpAnaNk677oytEYK8d8GZSxg/Gm3hHCorry/guNQ7+o95ZSHNiJ9mm28Gh4QU0ZR5KaHHZs0+VNqwQ99Jor9u6H745TtHKRYHeyOZzfkBpqXcHh/K//APfl7+zq/8lNyDXkBPGoi9PMIDW4jjeriIkCFoX8M/jc1GSzHMwAXEIU9HMty7I/u3X5dkfE/uvfGOHNz5hOTJnpwuBjIhcYIkZ+C0wYFuZxnkp8KhpbMPSiIDc2y5hrDIR9gOZcEnTpc8l+8XzAa070FjaG4yB7nPJ91IhiUXJI6lk4OxzK15luzL4WIsR/meyN4n4Ib4oApcINaLUSzHGuJI4wajXvWb1h+bg98keAdiP1RD1vPTG2yzXlhjxpkcUfPMzhvJeUu0vjmC75zIFpJkmWTzE5kcvYInNHiE4Zu+Gc7kiGdse+8HtgbV/FbMvBlK1zR8/3XYmF1eKx2pHndPIIhLlegzWGP69M/R1QKGZHhbprO53NlPIV0P5H/8e39R/s4v/UW5hX0jLmfU4ly7lTBTbYyIuFxAq2e7VGKUgZFGhgnKgu/NlDE6yx1J9+9AXMY4S0NShmOYh2oOM/WIuNCbCqInYTBh7dwXoudfw9SJ8OsSafoncurWSjp/3CIw368hAz7AxpvxE0mxbwjd47tIbLQVINn1gTiDjIi4VEDPQN9Ew2dXQFNHzzIdxHT8PBlJMjrQd08sYV5gXyEIFBj6UWIqYc3FZVdEXCWjd+bqZVEl4l5irFN1r4dfj3V07asAHoo7eK0s6BoKRCKFG99DQlfeABdCu2g4FbD3oLPo6Z2qxqhCjLh4sNq0jlrJOjRk4+eUxHE3QKIad4jctwUgmgEvNzqiA+jVCgoE2q7+uF2mwu+ipinfJTrW+zRG433ZP7gjt1/7hNy6c08k5agDwoEwppwoFigriArJJ2oRGGYKAITAkkLUTYxknJn52oBL5N9nDjdHI3YYRbkt8ufIURJHVo5LMS8uUnOCuCCXg8EccYI41gxuCySZcRU0UEWsuSaKYYMfYksVHLFbdFZTdSdOKNcTxXEZgzlvGlBK1ObO8OhUko5URCggewe30a8hEOh47EB8nWAyTMGhDEFueZt6CnFZiwjHOzKD+3pyqFumXSXzk2CrN6zBLMM9mCmKhnX7AKKZcJvAnSIIiRwMFhCRTKdwFEk37QkNBsKisQJsbI4+6me1iIiLBO9jQHe3W1CnK7AUj8rDiJHJUmnEYx9TlQOQD3glKeb3FIk0Lf3x7MvRDPbrS4wtE0w9VtL646XOkrCj43bThKV/ClcR1u7nKw/V7ERE95d2pmGEz9CIF9xwfHpsEEgVHZYWzDpSY9loCTWxkWhERFw9lF3A3FBl6abfOgVnpxlCOG6Dd9CxcDZWvyG0uW8f4eVIg+CkoBP06HnW48YGTvUTPa0hgQi5RdxYsDk41lrQToA0Kp12O2nqmVJHA5YYbps1DvOUq2OCM7iZgpipiD4ByxHHgFOV2/pxaRZFaFRNK19yYwgb0unLyogc8VTsAWr6DGfDmpGRIeNTYeMxdxBzEku7CItjLtexuGX5IG5a+VYeZw7AhYqIuCFg10BH4rYQK4iImcBgS2HBkB7z/dFoT6cD2uk88Myvi6Pqvj75RnCTA/5884qfH86akblAPnhMVbeqiMCFW+xRIYOZ4qdCSr9070BYNFaFioi4smCnsAKhHYV202F8chTC9YDxaF+GI05TzGhEqR3EhcMWbqbTdJF+jD93ZUdpw3eT/rhlmi6c2cdf6c8j3X1yRGKp6zWabpk2RyBleIYwuQ6B+zrAAQrIxSNnjrhS0DcxFaR9WZDV6ZvNuxMM4Vjs60P/m6ymufks0QiLQbKjZqIDppGvSf4qdqSii6FkGadJgLQdTBcJOdK4A+G4K+PxXXS0fQSDgAivOFBEeJY3QoKe2EIIFImOr5dd1c6tT+snRBdOyTR9mrRdp1eqSOiBlW6kznFII3ou7xqW+aQZW18uzP8m6CMMF6IiGGTElUK9+jyy0zqw+8Khyp6gT5+m8Th2oRly6/CzUmQJaTXcLKydQpIMxuhPB5im3JG9vdcgHrfhvgcPFA3T0djhliBHJnoGL2hGK8VWr1bQbK52GLr9bWQYczWE4fWSKtwMMdpwhIDQP80aDgJT91McGKCiYQ5SxaMcYTAuIwml7ybaRSMi4jqCfYXzeAvTWdBxOLrAViojHrqZzsvLnuPxPrhXdFDeHEaazu+EwtEXD99uyXjRuath6qyH4VfikRcS+31qfBoGVHEydELAS7TGvYyP7vRjPn3JUQYLh2WiGz3+EKJoRNxMVPpDuHP4oKiw41E0RmNzk5UO50lMZXglwwhQiEaQSlJ04K4d13TqdvrhPHddsPXsFfp+/fBUA3Z5Hq+1Y6v3gSAvcIAd+cE0xuyheJr7WXy0iIbz6AKB3n3ounJraaIw5E00PiMuAqxuv15uIOzcvQvaidDR2Uy1qbIzcQTSQvrnU6Gj0VAO9jHi2MOIAx3elLdB/VJpG+tx96cRpxC53wlDk+YxAT42YI7TrpeAvPTK/XrpGMdH/zoz1UIJd+L1W9WKyoi4JkA7jChBHWKH1ykCOtdQbyUfYg/7AwuL2zovZyFCF6yYcN3GbLnI2je/PLKICIV/NgyfY64ueDx2zFyld8xddKCZZ3beXj7c2xc+98EhvZ5MW8hLpGYNw7AKRg5/NfoPEpZEdEzfMpRWwQrg2RtdcMSCjCgpGIxb46NPbElFSyOox74SjA9JBX8R2wPrq5sYRgaIf/zfyTpcnBeB8ngsQhm2rPj1LepQD0Bnr1x6oR5HSbNYiA6nPYodH6MNvY/jAALCO0eteGiXqoXnpoLaftL11jo9Pzoi8OzGD/O0irVuboOz2CiCGq0KDQgLRx8agm86NoVbQS221TCXuHEAAUZsDyzOdrIBh8nWUNyGQKpLkz5cvOcNNscKA8dTELn27wWp3n9iD8DRwheNNuFww/ROQgxIc28Ebz0390xQJLggOoRo8HF7uvn3TzDfelavpR1KA//Uv2O5j+sMhkyvXOBkB/eFIUxz6ZX+Q2mZ/NDu3mSud4bCzHUNvSTPiqlhbdGIuL6o9D3rdp1QOb4QV/jROKwAURR4wxU7Mx9ZH/HTj3xHh3Yp06ndJU92dvPiHsM+0LyQgXw49u++RiAKWte6XQE7/sw/ikYAUTQiChQNVW03ENpb+oKe2cMgCjiTpyO+b4PCASGBSJiuRdIP6ezrdLlmhjapIz+MC0exaAKjDf6Y3w6scwQKc6kVERekm2FRSAUjzh8odz19WJ4LmI7j2k1qB3B5qcJvq2WbrcIfxnfRh5kqYDwxwqhjhKnKaKRuZkRiPXkopy/+6AP9yifcwjSjFy6ohvLVi4x/ifCkTnkocgQyizTgwD/1G8JGNcxkzU+TKWjQdIk4b1xEHVy2Oj/fvLBDs6fxJTe8HMt7HrTnmb126+DKahWJqlu1522KMh6e+M07Qa0IcTfE1MxMaGtKxEaiERER0YQZCaD7UTgwXeHt3bwqYRYd/VHF+YJSoDdvOSawezQjEG80Q7FQ0WBem+IURSPiwrDOuVIfqLtUCOe+EI50qMKhI45LDHevig//HpbQYUbRuArgcBE1WJJ2dKMQsZMfBnLkh4vqNJcsy05Yv/2fbLYVNpU2Vn0Xj70HaM5qhvinl/cc4SN8TCB2VcHHGgrCTyUdlMEywy6kZ8leUL9Mq5dq2TN6shIWWXC7aC4+baB5Q5mAfDKVC6S8g1SPtwPMis8QOAbw6dY3/DJlMnwPatUN1LVIQ/gwEXooD9McG9sYQpmdNTCGiIiIMyDUyd1QX18AzDUOTlXQIdvQvmf7qKTlWSgSJou8S7RLvCIiInYCnuF5lcO8DZyLoyP0OHumZ4e0pD/2Vt1WULdvjmLE4aVFlm/wsnRpcrjRknyLaPi+aQZVdlpiidgBXHlfhXJH/ty4uu30tHX4aVqnDjBX/qVWx22hPHwM7wuaRVBOvcxDbuZejgHMeuOXJXorYjAsFiMD5JSn6kb/DM6tT+6ru3vhigkOplD2Bx9I37iZvBBuW8UK0eC2zojzwRUqd+1855xXFaf10qyH6BeqH1gEhlwTcCzdCXZevrdC1zj05T28n4N3i4ZyRhKl3XRsn4TbOtT3O5Tu/s/YKRbIE+VARcWGbRHkFtFoh1HTpUfnpns9clYUcd7wa4A8F7jTtrJfvZdt5vzgt9VzTb+WmL7xS0cZ7KTooh5L0Fztnn6+t0UDGjgyghu2XBDtwtqiQTGAVNgfEylZt0VcDLZfCytakWK9FLeXt35wuavzYmA6KQWjHX3KfLswZYIfDGRbAbWLhgZAxnmJRi/TGK/mskweZEQVLMLyUha/mMmLoB4h7W30Lxe20b/MyMuojFMl3XNfD66e6/TbgQ89QrvthvPpyqIPzEebw6zDP2bHsqzRPlkyeim2yt2Cowc+9YoDTpFnji4wytAbvDDKYOpcY9APF2FrPjQN/0qc+Xkp2huFtBPxFsT0IugHbSbI0o/YNFfVZrP0iXXbmsWGwSIibiZUiwfmCoZ1unBYwTUKH+7RYdHoAkYUS482diVOkMWZpO/ZJGK7YDWffx1oqh5XgyHCTXI3qJfL+ZZPFebMnmDwYahneXIF6v1rW+TNfA60M50urC8aEecE1pxjRBNXp3xUFJDPYhpQwLm7p1bdlYuSmEB47ItqHH3gC4dDW8goGpcVlHvHnhV/s+DK5SqUjxMMjirKNQfjnug9G/qsCj+gRPHw6t4XjX7H6fz5bO/mzsc6iKIREXFBUPHAT9/JqfdvgEPzkFufjuzEJ8S+GGCEsR3RWDeWiGuAWOkXAlvs3LCzu5u/+giHhmlhE2HXTbBipEEZstQFrsDE5wbAGy2axSOUQx/yN1iWrEQUuGzog5ew3Q10Gpcf1NIHra6qfDahPsOsJIA/u5KudEflu6kfDJ3rROOvEz2icgakqbQZ+G+E44thuuHaI/OGH7zX6aCdkUSKdW4OVwZ9iRCW5dGjbEibX80zyJu++DIf3m5OpwLWk8u9sdPMx++d3RAxFP6UxdSoTlsvCK5ba6dRMxNAe8st/JuKMXDbmwVXAn4p9KHCczBFyv/hyqgDTU1/9O5FU7AOF7PPKkI+HInS3oy/LdUA/Gjr7AC7g/ut9Kwo8+RMPkuY+EK/syGUaoh1uOMz6Td8w1lHHBCO5ojDz7vb49tLVn9NF/4cnLl0ASqWEt2nu4iIiAuD+5qbEw43YmqMFoqbwEq3XSKKRkTEZQWUolzj4FvOA6f+wqllWNAbteWHjug2Eo22ObP/5qfQdd9rCTuvPHul3Tzo2kWO2bel32ZvDthu2H7CzLHf3HaO0QY/fMQPNdl9etu4rmcAiMZ/C5o/6lhFDVuMYmhewmziDIGpX3uwLdbZF+v4raOe5lniOh+sn1M/xHohN8d5p3fR4AjDXJYl2dHZuVt69Jpwa6fGjNJUdpfrzRANWzAV2n1dcH7PAj/NS4+i0bB0VpeQ81XnLuGXp8+bABULHUVsTzQc9CoX5ECv5tBunINoFw0XSmukpBWiIC8L9KCRoU0alB+uLDhG4tHzZH6AnyhcdHMhMOm30uavCs28Ma6A89kVwr/USE+DHGUUIPdV/NbCKvGzF3uVjf2W1xUqDvwLiIQRDzWh4AxZFOuWhxEKCMZyhC2fwu1uvytGGgxpM2TNpanJSwNkhsXmuA7aw9WP1tGZPDdb4l0Fv1t4eQmyjv4l1V4+HnxPq+gh1Ni1E3Dr8abBCUew6uCISYtutfg2KiSKBt8gRtHg1kYTTK9NNNZO9HKDB18vAOcW2ueja18f9Enj8qBoLmrrA//4zuM4Q+mRNwMcWYB2ilKHG3mE9nXBDvpAjjAwcnPTiRbciDWNNqzqIltvjNuOb+vwS6StVCIuCpXmU2tLhVCoahhjBasas93dp/bXFg2KUP3SqmMTZti0XTA+xut4wdBT3SXIxwVCT0we+wNnRt4G7bhGW9k8zSsGti0tG04buFAJ+4BvMAcTkm/7Mu/1ZFPkJdqc/oo3gJG0gwgTohmhgLw6o5dhzYilrTpudmvfKvo3+IiI7aFsd+3aud22GUUjIuKKQwcFbrRgWYe76Wsb+hEWDS9uN0zx06KiNWjnTMF9W6aP0P7KKnJPOqPvVjrarW93wGEv7a8CnbYEuDEYtg+7YA+g5ZKc3WuOhBVfjzpAbgq7BZqn/srI2uBKDj/MMfz024Jey6lI/aALeoXaCS1tV+rKCjwH9VHzoFamp+AT2brx3KpoFw1OneyEUbe6aGHe/1heH4cLDkzJvc5ccAnW3JGTlfT918g0y/TDfuuPapvn2ZvuPkNhi3A4OD9NH3DRBl+H/5i349nA8H1Zws+3Uku45oa8+WWgZFgIR531M5pPh8ox1+qrTvOe8Ny8MRzlqEFqrCNQ3FcK1TKg3ZR/k1W/dZRlz3UIrk1w69YkPPptAka6+WBtIzWUqzZ0S7szgK1OTzrSiYhogO0FfSMoDBHbhROQdrjeq7VijC2IaxoRETcAbrwRlo31VLtFNHylccpjpiYKPT0gqJ4ifNbR5n4WID53erqgU5Q/ZNwdq0PVywxOF3QGS7Nx2jlcmo7XFyxRQx4mm0KI5pIr/ChREwmoawzGbG4VJ60Z7vTrx2/gm8NgPXdAs2lpQbFoJNCWUMjtjNCsdKUZcRFwNXFeNXJzWoB3pBQEmEJUqDfjz/l3ZuPPbHVfsfXN/dAtGoF4GioHN10E1b0RERHbhetdZCEPOwDi1o+frU5jxUijG4x+/cMIKFHEpcN51NLlbAmcGubKTVr31UX/411bNPQqJILpraorqz2QER2eINkudoCXN6/PR6d5rG08f/ip61qB97HpLqKH4a+sZ7cu0wf1RxH6chcwYlFGbo7DCIgRkV0A6bEdt3FDFJdbldZxJdyxdwdobZ26sGLN/nQkIuK6Yx3R2z2YD8fLgdWnNE8oiux7IuLzWoHHU6dFVcX7cVfhIlg+1nBmXMLyrFwiIi8enaIRymLzMo3PawB7KKEOync0unv41yU/uddwD6RR0tzdl/KFsmoO+am+MzLEVfu3TvzOO01WWMj9LMQRaHO4Lii0x5ntdhN0jzRsuVVFzlRSmNcAOM4l5ul5ljeYBdz6crOwS4QL50WZG7rhdBv1sALuOyF/2J5nml7jXBvB+ApaT9cARS91xxQ8tn79uFU0GKcS/0z54Yf4tFBvAHicrlNeDFen7zf0tnrp2rcrnHeaTMqluS6rMHb+P7/cXwwao6ti5Gs9dGCAgmuUD8+0Rwj9la89kH/671/JibwtyRJDZXidL/nijrDW6AMv1wDpIAPnMpSZDJdzKCsaGNz9o1u9GNQHHTWki0RuP1LvGEsGqrBA175d4bzvYOWi/cawV+s0Dr0SNECt78tCDiTTmi9rndPEEiHR6YeNw6E9kOuDV7nMcTDteuq8FsqroQO0+1vJx/Jbv/aa/OZPvy2vpewL8FBLMiwacDmCx3/51YfyT/5fiMbyLRUNnN4Q+RCFGc54n4uwbdi0ILeNBJ1zPDiRL/1oKn/9r74pb4yWMpyZMpmjEFn0LMi2y35d88Rd9aWLSLMLfn6YPO2uY287P0yKcW7UfBCG9ci8zdG8NWuZyO//8bH8q/+Sy1TG8NIW8RlEY0OV0+O05lWotk/m1RM/kAODAoMtisZXIBr/FKJxLG8hXn4F6/qLBh8TPhi8kJ//8bH87V9+Rz45nMt4NsXxZzIZmgaWchhns8utf8xd9xDUK33DtrNWmn4a9LYLEVmVH+536br8bHrsbdio/eBEyJNhhhHEPOXj4XDKRvKvvnYq/+wPMjnFaOPaigbz7vyoaHDB3YnGXYjGO62i0T3KNrFrAq6ANi2oKwWd43FLo53reVc8IqqIJXL1UG/T+klGjjbs/i60igalgdrES6zlC2RuVvPg0VIjWJzFsau9pNWWjeDHsxb5bwOYY9ku3fH79KF2/Au5b4urEArj6IP17MqosfPMcCluPeK14FJv5qb/YKApGn5YHQ+ZqKlCfhLXGXrEfuvhn5KNyuixoykZ0O7blH6cIVb81+19WQsXSsex7rfOij9rLtw8f/hX2Z6Ffhp1hvw7hvwra/7gxD+YueVvS3D9qOhP5w+m6lLW6aTHwtFulGoLIzzScBEBmphnvxkwRaz/8U8blNr7NyQWWYi7QCgdx8sAl4/Lkp8GigZutlrbmIZfZLuv64zS7tsEDFuEr8XbwIq0wqJhofHZ0KG4rzOMWFgLYHXDCshq+JXSWjlbQigtx8sCbbSXKD8GyJUqg7d1Db5iPn/4udlmTkLxar3opWdvNuHqKlBnraJBv4YYyCHCXi/GRQ7coum6vEpg+ypYc+vqrG6fox/PKvh+6/F0oe7Xj6cLjNb3W6ePehpt9P32QVeaPhhd3a9PH1W/3OnRD1APuAr+gdZZtJJ2aA78IGcEL9AU8Vk3B03LI8EtD9mTjdZst4uGxmaH6DTqf6dGbXBZuP4oy6UE7SyBm1MKJdxxt3HXcPURYh3NfcyhLvurbbNc+7HW2QPw5lJdN+U2FPGtyIITGPXWIwNdClBGwn9Q5XXF9yajUHmPu0IoLcfLgMuWnyogFsV7K7il3dguEn6ZbaPsKAxtdKDRDQu6unqnaBgwKsebAjNl0ruKleU0it9yieiPy1Ra2opbM2SEg50zZ/3Do9+hrjOcZPZFWDRQsKa8zPSEd5eZD9/00JhrAOoCHxjj1hcMUpUkwLo/86Gobvr+4YATXpjc5/slQ/GtYj0OOAbTI7mv7t8R/4JhHOv+Q3npQz8O/AumRcJzxW+d3K9+rL/C7vz4ZuxSoie5N3bxQ06k+wCze6N3f2gv8rh7sM86mvVIP32fBhRTx7L/h1GGCkEjWKdwrgfQdNCm2Jhgdo3Nko3t5pXI9UTRSSIqYPvuKpdu0bih4JmED/BkKL0Fn0sYjGQ2GGNrOIOdbj7p5tx1Kz1o/fvhQ/T9KUNx9WUtrlB6jnW/jiG/PhthQvnoQy+OGeyhtBxd3aziTDyz5z6XPeWCz1bhRBlPDe1oPrAGG8+wJyiz3/3qE/nt3z+W0/xNOA+xYykZZKZtrpfUojov1A+hD9rvt1jKaDCRH/jkUn7sc2O5k+SSLjg0FT12blP8q4cucoAd7bnBnvad3eh5f0gT209TXTvi5EjtvFFtA36+qxVSPyLmlfXKE4TuQ+N+9+FSvvFhqsJlvnJqwNsPSugw1JoJ2ziC8MMRfjgDnf1bMxEc4NODPc7Qbh+6sFBmXCdXJfx9OQ45kzRPZYRs3Rk8kn/w63fkr//ld+Qeurw+sFZDWDQykWN4/t2vPZHf+X+O5GT5JhwRA9AtGtZwjthEMIium7T4pGvCFfXlAsdUNpuiIjc9TuR1k6Amq+357cQFpLlpnWwOHKOfpFaUn/d6p/WAOvY7LDtbTrEYDDET5WizrQwwFvFFo3O9r56fTUUDPjxP3f2tmp/Km/v98lHRWGxTND6GaPB9Gq/Dcay7b4JoENy/7cZ/lvj63olax1VLcyMguWqazLef9/YOvYRotIFTlCgaxpuPriO90Tj3hr8CzM8mPAtC8fXh1QeOY7BsPTlebXiCsSHWFI2oMREEGh3PrG3sQsi/JU/c9atVJbkPo78QoVPu8qgh/Ffs7axf5jXEmVnjZDxh6hnfz/+O4K7w6NUMckPwZUOGnIBRNJjnzfK+u6ON2B7QWMIdaTU3hXaOQHwFa53I58XjMuTh+qJVNCDgRky5Ldici0VE1MFW0sZdgO2U7bWN+N/Kavsued3gH/VZJTUoGlporgBph7c+CZ01MxGXGbZRKJsw7cS1Ad9vlVV/IYTD1dGMp+639OH7rdOgaiOczU+5kkLV+0q4FLq4LkJxOO4SrSMNkzh+KCGKBq/BrcxQYKi6a0acF/wuo92mgDs7Ozb9lmz69WH8tLNEMx7+cyRca0U7sX5CLM+9JM2ljf/8OyP99QUN2hOhdOusw6XThVA8jrtEUzSYoEsYuWa+eelJi5b2HWcoIgBbJxtxQ+hi2SZxbXiZ9iwwbbSdYVdD7WQ11+uAXR5T50jDCAX+sWC1LWw7+Yi+4D0Tm3BjIGglLv58exsRVDtiC3eFUFqO+N9K/e/7t3vqWHXWv2xwx9F2PGdBq2gY+MmaoZsbNoUYcZPA3tjGLoT8GwZFqMKkgyH/m5MvHXYvHkbshb1wR47PA5U+Zt0uGitEg6AalIpQreYqI24KQrXvswsh/z7bEPJbsusX8l+yBjipcHj7nMmFUMLPecBP87Kgh2hEXAa4M+C6PAtC8RlW99GhYo+41mg+ewLwW7EvISe/+9VH8ju/fySn+VsYayT4ZRh0UGfCWnOVrmZ0Ne5kOZdROpX9ZCrD5Uw/fM35rrnmb7DRdIx3IVpjEDoBr+dribwiFIbg3QjtN3c9bgJ0f5tmPT8W3p2Emu0CfdIsw2rQolC6wtGnTQibshxpMndyltko4yn9tZQfwrn7OTT8MpXp8jba/C30gxQOZax+DIyXafYBPzjm5677OKvwny9h6+mXItB5pyfz4vKTS56gjZ/pgTUggzaoaHztIUTjUE6yt+DKW1D5kA4zE85QtfF0o1JsCHceZ6jKAz7BDkqXXEaDQ/m5LyTyd3/tLbmTL2U4NR13jkJk42JTYlyX5azaJWDr1IkPbRUd8ZZF1/Skuzxn2tUKg3M2AgxpgkNHVFW0eaS15kTRU+cicZdmCdYhj5PufBCTu/NsIP/mq6/k//7Pc5nLATyUbd0Pz+4LuXFRd6JyjMCmJ1ceS++QUTS2g76isS/P5Oe/mMjf/9UfkNfyUxlNZzjiXKYj03BS+NqOaPjlGM6PATNeZr4uEvpF/xZUnm5EHLxs3o4yHraKZaVC3T7Gh50aj2G9U9Rzw/0uKpcbJxqVkI06YUxlOn6a1bokSwe+3o4/18ndzYkmD2UaGgdOChQM/QA07Mt8LP/ya6fyO3+wkGl+p/BL1EUD3c3aulEvn6suGl0x32hoWWkNofnBYkhzoBQjIm4QWkWDXUNpVbLY1uhDTwSXGl25L2EOw/6/9McUwaoshZ00dcv/arbuDRgPZqtGjk/YKTCSNDvV/XrAHc/Zj6spGhQHEsaC1k6o2TI0Vqrsv2zQ8Z1lxLWBtlF2+IKe3e6jY7nf7eOP4Y2d4Eap5svYiDeFOVLDs2Ht6Ynf7+p9r2vf1QIbS9lgXCNzqNsjriu4BpSDbi3IbJVe+7gacG26xg2EsVs0XNwenNP6SV0VcGEvl1Ryu9hGcUjQUGBKcvzL6FiD8bM+N0NdnLlA18aqX/wr0qZ5O2jkAW58mztpFiEN1W1gWOYB5KKdLtzR3g+V9EiELdM0D8aV+xC9CQbQZHLIffSni9p0LvwyPOOyV2DsL7diwR/9Xi2YIwlzPbCmgmAh6rANXrg6b66aGJSNsMp1wNgKIq1NWf1wDuwZ8txCrlo7toGHkS4zGecLGTK+fIhiHclwtI+8zmR6+hyObEBlB3CN9Sw0OTKNuU7uC4VxzCBmbQz5V/r5x0HXGarfdppO5pglfCGvoX4CAnZuafdFpCDdgwyl5Vj64zH4aTI90tmXKIcg0WDcqHGISLmOsUhFw+ppA+nk8OdoGpglc27b4Coimt3AiW2Ifl7rownt3O44yPWA2AOopVEAmWElXXcMcfxDDChSlCc/V8DWc3R0KovFUt5845O1RmEaG0ulSbijzNqY5uRA09C0NL0liCbr7CDFS/0UtPG6dDQfbMSQA906N7u/kR9uHa2/GrVdbUocV2lHp0Sa7eR+L+xGRBwox4pd4/b94KSC8vGZ8m3zYsiR5TJbyuQ0k8kEnM4k512OrUCkVwbbzSvb0tpgUYZ4XbBcpmhUI9N5UOAc+KZJKkl+V2R6C4IykHGWg0tLmi0XUiXEp417NYb8OAb99Uijkhff76pwoJ/mdeQIopDKBCONCQQEo0vU8b39fXltbwzektGAt/FhZIozcuitdbwHxvHSg3l0VBHhdrN8d4sG44Zqs+tsHy7eXcUfQpmeHloLWSrLIaRiyKHqAkNWTFAObsFtX56/OkVRU0bMzT3mZ+4NXIe8lhty70MEtWa3rZvXpWtCpRvLwbdXWd/n27vCbUIbH4YLzX2G+kO1mqaKf4lPuDXszo2bXFDVCAYLEpvMFjJZzGSSsZ4XGjf/tL8xesvLDz+3dRK+eT0Ev3uC6by8gsj+7lcf68eS3LMnIhkqhvO9MOijNzB8LIC8b3p5q5p9RKQtpw1lmroaHvCKWbDcHTyVX/7JVP77X/kMzkY4E2FakvBzfbqQyC+wzWFHKTTSot1z68hLdY+ZUqA21FwFfCIezq9LGNFTFGHq4QgG8gL6+SnKOxSWaXqu9eOohK2j5rejDNZCoGwYs17F4roEf5oUpiXGYOHCgS7f3DAYtsPlHA2eJ4ED4X2/r9CevvL1Q/nnfzCFeBxgX9lmUi9eRuE/e8JpX190ral1gUVZCblGmhVUytKMlM78saSbLBoDHOPt9IX87BeG8qs//7Z88jYc0a74AakFgyMMC7IIulm2Ff4hM75AdhT05iej5pBnum2SHxeXF1aNjUSBtky2YZP81LFGmp3J2XiK6OCZ60dmjdMsvKKq5St/+EL+2X88ljy9LYOUUxSDaysa+CWYko/Qxu9SNP5aFA0PZZrtogHVHbyUd96cyeff3oOALCSZo0HhoOcpjh9DArME2QzcrFT+q/qjzR2qmishaPbtzRItfSA0IjIjkHo4E7ODjmIcmMlKWfthy3BuWF7AlWsR1t9JlOlVoN5snNjUQ9URrJaWNFn1dNEmgH/O7nurrkV4OxwGXKtKJcUZYciHE9OhfOfBUv70A5Tb7TsQjjL8dRWNDL9ypPFY/uGmonEI0fgKROO39Vuub2kGeRZeSzRcQwuitq/Laxcq2e+OxNynYKCdohUTzHMnMh5y2IYC1WNH906y4tj1Ya5a0bkpBF1JWrmS78A06x/JLvcSLqSDLVE4uWoyDceFQoxFBJjdW7NJs9hR9jkF3T2HSqcCvIbYEGSFc+PW39/VgE1YryiMGcE9JzX79iYYwEsTeWUei3xio/XqHQPXQhz89J1xqY8fDlDPQ62bIdrILB/LSb4ny9EQYXD6tdA2QIOmYw38j01XvnWf8XomsN6r0XSXlo96Ny+DcnpSfpbxLkXjN+5CNN6Wu9CAtUXjd79mRhonGGmwUQwwRl9PNLoa0vmjui7QBRaJ65ocWaC50AkOWlhFiRUGbZAayqbBtGisdFgtuNKhMgJYgdA7Ktzx+GJljQX8NBr56QBbRbewroeiXMymsPv5qb9Gr0/5+Gd7NWnGTbszaXDsaGL1659plUC6CevYdEtT8zBp5rxMuHj9ND1zGxiNn9qmMLnbLKbWfOKkURGN5LH81l+7K7/RIRqXq1dfGrCkcBZTpmiYFEoQ2yXp7VuLENyg+0puGu4svIg0z0Y0cWv2827MvLhautXt9IP61RMizfUz+vUGBcWxz4FH0YgIo3Imvvq4XkdzsbhA0WDSjudfpTqd6OAuwMG3u215PfIyYjsTZ05Ku6Pvby3i5799exvUY+E0gKzbQZR85azHqccq1lGWmUcbfyUvzn+RdhO8yzTJUY6OSM6x7zTv7NhWP/Hj8WinXOtg/RBbAMsbzaL49YUJV2VExC4RanPkmfpvD4TSJDdHKDZH/MfxOBvXfvz1nzq6RcPEtyHCqTIz5mwOufC4CnpARViPZvdK9PXHrLjsIPqCbdB8WZawoZjBjhiqYRzMYleV1XQcq/DTCqcZiqOZlkkPG912Mxy2jSXq+bSslNcZiJFE1a0N2OfSxNbVvbpgq+2rjRp+d/DTcTwb/JhKur6ntp7H1ikaCF8pxDB0r9JchoTR5cAZPcKTMxUIjDIVzmczRIl6wbZRxcqzm38eih1mq8edG9KeLTJ9gGk45FOvpoPkaJzmCU9z/GrXcsDwnsO+Guudykbt0fjR29QRV0n4xRC6zjJtVqNNx22dGXH5dGFIE3dinhDlk50wO/Lu12oe6jRPkDqWYUN+kR7TZh60wkze6mWkx8+tpS4+11hJM7DfkGna+MB6GZS0+cDUYwiOFgO9wWmYIRQaJa+mdL1ZPRRjG7tRlk9RTqTtQ5uh2rKqKN31Z5MqXFckzVILwg/TRzCU8EfhMGSBc8vOgfmnpf5HRfhzVwb07Y7VcNV9vp8MGVzF4M+Lx5WUmrHP/ilTe1fgPMtkkUM84NV1BnYuR+OGhoot4zIz55Jl2VjCLSuIjmDN5tmWktpB2KnbiP2YmOMEW27NugQ7jUnHZ5nvRBYQnwXMSpgzpYnTHWOdxTEzrAtTuLNDV/37aTshK+4lsYJRiEaNJh+IE3lakJpnKxzcWjp/jpU0mRZonn71iRxgyzUKPjk8QrgR4krTRJIU7iSOLQTNvYZfzW5oTMpGntV9Q3RlQqMO76OtzjpYg+cKloWWh5ct/Vl3sy8M388qv+uinCrBrPnh9WsIRLJAo8wl3R/KYDSQ4+mJ2jO0NIpRzi1KkTRiYuKiexkn6afRTYbVB7RATUPjLd2qRLzsczAX4Qsz3Wv7vLidudgXoB+28MNj1eMNhWvmp2Q9P85uaOqhSVeuSlvOfnmrHayG89MNk8PI4XIhIzAbTOU0mcrRYCYny5lMl3OZ5ws9KRX+PWjL9dLbNvy4t5KGHq+lyb2liZvjKZajS0e3tBtrBSj6i0It4xXbRcCljmaCguVDPOZFLUs5Pn0lGRrW/v5YhmOOOtiIMI7VuwUxFsDoxNVHwpcBwe62FSJcJ60/P6wbJgf9K5F+KC1H7vf9q5s5j2t+rV3d/HBg3e7cGnnyzSSmcX6Ycl/NvbLPlL9vV3p+/fzUy7eR11BcFWIis+Tt0zDD/xLVmg3BEfI4XEoKQU1YQPBbsor2PWeHH7fPzVGPpTTrfysWfYDyQon5gK3/sydWjizYeKtg06yqtHsWwHMCqvGgvhRUPh9nVtsO+PnJsoXMZxN9h8atg1uas/lspvuS8Qj/+YgPA5hhrubdZs7l3cFXZbMrNEe2cXig3yIq7tKIapED+rIZaybU7Htjh6ilyayy29C3pmMjqNSJNgvHWp1wKsE4NJ7mMWs8rp6dneAQpIKqnZdHQ3DtoC1N3e3Z6/lpB6QDasE49bsnw4Wk2UwG01PJJhMZ7N+FiOwjapMBdxx+l3Hm/mnWwbhtPajdoGz7ZRk5MewFW/4OS78z6YGYePR9IJwUoxz44ql76RO9jfw3fvZteR1BmHq91qJoWPj5SflZRkxLeKQnxycyhHhki4U2kPHeUAsZEwf16+bHauY/r2M0GpJXWU0gdO0Ai+PHlg/0hUKqZHjhquXK1FjezZAMwjpty40+oWcXARm7S4H+tem2dHCTfjNcCZRPkWjVh67JBGDyarYh+MesMXr2IJB3c/9Gal7th+2AlYWRR5JlmK7gCJGXaXIgk2RcZNfFe11FQ59yTZ7Ib/118+zJJxBkrWdPbppoOOiwdf5CXhudyuc+/bqcHh/rzUC8csKiGu0hE4NTZMaIBkOUDYY3AVmjRTPLNQ8K+qr6rBeP0aKKq4KLnX5ZVssVQJ5DIw2GdE3QlWszLMMZR9d0OdkxYU04bv2saVRqtvVsaQCf1p+Bi9XA6FDpWwGrn1aRphcPQ1TKgP88exNmJ6WfI4wMkfKBteUCIjJP5WiSyuEMopEeSJZSNDRGlrRuo2jURQNp5Qh8iLx+5WuPIBrH+sAaRWOgxQzRqETkWcq8WGAf/vxzpBOQRgP14nH7XGN2qNt3AYrG3fRIfu7H9+VXf+ETcoA0+V5Olgm0VEacnTAfNo80+tmq1VVlX1+Eiqbr2KtdD0AEznutdhXOyXVAjdsLowiEq8OFZX11he3boUKDF3fcLi2NyqbpQC/19tRsX1UwjC6mgoxX38cKtylmob//Jwv5t18/lJdT7ExZ4QbbEg0nQiWaUuCO2+TUQkWjL2qiUUYIIDVrNaKxQHkZ0bgH0fiHG4kGescLlOBX+NX4+qPxDdHw0Wi+lxaVMvTAY7ydvJRf/Mmx/O1ffkvuYURxgCLK5rnMUCbpyI4s+jYSJNRaXC4TlRbOkZk1OmC3L7ydaKTn2TQKNNAiPbtd1cNWoZHhWg50P9JQ51raK9CIuidWHhLqlPd08H2wBG9J50udM6jIP//6K/nHfzCVqRxglFm26XqcftdZRzSY7iaod9VtgCP/jG+is0+5qmjYNY2NRON3MdL4Z+7R+BsmGr/0kyP5u7+EgpOJHGSYmmQzzHFx9GO+dwEeG1OxEJBIJSGafTvLi/F41JZJVtG7wWh69TQc4F50YJcOzdWz0trok2aRnk3rrGmeEVqeFIx8T+3ZwFxJyfKR/M7Xj+X/+kNedqVoMO/m2OrC4NfJVRUN1kMmc1RPKRq/RdHASOM1ZDMkGs3c2zoOge5t+64/cOBsPLuouIhLC9Y2O+tOOuwVRVDytKCMsTD79psG/1Zitp1NG5ALW2XIbcfkL+S+MS/gGM7IekN2AwpDTvGMhQMkxwo898a+SwkcT4h2FGD+90P7OInxYaOjC7u9qdBGZluZMW8JGm2P+FzyfbgJQvGsQ/NvPdTjOG82gAZuVYNNnUbrWrCOrn2XD35u61wP3ZOr9eO7NigPHSb+oRXp/DYioieoTVz/q/NiwNFygN7akuaXXJHHbtG4oeC7UBMhaeaZhyvsfHiJbrw8VRZ0FaYiuCJtmEno+6EFQ24MU7HnYr4lylvbTYV2k/7gP0jzLI1unV23oXjW4TppOobiOW8iH8lM87ccmGeMFiBvpNNPY25zVHlVgHJZhSgaNbDMKBh8kIlz1eXSfAB6NNyT0XIui9krNKrms6hogmUn18aIjsK3l6MxOrJhGndLty/k5uKxceryfPWDrj057yDirftHOu449Fj0h+NYh4NpO0P+L4wQiuFEFsMTmQ/nMh3mMh+hDaAR3MpQ6/lSiz1IbS1N+KJ0oVN6thmfPtiwC3c+g2OcmV+60GqdgoiiEQDLlI9Ks0/pSAMtYHI8keU8kdfvvSXDjDfC+BzIEH5GoD5ijcZGOz/cPMTZypgZH838oLOx6z6kZdysX4Q3LMMZeuHILNF8VJjzvRCenyIfbXRpl27mo9Spx7q9TobxiHw33HwG94fi3T31/hHeartMteOkvLQ+w0hvDqGc4WSQof5tm9gUrgP6vBiEclHNDarC0NrbEEUjBF6/B7VIocYcrg6HYzSguzI/HaJxjWyndaRwlFvHomNrZyZdB3f7PHJ/fV8Rjvb6Pj9eS39/m586K/Ha/MO9IO2dRJi1/IMV/9UyO08OsyGqd1+SfE/25kOMLlK5kwxlbziSZO8WegdHmZtDuyd1qcYLgY4uLBWUhvLoNK809MhjFI0atPBQKvkIk46h6HsVphjKJvv7IqM9OTnBkBYeMHnxiAkN3dAJFpDqBc0oebO1ZrjTDyc2SpohTErh1sRh/Lh99OfCkQxb3+eT+5w/z97ql2nD7Pk1x+L5c/sd+ewRmUBUyRQdKxmB3NLNN9fp/Hpmhk9h3wEFcVcIMfCZwm2MIcYeOtIYx5SiPKaLpUxgno1QNkN2j769nP4uShH6wOXP5bGaX1R1dWs2QQQfWFssRF7aO0L1NvLMfCwJzYkzIOMviKujQa5w6mDXuJU+lV/8qZH8zV/6jNxL5pKeYo47QqNLBjI9yWRv1HxwSG2Ik/HyNu1wobckWiAcKhgu5LU1+v7xamvwvKvVs+uLrOxlSf7Tx9nVUk+jbifUowfYQ962CPOGNBosfaCehoMFxAKtOh+puL/EVPNf/MmJ/M4fLmSR7WEa0z5Yr3Yd0/a5BuWgSdYPGeCbzTfBWpf76+sYOCEU0NGGiwtTsiX69YCja5E7wyfyj379rvzmT78tryNI76dcM8zlXiIAReO3b6JojA/lZ35yX37hL70p79wW2ZtBNKAZvIhyemL8NWDbvxENY94p2hJoOa7eQLx+i9Bj8uyMvtF2z5JmPa5tA3krdK0Gug0x0tAX+KAjMytz8F9/7aX8i/9vglHXAcKi0lsQRcNDVow0Hstv/96rGyUaLEScb+S1exP55J2l3MJZaDwfyP5oJIMkk9PJVJIUSoKhrINWgS5B88qDKU4uKDXQSJTlZcIpW/MEVMLS3ObZxWdh8xNEKD9oDv44ybSO0p7n2Asrm43eKctdjQZqtz5as7vDNoM0i+btth54gkgTTjCRB367Nc9kiJPDk6NU3nuWSnrwBlpDFI06VorGP/13FI1PwZVFy3sIeMptw2aFcbnALjPH0U5lyBk+ikc/EczTFQrXFBfmxNi4zsX/7SJUQuPYEGs1mC1Ak+tIs7qrelz6MSJvP8tGrV5jVXHtLDTu619e/oeTtBWW1g6gY7FzaYeybRf5gnRgqjKG8xDReHlYV+AqnbNE5d0WFw0c/3I534VofBKuZqRx/UWD4Fm0LBbT2TE3rt3UtW5HvlqigfR6J2nKx8G9d8LAlp3rQPYMaM7I2NcpHP3bU6W+mIw1r4LffzWHnr0Rz9qjIkZQ5svhqotGsBTYtunXMSIiIsLhugwNtoy6VDr7zZFQe32kJ3ZRLpejrHX0EeDmuGxtyOTHH1Vx25XLKBotKD44BDpwetG0r8sy3v4MxbNbstW4jyOvJP36YfuAQ/3G1IR2li/ZM54dQtdiOliFy3cAGoDHSzYCnhNc/mpEfpxgkO6W8q5cMmRExI5x9vPzNuFyc3lydB7wj7rODgR2R9HoBJU4kZTbnCv00F+c+fXU2ih4n5sgFE+dIfT150HPfCtoz0K9WDsvVXcvlavRjGcTrIpFS0jzZXhz4LcPj4G6WVUsWxWN+jdaLzNNobVD7/lcDlGmYxktR5IueCt4KtmAtz8jbJJZQk3U7pGlHmD7E6OLkgOuZIO+G/yYp06R9wbpHqLbj2MhkQHDBPYe7OtPyasjpEmrANJ35YycYB//m3w0CqeTPkyc7mgMcySFrSWhSdegeeMUCgbHItOeWztNvIaeRcGtMzvYuLk9b1Qzax0dfHezz7c6c1uutyoaBjblS88umMZoTOgUORqMMaENYAtWGqxuTSE3yV9iGGyEtbggvEoIRelOWr91VvxYFvsZBsz9tGkm+ZRnF+GHT4J2kXP0Ssp+yVobM05gq8Jh/ZodPh3a3H2UKSo1GWPWfTj2OmxuFCiF4ldNCy6V+qnR82lgY4VIV1PwUfo+X7j8BPKlWTLupg2VcOauXO9ANK4++CzCcMkbvHibl8gpz9zjRPZGCxktjmSw4E1ffJzakR9J8kj7OmwL58cZ2h/yo/4gUQVhxzGUYcoBUScRhg2nk/BH1sP6oEzoO0HwuwxgLtjFHW8MKGyOWgquJOCk//ujUzRc4yDYOG4KeFbhdyB4N2iCXjDLISBDkf3hTPL5iRYK789RwqIs3MwnHkp6+xB3lS6spR8PqqYwK/199Ov21/05ujd9cUpkt+sQv/C0p0rE7IUzaWMyZYjyu0HN5oqhWjPr9G+MTppjOX5N7BXkxN0Rerwwd4TyrSRdd4QGRoWXFubSINkE3zORogy4mpDupTLJpjKbHskbB0s5PjmRfP8uOkdqfdfiwdm8RHWfKZ9QIaHzaa35rMUDISvh9rHTAtp5Cbd1cP78uPrBrP1YSw+wOHkIvES8RNlwMM/gblAfbpRmXzcY0A9s7Bw1+fCbsUvLLzINpXb8q5TlpkCM/kHV8lMF0yvT5LMeO0fRJiz8/BVtjUacgpgfjJiJO6n57snf+tLbchdOSTXriqZowMangUOiwXk2T7k8m4SwTiO7aLSJBud4o/lE3hgv5HPvHEjK18ANFjJdTOUTB4mcnkwlGR+gmJxoEF482iD9eEtzQJ8BuoFFA3SVXYun0tDdPuu3aAQujrNDY1qnQuGVxzfJR/LtRwmmdSgjfv/W5tXvXyXccXSBAf3Axh5FYwUuTDS+CtH4vZshGu65Egz25RNyLP/tF/bkN37+DYw6ppKNE5ng4O4cjGV6vJBbQ7M2oGgcsxen3Tq0l4/dUS/XNv9Fo4cHP0y4Z9bQx49BWOS68TRL5X/53+/L8YBthmAG6wfm0LXPgXnw82HsUTRW4NxFA3G4r8aXIw0ONJGRJO0QjZYdlxBV0eBQ3BViJnez5xCNofzDX/+sjPNX0EnO0QcyHo0lm81lD0Pw+oJfibIMquvSWrS2quqgz+aeqgb4cZX5bmzrwlGpE+4vfRPc7ey+TxRI1Q7Uow7hUX5b/uf/7XtyOHjbujRi0bgLs787GH/dkXbmzfzUpdaEGSnzWm+Oalev5Y56yP4w+SjBOGsJVuClaU9QuwXy5pKsHbO/z4jGAk79RSMsj648lPin5J/pXG28qnB51y3/IAoZ5uUTmLMERYSh14hD7elEUohKls1lnrdxVnCxnMrc44xbCRH++aZzj1nNvlgyPseppbM7P4sAM4+5LHAcSphn4JzEyUDp7OACZeEzy6v2NmbaH9BpUYb1W+ANII/ovYZsNyhXS8xnbCP2CYGokA0dcbGeNDwMAfC+EdPaS5rLpvyVrpvDPw6yzE+Y3nGeC3B0Wk6hI+3atxpdY6obBVZsCRQLGx1Lh89WqAuGxCCaB/b1Y/0Xcmv7IUeN+HqxD9hevG0fRkQ4dIoGOwtJuO3NgTnim3fcERHdaIoGTisqFtw60g62z+OvNtwwOmJb0NYSJNtQxYV2y/VqoBJLjbEumwiVE8gF0s5F3CbCvmviEKsgIuK6w4qIQ0enb4oGPLs1Ekcu3VBH2q6aXBfogh3XMLDl+idJe7UAa4oaEYC2lhZGXD5wtc7WEKYW7kHHNuFoioYHRuTzeqNaQiwYrtbzvtDFIJNshKF1isJcziVfdl9nd9M6xsELWQXh1krrh2E6K2VtIHIPeiKwZgeXX5ZA36mCnkwCNI2tnoIBdzVTj7hIuHrUq01ad8a9C+H2yUiwcWzYryHMZUF7mRBHmYJD4ffMZpINFpKxRw/5RMUMBczb6S15w5tH3udhnlC1Zo8JyEu2yjyvMMmXej9O0YFtYdsNaJ7vyBrkHlR84c+YHbnf92+eEcmUzC/zVCHdAjQfNjXhuolomQukQ7IsCyFi5io5pBvK29I0x350MaxLzUKEB6MUetkYJseusmINVOEJhJqd3ZnB6w0cLVo3h2i8rp/mQxkP9mWZQT6ygeSjsSxSmFFy5BxiMufWcuGZnb2dgwYzj2qHmJHmwTRUbJ3aLQ3ZRU039dgIg0N0BIo6dfYVpD8XhvRHGeaMRU+VEHYLGtWIuFRAmyBt2zDvPLHTE7O7ATTdMLRBcGvNRSTXFP6NODgXo9Pyf4oRwL7syy0ZQCEm6On5+BY6cwomhujMzswbweYQFLLY38aUohBwZ3yW/G5q8e1UViqqiyxWvPUMzYphNYbZOINrZVp3j3znhm9vowvnRgcDP26NHxvTagx1xMGtc4u4jFDRUAGhubumWNPtaBUK7gjxasLc2EXBMHfsZbxDk3d1wjXdH6G9p7I33JPR/h1ZLIeSDEYyGowLDj2OxNI3B4n46Mcx4Mf/hdz0N9jzbc0f4u7zYx76/Pw8hPIz1GbQ3qycfhQ6EnEJQLHv338H6DCNqqt8LOnfHsqx/ViSLgziLHsdYO7LMAVlxAKiwXUFjC/u7R3JL3/plvzSl96Q2zjkMcpjPBaZgqcL3lJedguNxStBjdHa6/uaMOkXqPn167GtG3KtoPO0AJh1BgtrruetbwdWbwjcdjZ6hjL8X/+P9+U4eV3tvJ/WjIbgH2Ws30wtmpzmwhiBNdqtjoI3QTXFzeMhAl3nEqNdyHkc+rnVQSZ3hg/kH/36HfnNn3lHXkdBbfaFtWsqGnWwGCgabFLL7EQO9hfyyTdvYTyQy3AyxRlbZDFcyiTjAii7AiuBZVJthPWOGChzD/WKtMNDY6l2IkTm73Ogl0FFFaqodG71Zmwajga70ze3wsVlt9UccaS2lNlyJB+f7skcW0F55rnplu5IS9FoNuIoGrtEs7wdeByFaKQQjb8WRaMXWAxGNFB4aSrpaCzHk1MttNF8LvsQihyW0/lMMpTBQC+Q1psgC9QaAN27sl2Vlek6uN956o26IgIedMRRQ4eWKEJh2ptWNS+8nu8fnPl+a64juDRlLBhVeE1Ly4JsEY11BIOIorEu2muWx7H7kQYXwwK4SoVopicG9XzT5jdic8kQUxi4qXvL8W+GMq42QWhDm1+Xde73P4xM9y4R0/3GGES1gyGilshYnq58iy29+nmxxqpYVHNwlg7dhmoKaOtXqM2eBbyk2gbWUXWkcVv+FkTjNQQJDRG22fqvFLoEjsVrhMKQ4BWM4srFFqHXauz9EzT7795sI8/oFLHyIqshr1To1pJm3tHQl37YEKv+y/sv6iyEQv+3w12mdUTQiCuAGysaBIXjKo2OrgoK8SC5uMxpX62cO058EZccG4gGa7uNEbvCpiVdCVPtt5cEfg7LheBLmdUrhWq5dgKFrQIPo++7LdT6oqGniC5GbBtasq5iO3pTaJ8f7vLVDnKkCzmGzL7PiLNAW43HdhS+vDZShAhUxI2enuwSXl9oZUTEVUQUjR3BP2O2MSLiMmLV+exGiUZ9tb4v+4Ajh3XD0F99xOGmEn1QuWLRM8wuUD/2CtEE69ddHHn/7bbgFrX7MNebzgyvNth927geWBNuesIt21TbmW392G8grnrTulBsTxe2gliXVRQCQTP/9SigKBo7glu36GJExFVEFI1rgqhBEWeBm96yHTm2IYpGD3BU4M/TN4XOGT12YZP1Cj+M4/bAprLt5sLCdPGSZyjciCp453LB1eVKH0XbpENH22FNRURERPRGFI2IiIi1sLZoVC5f4Wcfs1L6i3yXkcXwq4N1MFwd9XiVdp9DKG4tMa/8+NRwG31/Z+E6QModNMfYcMexc4d/nI3CaYWJ0WfoGPpwHfTK2iVF9fux4bJQVnumDb0dnGmkgbxpdkqa7F1Wso2soo+2RhWKuxfqHuuR+LwANAShQpe1phtRLcOqrRtlzGzsEe3oery9ibJcDbeHOD2JiIhYC1E0IiIi1kIUjQ4Uc/QNwcFk6DKo4/lDc2S364Lh2pqLi7fLT8RmuHzlGms4QrEtDbsQLYzYCrhkUiybdJxXomhcE7Cz+jegtZL+An7ra2z1+Lqgfi2jaFw9sM5cvTlzVz1emGiwHa7iJgjFo+wqBQv14pdajzAN/3XuEJVkeJAFGkdvWMmPv8/Bi9FcO7Xkf/crXfXM1IgjYn24Mgxxt3CjC0cmWdZ6GBcnGsjVKtahB9UBPeZAPErjpUDjujYv94H+vRIsupA/n/hXCeOT+yp+t4xKhVu3qmONRSnU3S38AmOMnl2/8an0giIewyr8Y16HNxMs/y6eD1j6BZGsNouWLMTpyTVCpUNvgSW6O3R7uIirAK03u3VTzK4aj6JxTeAqeltcF2cJG3HxcMKh5tq2jislGhwpnyeY3lkvlTIOxyZY/Od9at5FmoyP8TpGbA3+06rn3lbCiDV8o3A5Gl3E1cZK0Vjyd+MXqyIiIhzColE5Ia06O1FIHC8YV0rTXLlu5+zfL5a2AgqE9qu1V7laj/HEsmW4Cjjfcu1KLSgabEI+fVRGHfyeaO5z2Zt+PG30/YsNw+XdQT7w6Pmphe/iWeCvbwS6m4eBLPkNWEsWd/k2bv/LqZ47P8aLSKsMv9G7Mt8FkxxcDir5axIhcfwVNySiYT1Wy7hazk16bQDxR3Sj+ng77eE2qkRNO8KniWAD8Pu6bWymyzwhUEtybMmdcGGZ/ZY4Inoill/EdcBK0dCmbtXH/IuIiLjJ6CEalwOcBuilS2O9RNCcGePa6AirF849RlxhsP58Xk70zeGVEQ3i8hf3uugK4+LcJN6Iy4erUZ/ufqKuXF4p0YiIiNg+8oBC6OC2RTmiaERERKyFM4oGpYhRnCe7Bk7doKJuRKRZv9xZ0l06rflBOD4Vyj0FBx4V3NYWl3UNg8e5HTQvp/VjxGpUy8y/jFpn1e9lBLJZrBmSXehsnRpBbD+7QSEcEREXBz25WXNftIqGU5xVqhMREXE9wL7ubvijkLSJSVg0WpRiXUW6OdiFtDrJdoy4urj4unQiUGcFDYcwgqJRhK1FwnlPRB27agy7ijfi3KE9FPXoeAHwk/fpQCPFwL/k6u2uoHNNgxgg5gTB3X3qERER1xtdgkGsFo0aIyIirg/qI44+CIoG1/V1bR9DFTdD4ZYrrT7U7cLpXeZcwYRPgloOeFmzLzvl0pWCKykLhFuClTygAJc+vctwTWYec+u2PiO6Eb5E2o+m+zh2QK9loo1ULrevD//J1FVcJlX6YNYd1W42vRE8Wj8Sfas24BKIiIi42eiUSOpEAtUinYJFRETcbKwYV0VERERUEUUj4oZBx88eI9ZFZ6mxeHVCwnWcdVdL1gSjd9wVziONiIjrjtVSix6265UM7chIxF/R3QV80SAjIiLWx5nGZ+zffejDCUQXfAFp0PppA7w007Rh6whdotwlI84LrhW08erAb/t6Yd+zd1Gv8nr00ebeF2ee1CF/naxDD8qa28D9bexCa5qWPmInvu5wraHOqwXXdrW1Ivu+vYt9j5rCwQfUfPjxhNBbNAZMWm902g54o5gjheQ84KfZWZIRETcMFAi/L7YJBrE9FYiIiLgRWC0aVB/1tt1Tc/GhHnDTuVVExPpgg0Z7drwh8PubzzZ09fhgqTnPjFPvsVeDOkVERFwjUDgq/d3v7i19Piwa9Yj4o5s+a+P2REREXHXUdYFdnB+BNNcJ6nsNwuOzynzBRKCEYJgn/Kxd3VbTh0ZddyT8AF3sQKs3f0fQQ8SNARvtOTeERoo87/akb10H9TRbqRHzMode6uiVTsukjtGZ/0Z5YFaxMPcbFNSfTZz+4FZnPQz+QTjCbn1Iv37YOkNphuNBhiMuFdwj52cn42q2A6X+/I8qnwPQE5Etj8hjT/IFWI59OrRDNb12EkjGxE1DD7SsaZgepRGrwZBfD4+IiLiecEKigwTLEFpGGoDqgwnK//HsHBFx/eG6OLt7W4dvFw0LN4TZNnSx1WPETQWboGPERSB06bWr2/esKUYRKzVi29jRGSnizGDNtNVODyXgUGCAv3g2iIhYBzyB663ZxroR3GMPZ41nFfS9otg6mnWNsGwEVMCsK/NvBKFIEdCsOjPn5t7QiIiIHgj3uUsH9m8dEqB/70M8DpJUhhQpKyR1BDQAo4plKsvZUl4/uCV3bx2YkUbCt2tXL1HFd4ZGrAbbiDbJAK9f+1l3ZKClA4/1knBXMs4LvKC7nC3kE6N9+czd12QMN3N5ugnWXBPILGRDPnlvLPcOBjKUhaQDE4WLJApGRMT1AHt1gtHGKF/IQTqXO6OlGWm0qFZQNKg6e6NEXnttJG/eW8recoJIMGlR4XCAKSRDEREV3OyTy1m7iBtx7HLUwV6dDhYyzk/lrU8s5Y03xrCHR0BERTTcXXO8BJogxJ2Dpfzwp/fk9uAVxlsnkg5HhR/8eWbDiAgDNjXSTkHOc5y9EjY/Z+yJbO1+NGeMrh07jdxgvLcnkp3KweBQPv/pA7mN2QVXM1LuDHTr8EhDb5zIZJxk8oUffl0+eWcisjiRQcJoTBAVilCMERGFaDjU7RcNl5+z5UmFo8btw8/r2fIbgi6BDlLJ5yfo51P54g+/qf1eivXL5lE1RIN6waxxjkOJ+MxbQ/nxH74NjzM5OoJ4BMFrK+d0H39ERMQGcDeHN/Hi1Sn6NwTjR+5gpDGCaFAYMmjBQvfXZxHBkQbjTvCjaNxKl/ITP/IWBh7PZW+fO6048Dl5DpnygQpMAmWKwhERUcX2xwabgP2S/RP9FP11YKc6pvvmsjeeozs/l5/4wjtyCzOVIXZwPaNtRlQRDb0ioldFOKcZyAi7BzNMUT5/W37lr35OTo+/I/nyRJIRfCAkP07Mp++GOm2hiKwWDR3JhAUv4hLBX6taTfrn/TyOAT/aPPx9zQ9bwwdoGvjZWGtg/pu6uIsnPEu2+ZJwQuNs4xI9yZG9KuRHe1ttX4JEeTXSkSdYR32my4PxbfLKj4b7eTWZL+HHE6Irj4wjBkSVDoawIt7FAv13Ka8mJzLcz+To+X+VX/nyZ+QnvnhXBwoJ/PDj5cg8/gx9YE8VVJccEVKXEAp5Xegc5xd/5i354ufHItOnkuaocOzLUjKXeT5DJuC/9nXqiIiIzcD7PM4K6heR4gzP2UCeYUQBx2QAaZgvZR/7jx+/Jz/9I7flyz/zAzJEv87yKfp2pv0/Q7jMRFFBRTSYBrVpBnVcMNNwGEII9uDrhz6Vy9/4K2/JPUxTxosT3bdA2otxJpNsCs9UpLS4saXtoClKZMQNgW24ERcDCscI4wdOORaLmSRDjELoPs3kbjaRtwav5G9jFvGjn1zKaDnDaPAUg4a5LOAJ45Fg9RWiwZ2O/M/1CQZJEq5uQJXyuXz5pz4lf+9XPyt7i3dl/uqBjKFei2kud+++IVkGZVpQciIieFZwZwfHEPxWV7a+3WNVvi4Tzp7XBfplnqVy9/ZrspyL7KFvz198KHey78v/9Hd+VL78k29glIHZAkSDt1rkA8wkMB3CREzD12sFUyozqXIzJhJJSArnFPOiHHObDNvlYK7DlePZnvzeH70n//jfPZN3P4aC3XtHbu+/JkPMexaYp2Y69zJww6MQOP3zEUcflwu2WfRErVFzPlzA7bOtq2gfuzzBdOWnCg7XS9g8tqA+eu5qs377prndq8kr4zKpm7y6tPzsmfN+6WDWLfogxZRkrHFlp0cyffaBfO6NmfyD/+5N+fVf+JwMZSoJpiVDPmuG5Llmk+uN5GOENBnjzV4ORWmarDN6DGeQ40RVBFoDxzwZwuOejLOhvAb7r33pL8g/+vXPyo99aiaj00eQsiMkgnlQXQkiIiIuHFyhmCyn+H8qyeKJ/OCnpvJbf/Nz8it/5bMqDUmGQQJEJR0cyGCwB3HhdAY6gP7Ph9i4HuKjGGkUoE1XP/APw5QMgrGAZGAqhAQhIEhARxxQla9/90j+yb/5UP7r9w5FDj4lye1PSJ5CYOyw1H89oFFlRG6FJY40dgBb7v3R5h8ni5VnsY60Os7s5UijDjaIWqNooCPNLvQeafio5ie8RteeH92z6nA8sOrUO/Ja9AWUVT0OXm2prDTQAwL4/ip9CXHkeSanR09lOH0uf+nzr8lv/uLb8nNfvCP39pHWnIKRSYp+i1jQ09n5uZrBSDCEYNnpweCfjbcpGoTWK/9x9MDFzURHHqo4nO9g3yJJ5XieyP1HC/mDrz6Wf/0fviMPFnfkJL0re+MDubV3VxWLl2v0SgvCZMiMLZpOuGOmz1W+nV+Hun0b8PNwGfLjoOWDOuFWX2egqVVTLPqE7Tj6vxCXpn8DxtlfNDQJLxqTlzB4ib4AvJU2hmkPZ9AhRiHYhu7m5vVLhwo/SS8/5jkr5+A81cJ3iZENqiHrwWr2KkxujZd6HdTO+hRgpoN+xq3uQuRcXuATZ9liIYdHz+S15FTeSQ7ll37mB+XLv/COfP4zI9kfwQt65BKCMhxwJoFjYcbQv/V+K9dGeKXFB52CokGYHOCHKFDYLB5z89YCSc3VfYApyyJL5eUrke8/zOX//MrX5TtPJvLyaA7huC3DEYRjdCDJEIMgKFmOiVF3gTFDmq8CVHhbFg3UTxKtJ40twD/TXIb8ECrICeqGry2AWS97OyCDvInHz2Zh1sxbasPHtjEC0KM0xiCqHUZ92gQoOKHyMXVbhvPPjgb1PPiw+XXo6LAOeukQ7RinOLMup6OnMh5N38uo3vSkdrR7zSzCqieXL5OmxlCUoXpbmZ96eTRHLmYEYfoYYW566C4T7uPl1ASjCUjFAiIAocjzqcwnhwi/kL3RUv7yD78hf/8XPi8/+M5ADu4I+uZAhkPOHygQGoOXf5MPk2FwLdEguMfkXMGBC1UMkxbjwDxDNPQ6MNJ8hYHEN+4v5D9/7dvyJ9/6UD54NsFc6kBmyS1ZDg8k17vCTIRa0C3Q+sLWFazWpd3SyQ9bj2cXHbVewfUG4OM88uPA0RurL9OOYcYG9eGr35Q12/X8uIMJVkhbg9VaMEYCRj+0jjRC8SEtf6Shpoo3WgLhFN6RaJ699NuAIJx+UFi12VFYudGdAOPBnL0EO6Bx5ulShQNH4+q/rEsTS3mITYH20b/92OmIJ+DB9lMRKFvbGDFIPpNkfiLj7Eg+88mx/PSPfVa+/N98UT7/aZE7+zr4KPOMKHj7GOcALrZB7sdrsbZo1MDJheoEsskiGsLMKJ0yZfAwmcN+IPLkEKOPJ5m8+8FTefLiRJ4enmKodGoT1U0QdHf7mDFHOnJbCVeLJ3DIW4PffVx+GjjH/Big5G25mDwx9cJmyllbCUizuq4DE08Y1djUp3UyHc6YfZh6L3cUDbhA//T6jDSYgBEwdHw2c5egzZz+dwUIGDvjNYJhRMNtaayGc8dShmsBPNgYFBqrCerBjjS0OxrfpRdG4AeopzWQMeYbb75+Tz779uvy2U/elS/8hUReRz/EaVrmMwRPlzLESF/fk8Eg/AezEQ3TuncgGhzs2bObZtoMNPVmVwz7zHCNd3S4SYwZmWQukxYmJBNWaxC6H3QdlVHTuz1OpYMfT33ftuDSdmhWeInzyI8Dy4cnygwGbl3SfprMj29fa+TTVkm1AvDPpAxhdofCoputyk/PNPtA+7FtcNRTRsFYKjG5RgboPiRPf8yFS7I50jDws9pVri4+h1av8OfHyWTbiqMA9jN+3ozFvsYw0Ae9+kEqkDm99Z1AoXAWy3jpl2sY7LWMaCcjDeo21zMYcgkNM0rLIY65dyzJeW87EtHcmIMxik2LcdZdNLsaaQNzZQPoIdmtOtFg0SjUun0bqGW1K+vnkh8HVzYeCR35WVTKiv88u4E7mMYOi5B7swD8MjHmcLjOulP0Sa+ZfhDWm2s73NKpkq7uMEa3z/mng+6GI7elMNgxRmHftmgYH0xD02mF8cf1LApGpiNNkxfOcJwE8LEQfWbGRubide3E5J2jHOvBx1lFg2OHpZhbxpcyBqlR/BnRSDMICdXKpc0SSDAyqdQSALWrO3XBFTq3DOcf2jrxbAuhsnU41/xoPlgoZsukO7JmCvE80JWJ864vpMcklbaoKnXkjTQUbh88unruM9JgOOutAfXm7axFUwJ+6u2nXBgl6iFLIaBwmKVTzADgWMSDLUdcOohQR7fIoD7x36zjqL0ePXEm0aAvXaAxosELNrmkNnn+5x2kKSK0R6FAIM1RPQlktl+qBojS9+6nsFY820IlAzWcZ36KfHRl6IaD9cH2gy1Pb1pSfhvtqi/jufBuOpW1BMJ5sRboir4CF5gBar23tDZjKw4FW7PXCkalH8JK4dD+yysmXDjgaImikeK/9duMHt6q8RAbiIa9coLEWAW2GgD1oCZmpYp6Es2MRETsGmsNqq8hOOLn1U8zJmEfZE+ldDR7bBfWnJ4QZmwRkoaIiIjLC3Z0c2HeneAN1+vJIv8/6/w36vkwzLMAAAAASUVORK5CYII=;" vertex="1" parent="WIyWlLk6GJQsqaUBKTNV-1">
                    <mxGeometry x="464.33" y="210" width="30.34" height="39.59" as="geometry"/>
                </mxCell>
                <mxCell id="66" value="サンプルファイル&lt;br&gt;（コピー）" style="shape=document;whiteSpace=wrap;html=1;boundedLbl=1;" vertex="1" parent="WIyWlLk6GJQsqaUBKTNV-1">
                    <mxGeometry x="473.75" y="370" width="120" height="80" as="geometry"/>
                </mxCell>
                <mxCell id="68" value="" style="edgeStyle=elbowEdgeStyle;elbow=horizontal;endArrow=classic;html=1;curved=0;rounded=0;endSize=8;startSize=8;exitX=1;exitY=0.75;exitDx=0;exitDy=0;strokeColor=#003366;entryX=0;entryY=0.25;entryDx=0;entryDy=0;" edge="1" parent="WIyWlLk6GJQsqaUBKTNV-1" source="62" target="66">
                    <mxGeometry width="50" height="50" relative="1" as="geometry">
                        <mxPoint x="443" y="390" as="sourcePoint"/>
                        <mxPoint x="473" y="360" as="targetPoint"/>
                    </mxGeometry>
                </mxCell>
                <mxCell id="70" value="" style="shape=image;verticalLabelPosition=bottom;labelBackgroundColor=default;verticalAlign=top;aspect=fixed;imageAspect=0;image=data:image/png,iVBORw0KGgoAAAANSUhEUgAAAQ0AAAFfCAYAAABUVJn0AAAAAXNSR0IArs4c6QAAAARnQU1BAACxjwv8YQUAAAAJcEhZcwAADsMAAA7DAcdvqGQAAHhXSURBVHhe7b1psyzJeR72dlV3n3PuNpgZYGZAACLI4CKApECKFE2RhLmIkkVZS0iiPtnhX+Ef4Aj/Cn+zw98cIYlUSCak0EJTDkkWKQIgKRLrAHe2u83dzj1Lb1Xt53kzsyqrKqu6uk/3WfPp85zKzMqtcnkqM2sbLAGJiIiI6Ikdi8YSvxID/NoQtStiMGhvHz5CbaUMmtstHRwjtokziEY9WL1yKBh5TTQS/d8E/EbNuPEwHb+lk7N9kNhdtJWBMywR1nmAWd3Y1vwt0RJ3xFo4g2hQ0cuKMrWZmi2N+OXqh8LBimSFJfhfFQ5/LKJZKa0RVxSDpKzfrSHXRlU2HVrVnuFf7omGaWWmvYUYcVacQTQWIEWBW1YcK2Qf9TZUo5EU90Ol2h/BSnUok4e/KBrXApuLRj2cs2PLduG3DTot0cooGhCMIiQMNBu7M7kTlXGNOBvOIBpz1GGGaqBokKyQW1CLkSxRR5QRJyeUDcJVm191LnGjF/ov4oqj79pEHc1g1qHWJlyLZXvhCIPj2yHcVBoQZDAwI1wDxsE91RFuxOY4g2hkkudzrTRysYCALG+hQlMdbDw5EnkFxbj/aCGPnh3Lq9OZLDKzxuFX3YaJR1xaYDy5bt9EI3AnFkWwUTjHobYxtr90mMve3ky+9PnX5Wc+e1tgVSQJ/NppiwEFw06dI86MM4gGqtEMDzAcxbhjzmocyP2HIt9492N578mxPHmVy0RuyyI9kPkglXleaRoR1xTrjjRMCyxbRrhJmmmI5HvwMJI0TeByKLduTeSv/sjr8nOfGsgPvjXWtpiAg4SCwbEuQdEgma8oHGdFWDRsJS5ZSTxzVAqalYEKwC5OKTOIxdErkQ8eZ/J7//WRvH+YyGQGXR/dxUhkJKezXGYYhWTLga5lkRHXGwP23DVgmmDZDJtNEvYBGhXb3vJAhWNvfyhHJx/LnbvH8uUvflJ+ZHQsP/651+RTb+9JMmKIHK0UjVNNGPqqaPgwArJeTiOIpmi4+oNgoJ/DCMlgnbl93MDCwd90KvL4WS7vfu9Y/vg7z+TjwafkxXJfTo4XMp1g6rJMVFiYhEZrF8iicFxvrDPSME0K/82fgW0vJTgFNgIgaF/L5VhuHQzk8PCx3Ls9kV/76c/K69lz+cR+Jj/2o6/Lp97ckxRZUNHANCXXqQnlgbF6i6ZwM6JBlygffdEqGksUthGNVIopIt2zXLJRIi9mS3n3o4X88bdO5bvvv5RnJxhx4CwwG4zhyVaAxmzN/dtRxBUGu3tjoNACti8fHMP6KKLBWYuTkQQR5zKGeyrpciHjZCb3RhP5hS99Wg6SiWTTl/LZt27JD336trxxJ5F9TFEGCdqxNkHGxgQpGkzJxD4oBMXQttaIDrSLBgsbhcsK4oiBFUZ3aseL+UD+5P5M/tOfPpNHhyOZZfvy5NmR5CkqNMXYMOJGo96k2qBNzROONhGhc4o42QazwRDhEhWNvcFCPjGays/+1DsySnPZH85lmB3J2/dS+Qvv3JE37g1lDHdJubbB2MzFfox/8Z/kxLsUDNqjaKxGtYxqdU3RyGWBisokg2ov0qUcws8ff/9Y/v2fvpI/fzCQBycjeXqKiEa3JeFkMiJiS/A1xHXzspF6e2HkOkoyGEmWpfL4+bG8//BQnr7KZJonaMOlTBjJSMGRkldjnGBE9ENVNPx6gOzTStGAbMgMtlfw/vVvT+S//NmxvPsol5f5WI7h52g+E9QNzhSx4CM2h7a5Nhof+t/AmCkEbHZcw8gzGg5knu/Jg6cncv/hsbyciCzyVMVkiS08qGg4oSjFJKIvqqJRASsqhWgMZA4+myfyvccif/inJ/KdDxZyPEdFJNyPweII2yVHJbH4I84A7cHo+I7aBs3W2c3Mp1z9oLP1gX3YPxjLgFfuRvf0kv83330uz55iepKbEUUGYTEzbcZhF+oi1kJTNFj6ChqgyMuxLJapfPRU5D997VDefzqRoynGH9NTGaPcR4uRpFBwN8rQuo2I2DooCPX2ZUcKnhuXOZfJWNLxXZkt9+XDx6fy3nvHcvxqINl8gJMbfem1P0uaGU5jAikmUUi60D7SKGqDN2Ul8hCi8dVvfCxPj1G8o7Hsg8MMs0IM+1LOTaz3WNwRu4COLXhiqjQwTy1otFbeE3R0mmGEPJQ7r78tLzCH/ua7r+TpS3spF/4oN7yKYhZtGbtPCkkchbShKRosJ5AbV2zvf7CUP/nOobzMxjJN9mSWj2S+HBrV5vXzAVenbYUAfW7i4mVcR72HLOLKgicLV+frkCKQ6JU5Q7dy4cCrdiRM7q/AkncX55wS8yqfRqWtWe8wTzIZ7mFyDbcZbxG4c0fefX4o3/jgmbw4gR+0Xa5vLNl0EccgzxCUE/EF4iJnYDkKiaiifaSBAue60qtTke9/+EoefHwis8GeXvLKByhiUAcifDjI9npaIyJ2AowIqB+8f6je0LT1aVu0Nm2PEAFsFxCFV9OF3HrtDTnGtPpb7z6Wjx5PZZHt6V3Levdq4wG3IrKIAFpFg8VOnX1+spTvPziUp5BovRFGld/AnWGMZJi68kcQERGbo9pp2ZwczfIZ/5lJhmmHHOnyBMbOD1d4pHsCUVjMl9jyprCxvDicykdP0J4P5zKBe4bINCz961mQQxXehz625og6mqLBWsHQj2LAu/3fe3IiHz6by2I5gue0VpUREdsAW5Vh8GeGtPorUYYp4ASDbvpHUUlknI5lNsdUho9fp3fkJU+ED4/l/uMTjDggDHydA7fcr8MZigVG0uwLEQ00RQOFzQfVWF4nmPO9+/ClfMzFz4TvyqB3r5IiIs4CNjIKgmX13gy0NOtu2hzJNQ66GzqoFx+w8/kX3t+pPz72ihNejhNfJnsyWezJx4e53P/oSJ58PJV8ysuxvI+DQgGhWXKBlONss1DqGGEQFA2uIFGzXx3P5eNXmUxkHyOPoVZCs4Y2g2sPGt12ooy4YuAogJfqy3ZQVwRu/c7q1h36oWxa/M+0hpiOjGWB9jwDT2Zjee/+kTx7stDLsTpF4U8X96cw8fkr2k3+dJ/+qrm6aWiKBoGKpM4encxArk+bh4QGLFVf4s8AV/COETcR1U5o2oE1aTtzpFjUBKPYb2A6dRWmqRp//M/rI1zAzwYphAOjjsGeHE0Tefejl/LgyUSn5JoKAw54FYVXZvwfb180dPHeRARFg9qQoVxevJjIyxe8nMpbb1Gg+mKT/gXlLq2FGHF9wD7mL4BXaS6rmrWCkmaUwdDwpJ2w3rZgHvAKCLu6cy+nL4zBBTfi0ATbGZOjh4FmxtjVLRnIAtOW7N6+vHfyUv74/ceYip/IgnnjbeeLBNMZygMfrSf5eksKCbe8JDu37vzdLLD4GlBNRRkvoBe8Z5+VpbWjjIhYH2c5T5jlTCcqRjT0zAY3aoEODDqbpvG7LC6tGs8ZAr1czGRw7zWZjW7J/Qcn8uAxpuOYtiwH+yBPlvyZEYcBt2bU4cw3DUHR0Iqx2xIsnO1pqj/qMGeciJsOrh/k6NiOpr2VnbwYXXjtsrPpMI5GfCYubXMYacwmiYxHr8kweUMOj1J59/4r+ehJJvNshLB8DJ/TEQMdHfEdpfp0LGmustw0tIw0QPzj8IwWV2hNxN4ecYWRDWQ0PFDhmM/QFQZ35OkrkfcfzuTxi6VM+WQs7x7V+cwQ8sEpC4WCIxAnYTevD4RFg3M5Kxo6MCvKxRrcxFCHic4cjCoioj9WtCeevOonMN/O1slpiltP6YJOaQa8XdFcatUbxocjfUL2+YnIuw9m8vHTTKZTCEU2RHz2Hg4FI1+RwDVGuKfrfBGiwfv7rZnQSUsUh4hLBtUaUEXDOPWC8Uv14LQF7Z3xjFKZJUN5ejiV+++/kqNDdhLzsmy9X0MWGHHwcqx73sr0j5skIUEFYGGadwDXROMmlUzEzrFOe6LXcsRbwrmt2zYZTK/K8GFLXl6FgxI9YjBMZTEYyuGpyAcfTeQR7+OA/1zvKaHAIMwSYfjWbPYRxkNB8frKdUZ42IDCIVgGphhg11LGWEOZGGpw3WEZcRPBNlJ0OrWzO/o07j5cJ/dbj/pGR3Q0Z3azFEkaOzqvtRcNVGn3e+R9RUobP+GnR+g0hUSM5vIut0tJUgjHcF8+PJrKn394KO8/OZY5n+DMx5Iv9mSZ8e5U6x90YLrXHa0jDYJVpN8+gYO5Ldfso8m3lYy4kUDVa78l1dwtGA5+yyHR4/jPo3FSkzppizRGS73h0PzZfx5oBzVuD6WdJnvi4wjC0ghHIhhoyGR8S47ykXzngyN58DiX0wnXOEbICq+eMCQ/EcZwHIuYBN0I5LqiVTT0dn0WAFdEgXrBR0RcD7iWbTq8ihDc9OpInkrK1wcmd2QyHcv33nslHz3OZLpAGHQQHfEsM4gEpyq86WuKoDOQ6x3XVzhaRYM0Qy174NiYG2mCQSIizgFolRzK7BDa9rXJD2Q0GurnRk8nuewdvCbPXi3k/QcTefyCL/cxwmK6EDsGRhr6QScKhht1XE+0KACKDn9c+MkHKXylGK45ck3Dmbm2Qbuhia6ku1svImI70C4Non21nLx0Nr2i3fXyg98yH+gTsjmEapphOzqQJ8dz+eZ7p/LwKUYSmLYM8n3k5hZ8Y0SiN3vpkqnGYHj9EC75DuxY6CNuEDr6bD+ocPRvwv27MXKGaQenKryKmA4HssAUJN3bk+TWLXk1z+T77x3Kw48mkkEjch1Y1O8Svb4dpb3EWaMttepuyzUfiC7RvA04IqIbbCWOfmui2T1iUG2K3Z1xayc1tOXlYIER9AKjDXtZNskk3R/K8GBPXh7N5d3vvZRHD2b6jBZHI7m+7Wsf5N2jXB7lVZ7qMZJXHU3RsDWkUwt1wEANBaIPCQGmGFw11mnCOBK+3blFXDOg6uv1XGcf+AKhgmHNpIGNDQ5dcYaEw3cK7XfQtPRkiG7PqyBgAnvCIQfD5bDzez+jO/L4OJE/f/9YHrzgqwNt4Ix3jvL5FP54P7X/sJsBbY5XESvGdiglLWFHYzUvJjEsD9+sPNPJ0SHkFnF9oK3Dq2O/xfj0YdpRjXCnWHQJhomf90jYKYALCJR+jXMdvpNLsw4vOgO0aV4P4F2hPF/mi1wWs0zy4Z5kd96QJ/NE/uy9I3nwdCFTCAfD0j/G2sXP3FXi08iI41VDWDS6jgS1poJhD7kqIBERm4MdthCNGsPgjnKn+rXms8HFa2hG2qUL/zGPMk5lMNyXF0eZvPcRRhwQjhNMVfQeMP1xlMGrKbwc697H4RZKr25/WTHSCMEIhi8cJSMidgTtrauxvZbIBB0NVDg0ct62ZqYu6XAsw+FdeQ7huP/gUB48n8jpgpdjuSBqbm4rxYN0U5arKxwbiIaHFRUZL7lGnDeq3TwM1/nXbZvu1gI+QJHyS0yUgkUm6ZjvHR3Jhx8fyTe+/0g+evpKX161mA+xH8KBqZRJiv/NGod/yqV8OF4FnE00IiLOEbw9WztuYa/2+nLxftcYSLYwl2P39oYyy+YyQ95Gt1+To8VI3r3/Qh4+4KfcuCg6tred8w5Sjk/OJ4e7RBSNiCsCc5YnzKMNRjAG6LmDi2jFus6BhPGXDRaSJ5mMbh1IMn5dXhyN5P79V/qW83zBcQnFg5dieUmWn0tghs3UxYw3/KnK5R9zhIt7UzHsEe7q62zErtA9XUD30pEFWpBtRHzmY+0O1plGTyCO4RBTDmxPJ1MZj0Zy+849OTmdSpYP5eDOG/L8dCnfuP9cnr6cywJZ1K+3YV8ClsJBuAxdfrFwCIsGjoPZZyXpoo0+lONoKo/UtzX7RBi3+k24VXAfbBgcRvpcd24Zcbnhmr/PehW7NQWfbe5K3QuDjZFvF2cbNGsMdpdFPSwaZ0mE8dswbxVfm4gm4+v6kalROsRURWQ+z/XhNmZvgn3TvVvy8TyTP3//hXz4ZCZTfq6QQfhBJsTB/kLwP3uOu6fDHF3Jy4iwaGwBKJeIiC2DImGNBESADZhO59/c2N1tt9ZrvcwJ7x/hukUqWTKWLL0lL09y+eDhiTx+ttC3f2XULZtZIxsEw7rbz4mddcut4HLnLiKiAxgnXJRiNOBGNfxinKoCRhTJcg9ZuyWHx0sIx1QePVvKhDMqqxYcbOi0hYLDFxbbb8hedmyUw8rQz4PWX8u+iIgzgX0LG+1jaFyk3m2pZuPeD9bzeoE64RZo3ZWdhFMmPh3LgUi6p19ye/JiKt+6/0ree8iPLCFpXk3R4biZ7ujsSd1B+7us2KqsqVhwaxkRsU1oV6JI2F8IbIOrsbtWyhjNm7tyGY6HOk3nYynZcCQvppl8+73n8uGDiWRwZOfj0gj9FDdLVg6g18GcOy7/WCji0oJNmg2+zp2hR9xbGjycAeZuUb4GMB1iLDSYw7SQ4cFYEj4de7qQ7373UJ48yvXpWJNdigVUZDCFmYLjQ8cfxnhJEEUjImKbGOSSpANJk4FMJqd6lefgzoHM84UsMF85uHtP33L+ze89lwdP+DyKA8WGVyfrokGoPFtePNpFQ48GOqiLNPRmqJdJC1uVEdcf/oji4s/qYbD78bpKmLvPtFmXEBkN99BfxjKbMtUROERXGsvi1m15Ck/ffvBSPvh4JhkLEgW65GAjGxjaS8QUEXc5Fg6WF4twX1fBiIi4WlAhs+aLB7qWO+FaDvXbsIlkoz1wX55zqvL+M3nvwanMFyMZjW5jZAK/lRdY8aBsHC3d9bxxOXIRcWXhLkL4PDcwPWt0uHDR8ERCM8j/yBRpyob3cgwlHdyC6ba8OhL56NGRPH42M/dxwDUvFkN5gPZSrJJxXnyX3SgHPPYQIyLOjv4tS7sWdvsjjHbfPly8/XxvDyY9djp9fiYdSzK+o2sc7374St7liIN3f+WpfoyprsA8xjaeJ9YWDaeaIUZEnA1+Z65zNbQdcuvMwXbpx0meH1x+dH2CPW8wkAXyMMFs5MnxFKLxTB4/mUjGiyjAEt7MDWDWDpr3fhlzneeFjUYaERGXDecvAeio6M2O/UB/uWSLuYzHyG2ayyyfyWBvJIODPXk1mct3330hTx/DD18dCO8aM7+pkugqKW1wMz+zV33YrTPvFmHROO/Sj4g4A5xgXPpmq0ONXMajROYzjCgwlBjv76EXpvpMSjI+wFRlIN++/0I+fDS3rw2EFOhwyV098eGEos7don2koTWADHAlVzOt2adjRMQWwSboWO/2Xfuq0CbqtrVmqn3V4y7gjzraickFtxqCC6Kp5HzD1wKiMd9DD7sl8/3b8jjP5dsfv5L7H8/llCMOXeMYYzsUfiqB4Q354+VYvnvUPmVuuUuwNnrAlfSOSjzihuLSjw12AuiG6NcJIRpc8KQY8H6OJTgfgnv78myayfcfHMoTfTp2gJGIefOXk5wSpgyNO827L9OeohERcfmxq1FEG/xRRC/4l2P18ik6OAVEhwYQDxURPunKp2PN5dgPHkzM07F2jYOe3ftrzGVYvhVsZLbnIBhEFI2IS4r+TfM6vciJIxC+pEff7pXckucnS3nv4UQePHWP1UNYtGxs+fC4z/nYW2rGzYqYGztL8u9SqyumY0TEGcAX2CRoR4ZonHwnBVh8GMmiTSDoI/SYw2WGPk7PR+nBlMTgIV/mujCaD0cyQ5k8eH4i33rvlXz8fC7zBUYZvBSL7sgeyeVRt0TKKYr77RLrlykqkFkKMSLi7PBbU0vLcvqBbX2vC+HTNxlU914OMC+ZzKYT2ef3YvcSmcxOJUsSSW/flsPpXL7zvUP5+HGm528+Uu+mK+YJWXM5tsTujm9t0eBNam2MiDgbXEO3LC53uFua6AwTzshsb+bsakiomW3RmS2LeHS07O8hLwuYv6WMhvw8wlQW2VTSMUYg40RyDJ+Wo7G8PF7K9987lQePMuEjKgYUDd4i5r0STOEfo+N2sKFosNKajIhYD+Z51JI+YIdAKK1ZXXNjNt0fP4oIzdouDTWiQigoMv4+drJy32WAmaKYbTqESGAYwXWNNB3BMZEMg4gkGUM47srjE5HvPoRwPDOXYzGBk+UCfmYsF8RTOSwaWFK+WJ4d64uGslrVjhER60D7sNeC6o26vs+0MGxhNVct1KHYljD+S5ZQ4WjZd6GwJ12+IjBJ+UDbSC/H5guudfDKSCoZRhvzvQP5eDKTb73/Uj54dCSnM8rGCHtHRjQYlca0O6y/pgG0FTkXfR1N5URErAE9TXIkUKNtaXpGplE7GKSEba2QEpptu7Ttz9HscTRxFaikVdt3ntDMojvqZVRedjWZN6MHmHU38jhEHjHqODzK5IMHh/LR42OZZZjGjFJMY7xpnJYL43FkV6fb2bGRaPTBBRZ/xDUGm702fV4+MGP6QijU2bIK18yL0C24zK2WIy2uXWSSYOQxSG7Dti/vPXgq9x8/l+MFF0IpOiTKBGduFpFyy4e1gWgwiGO9Avx9ZMRNgA4QPG4KhtVLppZNoE1pkzNrGWkylNF4r72rawdy7ZBbBKa6OPdi3+UHDztNMUXJMpnxo9OYphxPRR6+nGKq8gQjjiOZTUTmcJvrreeGChQQL+HyhnM61bkurk6pRdxsoNGb92e6tQxz6X82W8iUnYROhO4sbNcHELvZdCGj0b4cHNyS49NjmeQYa7z2pswGt+R77700H51GEfGReq6NmJKAVGx56hVFI+LqwDst6p2TEIgJOtJkYjoEJyp8EzhPsfyEqPldFwEZmMVOTDsWvLw6zGXA78mmmKoMPyEn0wP54IOZPHq0KD6LkPPejcEUJVC+5dysedBMblY2UTQiCrAJraIPteNf3b0vXJyOBhyIt5GgNMC3WhN0kIEcn0wgIhyBoDPh7DvgqRadQmciXPfQqYhailhK0MWSfnqi9/MmWwOmYykEA1OT+XQm49GBjPduY/TBqceeDMavy5NJKt/CaOPhy5nMkD8Ka84nY/lQHOzm5cTuJcW8rwNDNGy5p1oH3YiiEVHA9isl1+FDNJc6DfGvoO++DouPh9PO0YNHzYjlQJsqzNq5mSQ7BQQE+56/PFLxyPn27lzfsgnhsF2A4YHiKoS1F3Bu6l7dV8+rz7MgFF8fZphzUAPTZCTZHMe7SCQd7Ot9GpNlKtP9W/IxtOAbHx7Kk+cLmcFPthihXEYsMluDVlBVPPgJBZI/7jdchSgaEVcG6DeA12ThsMBY/Oh4JofHcxmO9yQdDrWD6RQeQkDz9YE9FidyOcqCV0ngnOFfnsCc7snR6UC+994r+eDxVCbYPxjCfVDIPn4UR5ajuxxbFctViKIRcWVgBMA2ezvKmC9yOZll8gKikfNSJMmH3NBZeFsDr8JscQ3wUsK82QvTjHyO7o9jTzDiwBTl+x8+l8cvJzJTXxQGlJl2eZI3jI3tdiui4ZydIoE6fDPuzKOjD9q7L5lFXEdw2O+eTjVPpG4HOefkFIeiTbPR44eGpkN2jtUTDM2nuXz46BBnWKjEEqIhI3SFREZog0MVGtuGg7z6YF/jegdndHOugmK0sRwdyMvpUr79/mN59/2PMcbgW784VeG3V8zj9RxxmFHHelij1FZHvn7yEdcNu2sDzZgHgxSagY6AM+azw5k8foqz6iJFl+CbsChivOJgOtV1R55x9JXK3t4YwoGp2v4tGezfkaPFSO5/eCQffHCMwYgRdfO+DsItiPJKSn9sJrWtt90ycZ8RNwFsBbuudTZzdv6qdHAUwtunUzmZZPLoySE6zMJ8pQz7UmSm0URDuWVbvtJAqeQQUI70cOjZYCGzfCqzZS7TfF+OZwdy//6RPHk80/s36MeIxcTSP35XPo2CK9BTNPyquuoFHNEH1c55kViVE+wf7OOciXn885k8eT6Vaca7NTAc5/RGh+E1oShOepbXAMMRBBSHeXo6kdEo1dEGn44doGyG49fkcJLKN75/KA+f8kU+kAS+IlC/L8upip326c/BL7Mq2kVDQ6NCOEf11jPMegWqIsCIqw1Tt4b19Sm3ZlG5BRs0C2ubSoxrV2108N0CaWGKMhjdkxenA/nO+y/lyauJ8H6vY5xWp+g5uV5eJHlPAs+wbli+/tD8cmKJEQSOA5U2GpqnY0fpbZTUPkosES6PnozH8hTTk2++N5f3H+Yy4f1e2Z4k+S0QoxQEN/UO4UBfNuVlLs/Wy8ivmRII3A7ubGPETUS5UHlBQEPHwFzS8S15erSQP/v+M3n0aibJGKMNtksdTZBso8ysoxUiCuCVB4/NHiMqhFeWEs5DsNXLselQFhDXFydz+eDhVB4/XZrb7+FdP1DPklLBYFwMlxoGLsmuX1o8BbUx4saCwuF43hgsFzhL8qtlY5kle/LRi4l88/2n8ujpsYz2eEnRwQqFdgi4K5ud4jrAdcmiV3ImoIeZyMvjGUYbpyifTE4xmOC6qLmKwpvoaGEZGVJ86pW6tmj4GlFnxE2FuduyuOtyW9C4Vsdn2p+5cQkTeJlirv7+4xfyzfsP5fnRTFK4DfnmKwzDszmH8jwTs0PYCK4xWHp8aXGS2OPF9GUBsXz0/Fi+9cFL+eDJTD1xGkP1oEjoSoMrG2z9lQ5ibdEgXFXWGXEzYU4Yu2gJiKvaXlsAseKiJ5//RqNPOK8fHsijw6n80Z+9J/fvv5DphPN83vyVomPw8mQuA07kiwR2kf+Lh44cCBzzaMTXB6YyxWHPBiN5NsnkuxCORw9nkvMxFBSFvulcjeZnK7eCjUQjImIXMHPqkn3B51R4NyhXNhJZyBANfXywL5P0tnwPw/Cv//FD+dafP5GHH53Kgq/P441Qw5kkozk/owq4uTvJLtGHV0hcUJYciaUQTX6pDSUk6cEdSfbuyMuTXL797Rfy+EEOYTWiobKhbzifari6bvDom7heYhtx7THQy6sErwBwPfD0ZCaZ7Mmd1z8jk/yW/NGffE/+4x9+Q97/6JnMOb1PR2D926gk7eaqUDvhR+9UhblChN+Iobj6sSpkYSYYXfAht8npDCMskVu3xsIXfc0xXds/eEOeHebyZ99+Jh88XpjnXqES/Dg13xKml1VqGEDRqzoCG58sPkbk/+qPHso//g9HML8twyyRIXboogkYQq6ZjLgqqFd9caMgoZXcUtErsM4ooYpqmr3jYZtVr2jgXNtYLvRYKAi8qXwIlRgsTiEkT+X0+LHcuz2QL3zh8/KjP/yDcucWX8qrwRpglK05YJrWWKAxlHcxmOPi8zJEYg/RWhXMv744B1tDhqsi5MYkuWZBJIhYjaCKZws0LWz5YaYBEs0Oj1AOB5JhjvJDPziWH/rcUEbLqYzQnflqQV0s9vIaReMGo171V1s0jF9uzX0GpRs7hhmUz2UG4Xj18pFMjp/L/nApn3vnB+T1N1+Xd95+W+7dvaf+DTijNz9NQEmY/Kl7I3915SnD6Aef0aNN/zZbYy+Pl+g65vo+JwzcmGjLuKqxVqHx4C9N0V/zpYwwXVtmSzmdTOTu7Yn87E/clR/59B2M0zClwShF4UUYReMGo171Fy0aenlvE7DN2jS5daLh7GyZvCyb5jOMKmaymL7CiOOFZNNjmaOjpAnaNk677oytEYK8d8GZSxg/Gm3hHCorry/guNQ7+o95ZSHNiJ9mm28Gh4QU0ZR5KaHHZs0+VNqwQ99Jor9u6H745TtHKRYHeyOZzfkBpqXcHh/K//APfl7+zq/8lNyDXkBPGoi9PMIDW4jjeriIkCFoX8M/jc1GSzHMwAXEIU9HMty7I/u3X5dkfE/uvfGOHNz5hOTJnpwuBjIhcYIkZ+C0wYFuZxnkp8KhpbMPSiIDc2y5hrDIR9gOZcEnTpc8l+8XzAa070FjaG4yB7nPJ91IhiUXJI6lk4OxzK15luzL4WIsR/meyN4n4Ib4oApcINaLUSzHGuJI4wajXvWb1h+bg98keAdiP1RD1vPTG2yzXlhjxpkcUfPMzhvJeUu0vjmC75zIFpJkmWTzE5kcvYInNHiE4Zu+Gc7kiGdse+8HtgbV/FbMvBlK1zR8/3XYmF1eKx2pHndPIIhLlegzWGP69M/R1QKGZHhbprO53NlPIV0P5H/8e39R/s4v/UW5hX0jLmfU4ly7lTBTbYyIuFxAq2e7VGKUgZFGhgnKgu/NlDE6yx1J9+9AXMY4S0NShmOYh2oOM/WIuNCbCqInYTBh7dwXoudfw9SJ8OsSafoncurWSjp/3CIw368hAz7AxpvxE0mxbwjd47tIbLQVINn1gTiDjIi4VEDPQN9Ew2dXQFNHzzIdxHT8PBlJMjrQd08sYV5gXyEIFBj6UWIqYc3FZVdEXCWjd+bqZVEl4l5irFN1r4dfj3V07asAHoo7eK0s6BoKRCKFG99DQlfeABdCu2g4FbD3oLPo6Z2qxqhCjLh4sNq0jlrJOjRk4+eUxHE3QKIad4jctwUgmgEvNzqiA+jVCgoE2q7+uF2mwu+ipinfJTrW+zRG433ZP7gjt1/7hNy6c08k5agDwoEwppwoFigriArJJ2oRGGYKAITAkkLUTYxknJn52oBL5N9nDjdHI3YYRbkt8ufIURJHVo5LMS8uUnOCuCCXg8EccYI41gxuCySZcRU0UEWsuSaKYYMfYksVHLFbdFZTdSdOKNcTxXEZgzlvGlBK1ObO8OhUko5URCggewe30a8hEOh47EB8nWAyTMGhDEFueZt6CnFZiwjHOzKD+3pyqFumXSXzk2CrN6zBLMM9mCmKhnX7AKKZcJvAnSIIiRwMFhCRTKdwFEk37QkNBsKisQJsbI4+6me1iIiLBO9jQHe3W1CnK7AUj8rDiJHJUmnEYx9TlQOQD3glKeb3FIk0Lf3x7MvRDPbrS4wtE0w9VtL646XOkrCj43bThKV/ClcR1u7nKw/V7ERE95d2pmGEz9CIF9xwfHpsEEgVHZYWzDpSY9loCTWxkWhERFw9lF3A3FBl6abfOgVnpxlCOG6Dd9CxcDZWvyG0uW8f4eVIg+CkoBP06HnW48YGTvUTPa0hgQi5RdxYsDk41lrQToA0Kp12O2nqmVJHA5YYbps1DvOUq2OCM7iZgpipiD4ByxHHgFOV2/pxaRZFaFRNK19yYwgb0unLyogc8VTsAWr6DGfDmpGRIeNTYeMxdxBzEku7CItjLtexuGX5IG5a+VYeZw7AhYqIuCFg10BH4rYQK4iImcBgS2HBkB7z/dFoT6cD2uk88Myvi6Pqvj75RnCTA/5884qfH86akblAPnhMVbeqiMCFW+xRIYOZ4qdCSr9070BYNFaFioi4smCnsAKhHYV202F8chTC9YDxaF+GI05TzGhEqR3EhcMWbqbTdJF+jD93ZUdpw3eT/rhlmi6c2cdf6c8j3X1yRGKp6zWabpk2RyBleIYwuQ6B+zrAAQrIxSNnjrhS0DcxFaR9WZDV6ZvNuxMM4Vjs60P/m6ymufks0QiLQbKjZqIDppGvSf4qdqSii6FkGadJgLQdTBcJOdK4A+G4K+PxXXS0fQSDgAivOFBEeJY3QoKe2EIIFImOr5dd1c6tT+snRBdOyTR9mrRdp1eqSOiBlW6kznFII3ou7xqW+aQZW18uzP8m6CMMF6IiGGTElUK9+jyy0zqw+8Khyp6gT5+m8Th2oRly6/CzUmQJaTXcLKydQpIMxuhPB5im3JG9vdcgHrfhvgcPFA3T0djhliBHJnoGL2hGK8VWr1bQbK52GLr9bWQYczWE4fWSKtwMMdpwhIDQP80aDgJT91McGKCiYQ5SxaMcYTAuIwml7ybaRSMi4jqCfYXzeAvTWdBxOLrAViojHrqZzsvLnuPxPrhXdFDeHEaazu+EwtEXD99uyXjRuath6qyH4VfikRcS+31qfBoGVHEydELAS7TGvYyP7vRjPn3JUQYLh2WiGz3+EKJoRNxMVPpDuHP4oKiw41E0RmNzk5UO50lMZXglwwhQiEaQSlJ04K4d13TqdvrhPHddsPXsFfp+/fBUA3Z5Hq+1Y6v3gSAvcIAd+cE0xuyheJr7WXy0iIbz6AKB3n3ounJraaIw5E00PiMuAqxuv15uIOzcvQvaidDR2Uy1qbIzcQTSQvrnU6Gj0VAO9jHi2MOIAx3elLdB/VJpG+tx96cRpxC53wlDk+YxAT42YI7TrpeAvPTK/XrpGMdH/zoz1UIJd+L1W9WKyoi4JkA7jChBHWKH1ykCOtdQbyUfYg/7AwuL2zovZyFCF6yYcN3GbLnI2je/PLKICIV/NgyfY64ueDx2zFyld8xddKCZZ3beXj7c2xc+98EhvZ5MW8hLpGYNw7AKRg5/NfoPEpZEdEzfMpRWwQrg2RtdcMSCjCgpGIxb46NPbElFSyOox74SjA9JBX8R2wPrq5sYRgaIf/zfyTpcnBeB8ngsQhm2rPj1LepQD0Bnr1x6oR5HSbNYiA6nPYodH6MNvY/jAALCO0eteGiXqoXnpoLaftL11jo9Pzoi8OzGD/O0irVuboOz2CiCGq0KDQgLRx8agm86NoVbQS221TCXuHEAAUZsDyzOdrIBh8nWUNyGQKpLkz5cvOcNNscKA8dTELn27wWp3n9iD8DRwheNNuFww/ROQgxIc28Ebz0390xQJLggOoRo8HF7uvn3TzDfelavpR1KA//Uv2O5j+sMhkyvXOBkB/eFIUxz6ZX+Q2mZ/NDu3mSud4bCzHUNvSTPiqlhbdGIuL6o9D3rdp1QOb4QV/jROKwAURR4wxU7Mx9ZH/HTj3xHh3Yp06ndJU92dvPiHsM+0LyQgXw49u++RiAKWte6XQE7/sw/ikYAUTQiChQNVW03ENpb+oKe2cMgCjiTpyO+b4PCASGBSJiuRdIP6ezrdLlmhjapIz+MC0exaAKjDf6Y3w6scwQKc6kVERekm2FRSAUjzh8odz19WJ4LmI7j2k1qB3B5qcJvq2WbrcIfxnfRh5kqYDwxwqhjhKnKaKRuZkRiPXkopy/+6AP9yifcwjSjFy6ohvLVi4x/ifCkTnkocgQyizTgwD/1G8JGNcxkzU+TKWjQdIk4b1xEHVy2Oj/fvLBDs6fxJTe8HMt7HrTnmb126+DKahWJqlu1522KMh6e+M07Qa0IcTfE1MxMaGtKxEaiERER0YQZCaD7UTgwXeHt3bwqYRYd/VHF+YJSoDdvOSawezQjEG80Q7FQ0WBem+IURSPiwrDOuVIfqLtUCOe+EI50qMKhI45LDHevig//HpbQYUbRuArgcBE1WJJ2dKMQsZMfBnLkh4vqNJcsy05Yv/2fbLYVNpU2Vn0Xj70HaM5qhvinl/cc4SN8TCB2VcHHGgrCTyUdlMEywy6kZ8leUL9Mq5dq2TN6shIWWXC7aC4+baB5Q5mAfDKVC6S8g1SPtwPMis8QOAbw6dY3/DJlMnwPatUN1LVIQ/gwEXooD9McG9sYQpmdNTCGiIiIMyDUyd1QX18AzDUOTlXQIdvQvmf7qKTlWSgSJou8S7RLvCIiInYCnuF5lcO8DZyLoyP0OHumZ4e0pD/2Vt1WULdvjmLE4aVFlm/wsnRpcrjRknyLaPi+aQZVdlpiidgBXHlfhXJH/ty4uu30tHX4aVqnDjBX/qVWx22hPHwM7wuaRVBOvcxDbuZejgHMeuOXJXorYjAsFiMD5JSn6kb/DM6tT+6ru3vhigkOplD2Bx9I37iZvBBuW8UK0eC2zojzwRUqd+1855xXFaf10qyH6BeqH1gEhlwTcCzdCXZevrdC1zj05T28n4N3i4ZyRhKl3XRsn4TbOtT3O5Tu/s/YKRbIE+VARcWGbRHkFtFoh1HTpUfnpns9clYUcd7wa4A8F7jTtrJfvZdt5vzgt9VzTb+WmL7xS0cZ7KTooh5L0Fztnn6+t0UDGjgyghu2XBDtwtqiQTGAVNgfEylZt0VcDLZfCytakWK9FLeXt35wuavzYmA6KQWjHX3KfLswZYIfDGRbAbWLhgZAxnmJRi/TGK/mskweZEQVLMLyUha/mMmLoB4h7W30Lxe20b/MyMuojFMl3XNfD66e6/TbgQ89QrvthvPpyqIPzEebw6zDP2bHsqzRPlkyeim2yt2Cowc+9YoDTpFnji4wytAbvDDKYOpcY9APF2FrPjQN/0qc+Xkp2huFtBPxFsT0IugHbSbI0o/YNFfVZrP0iXXbmsWGwSIibiZUiwfmCoZ1unBYwTUKH+7RYdHoAkYUS482diVOkMWZpO/ZJGK7YDWffx1oqh5XgyHCTXI3qJfL+ZZPFebMnmDwYahneXIF6v1rW+TNfA60M50urC8aEecE1pxjRBNXp3xUFJDPYhpQwLm7p1bdlYuSmEB47ItqHH3gC4dDW8goGpcVlHvHnhV/s+DK5SqUjxMMjirKNQfjnug9G/qsCj+gRPHw6t4XjX7H6fz5bO/mzsc6iKIREXFBUPHAT9/JqfdvgEPzkFufjuzEJ8S+GGCEsR3RWDeWiGuAWOkXAlvs3LCzu5u/+giHhmlhE2HXTbBipEEZstQFrsDE5wbAGy2axSOUQx/yN1iWrEQUuGzog5ew3Q10Gpcf1NIHra6qfDahPsOsJIA/u5KudEflu6kfDJ3rROOvEz2icgakqbQZ+G+E44thuuHaI/OGH7zX6aCdkUSKdW4OVwZ9iRCW5dGjbEibX80zyJu++DIf3m5OpwLWk8u9sdPMx++d3RAxFP6UxdSoTlsvCK5ba6dRMxNAe8st/JuKMXDbmwVXAn4p9KHCczBFyv/hyqgDTU1/9O5FU7AOF7PPKkI+HInS3oy/LdUA/Gjr7AC7g/ut9Kwo8+RMPkuY+EK/syGUaoh1uOMz6Td8w1lHHBCO5ojDz7vb49tLVn9NF/4cnLl0ASqWEt2nu4iIiAuD+5qbEw43YmqMFoqbwEq3XSKKRkTEZQWUolzj4FvOA6f+wqllWNAbteWHjug2Eo22ObP/5qfQdd9rCTuvPHul3Tzo2kWO2bel32ZvDthu2H7CzLHf3HaO0QY/fMQPNdl9etu4rmcAiMZ/C5o/6lhFDVuMYmhewmziDIGpX3uwLdbZF+v4raOe5lniOh+sn1M/xHohN8d5p3fR4AjDXJYl2dHZuVt69Jpwa6fGjNJUdpfrzRANWzAV2n1dcH7PAj/NS4+i0bB0VpeQ81XnLuGXp8+bABULHUVsTzQc9CoX5ECv5tBunINoFw0XSmukpBWiIC8L9KCRoU0alB+uLDhG4tHzZH6AnyhcdHMhMOm30uavCs28Ma6A89kVwr/USE+DHGUUIPdV/NbCKvGzF3uVjf2W1xUqDvwLiIQRDzWh4AxZFOuWhxEKCMZyhC2fwu1uvytGGgxpM2TNpanJSwNkhsXmuA7aw9WP1tGZPDdb4l0Fv1t4eQmyjv4l1V4+HnxPq+gh1Ni1E3Dr8abBCUew6uCISYtutfg2KiSKBt8gRtHg1kYTTK9NNNZO9HKDB18vAOcW2ueja18f9Enj8qBoLmrrA//4zuM4Q+mRNwMcWYB2ilKHG3mE9nXBDvpAjjAwcnPTiRbciDWNNqzqIltvjNuOb+vwS6StVCIuCpXmU2tLhVCoahhjBasas93dp/bXFg2KUP3SqmMTZti0XTA+xut4wdBT3SXIxwVCT0we+wNnRt4G7bhGW9k8zSsGti0tG04buFAJ+4BvMAcTkm/7Mu/1ZFPkJdqc/oo3gJG0gwgTohmhgLw6o5dhzYilrTpudmvfKvo3+IiI7aFsd+3aud22GUUjIuKKQwcFbrRgWYe76Wsb+hEWDS9uN0zx06KiNWjnTMF9W6aP0P7KKnJPOqPvVjrarW93wGEv7a8CnbYEuDEYtg+7YA+g5ZKc3WuOhBVfjzpAbgq7BZqn/srI2uBKDj/MMfz024Jey6lI/aALeoXaCS1tV+rKCjwH9VHzoFamp+AT2brx3KpoFw1OneyEUbe6aGHe/1heH4cLDkzJvc5ccAnW3JGTlfT918g0y/TDfuuPapvn2ZvuPkNhi3A4OD9NH3DRBl+H/5i349nA8H1Zws+3Uku45oa8+WWgZFgIR531M5pPh8ox1+qrTvOe8Ny8MRzlqEFqrCNQ3FcK1TKg3ZR/k1W/dZRlz3UIrk1w69YkPPptAka6+WBtIzWUqzZ0S7szgK1OTzrSiYhogO0FfSMoDBHbhROQdrjeq7VijC2IaxoRETcAbrwRlo31VLtFNHylccpjpiYKPT0gqJ4ifNbR5n4WID53erqgU5Q/ZNwdq0PVywxOF3QGS7Nx2jlcmo7XFyxRQx4mm0KI5pIr/ChREwmoawzGbG4VJ60Z7vTrx2/gm8NgPXdAs2lpQbFoJNCWUMjtjNCsdKUZcRFwNXFeNXJzWoB3pBQEmEJUqDfjz/l3ZuPPbHVfsfXN/dAtGoF4GioHN10E1b0RERHbhetdZCEPOwDi1o+frU5jxUijG4x+/cMIKFHEpcN51NLlbAmcGubKTVr31UX/411bNPQqJILpraorqz2QER2eINkudoCXN6/PR6d5rG08f/ip61qB97HpLqKH4a+sZ7cu0wf1RxH6chcwYlFGbo7DCIgRkV0A6bEdt3FDFJdbldZxJdyxdwdobZ26sGLN/nQkIuK6Yx3R2z2YD8fLgdWnNE8oiux7IuLzWoHHU6dFVcX7cVfhIlg+1nBmXMLyrFwiIi8enaIRymLzMo3PawB7KKEOync0unv41yU/uddwD6RR0tzdl/KFsmoO+am+MzLEVfu3TvzOO01WWMj9LMQRaHO4Lii0x5ntdhN0jzRsuVVFzlRSmNcAOM4l5ul5ljeYBdz6crOwS4QL50WZG7rhdBv1sALuOyF/2J5nml7jXBvB+ApaT9cARS91xxQ8tn79uFU0GKcS/0z54Yf4tFBvAHicrlNeDFen7zf0tnrp2rcrnHeaTMqluS6rMHb+P7/cXwwao6ti5Gs9dGCAgmuUD8+0Rwj9la89kH/671/JibwtyRJDZXidL/nijrDW6AMv1wDpIAPnMpSZDJdzKCsaGNz9o1u9GNQHHTWki0RuP1LvGEsGqrBA175d4bzvYOWi/cawV+s0Dr0SNECt78tCDiTTmi9rndPEEiHR6YeNw6E9kOuDV7nMcTDteuq8FsqroQO0+1vJx/Jbv/aa/OZPvy2vpewL8FBLMiwacDmCx3/51YfyT/5fiMbyLRUNnN4Q+RCFGc54n4uwbdi0ILeNBJ1zPDiRL/1oKn/9r74pb4yWMpyZMpmjEFn0LMi2y35d88Rd9aWLSLMLfn6YPO2uY287P0yKcW7UfBCG9ci8zdG8NWuZyO//8bH8q/+Sy1TG8NIW8RlEY0OV0+O05lWotk/m1RM/kAODAoMtisZXIBr/FKJxLG8hXn4F6/qLBh8TPhi8kJ//8bH87V9+Rz45nMt4NsXxZzIZmgaWchhns8utf8xd9xDUK33DtrNWmn4a9LYLEVmVH+536br8bHrsbdio/eBEyJNhhhHEPOXj4XDKRvKvvnYq/+wPMjnFaOPaigbz7vyoaHDB3YnGXYjGO62i0T3KNrFrAq6ANi2oKwWd43FLo53reVc8IqqIJXL1UG/T+klGjjbs/i60igalgdrES6zlC2RuVvPg0VIjWJzFsau9pNWWjeDHsxb5bwOYY9ku3fH79KF2/Au5b4urEArj6IP17MqosfPMcCluPeK14FJv5qb/YKApGn5YHQ+ZqKlCfhLXGXrEfuvhn5KNyuixoykZ0O7blH6cIVb81+19WQsXSsex7rfOij9rLtw8f/hX2Z6Ffhp1hvw7hvwra/7gxD+YueVvS3D9qOhP5w+m6lLW6aTHwtFulGoLIzzScBEBmphnvxkwRaz/8U8blNr7NyQWWYi7QCgdx8sAl4/Lkp8GigZutlrbmIZfZLuv64zS7tsEDFuEr8XbwIq0wqJhofHZ0KG4rzOMWFgLYHXDCshq+JXSWjlbQigtx8sCbbSXKD8GyJUqg7d1Db5iPn/4udlmTkLxar3opWdvNuHqKlBnraJBv4YYyCHCXi/GRQ7coum6vEpg+ypYc+vqrG6fox/PKvh+6/F0oe7Xj6cLjNb3W6ePehpt9P32QVeaPhhd3a9PH1W/3OnRD1APuAr+gdZZtJJ2aA78IGcEL9AU8Vk3B03LI8EtD9mTjdZst4uGxmaH6DTqf6dGbXBZuP4oy6UE7SyBm1MKJdxxt3HXcPURYh3NfcyhLvurbbNc+7HW2QPw5lJdN+U2FPGtyIITGPXWIwNdClBGwn9Q5XXF9yajUHmPu0IoLcfLgMuWnyogFsV7K7il3dguEn6ZbaPsKAxtdKDRDQu6unqnaBgwKsebAjNl0ruKleU0it9yieiPy1Ra2opbM2SEg50zZ/3Do9+hrjOcZPZFWDRQsKa8zPSEd5eZD9/00JhrAOoCHxjj1hcMUpUkwLo/86Gobvr+4YATXpjc5/slQ/GtYj0OOAbTI7mv7t8R/4JhHOv+Q3npQz8O/AumRcJzxW+d3K9+rL/C7vz4ZuxSoie5N3bxQ06k+wCze6N3f2gv8rh7sM86mvVIP32fBhRTx7L/h1GGCkEjWKdwrgfQdNCm2Jhgdo3Nko3t5pXI9UTRSSIqYPvuKpdu0bih4JmED/BkKL0Fn0sYjGQ2GGNrOIOdbj7p5tx1Kz1o/fvhQ/T9KUNx9WUtrlB6jnW/jiG/PhthQvnoQy+OGeyhtBxd3aziTDyz5z6XPeWCz1bhRBlPDe1oPrAGG8+wJyiz3/3qE/nt3z+W0/xNOA+xYykZZKZtrpfUojov1A+hD9rvt1jKaDCRH/jkUn7sc2O5k+SSLjg0FT12blP8q4cucoAd7bnBnvad3eh5f0gT209TXTvi5EjtvFFtA36+qxVSPyLmlfXKE4TuQ+N+9+FSvvFhqsJlvnJqwNsPSugw1JoJ2ziC8MMRfjgDnf1bMxEc4NODPc7Qbh+6sFBmXCdXJfx9OQ45kzRPZYRs3Rk8kn/w63fkr//ld+Qeurw+sFZDWDQykWN4/t2vPZHf+X+O5GT5JhwRA9AtGtZwjthEMIium7T4pGvCFfXlAsdUNpuiIjc9TuR1k6Amq+357cQFpLlpnWwOHKOfpFaUn/d6p/WAOvY7LDtbTrEYDDET5WizrQwwFvFFo3O9r56fTUUDPjxP3f2tmp/Km/v98lHRWGxTND6GaPB9Gq/Dcay7b4JoENy/7cZ/lvj63olax1VLcyMguWqazLef9/YOvYRotIFTlCgaxpuPriO90Tj3hr8CzM8mPAtC8fXh1QeOY7BsPTlebXiCsSHWFI2oMREEGh3PrG3sQsi/JU/c9atVJbkPo78QoVPu8qgh/Ffs7axf5jXEmVnjZDxh6hnfz/+O4K7w6NUMckPwZUOGnIBRNJjnzfK+u6ON2B7QWMIdaTU3hXaOQHwFa53I58XjMuTh+qJVNCDgRky5Ldici0VE1MFW0sZdgO2U7bWN+N/Kavsued3gH/VZJTUoGlporgBph7c+CZ01MxGXGbZRKJsw7cS1Ad9vlVV/IYTD1dGMp+639OH7rdOgaiOczU+5kkLV+0q4FLq4LkJxOO4SrSMNkzh+KCGKBq/BrcxQYKi6a0acF/wuo92mgDs7Ozb9lmz69WH8tLNEMx7+cyRca0U7sX5CLM+9JM2ljf/8OyP99QUN2hOhdOusw6XThVA8jrtEUzSYoEsYuWa+eelJi5b2HWcoIgBbJxtxQ+hi2SZxbXiZ9iwwbbSdYVdD7WQ11+uAXR5T50jDCAX+sWC1LWw7+Yi+4D0Tm3BjIGglLv58exsRVDtiC3eFUFqO+N9K/e/7t3vqWHXWv2xwx9F2PGdBq2gY+MmaoZsbNoUYcZPA3tjGLoT8GwZFqMKkgyH/m5MvHXYvHkbshb1wR47PA5U+Zt0uGitEg6AalIpQreYqI24KQrXvswsh/z7bEPJbsusX8l+yBjipcHj7nMmFUMLPecBP87Kgh2hEXAa4M+C6PAtC8RlW99GhYo+41mg+ewLwW7EvISe/+9VH8ju/fySn+VsYayT4ZRh0UGfCWnOVrmZ0Ne5kOZdROpX9ZCrD5Uw/fM35rrnmb7DRdIx3IVpjEDoBr+dribwiFIbg3QjtN3c9bgJ0f5tmPT8W3p2Emu0CfdIsw2rQolC6wtGnTQibshxpMndyltko4yn9tZQfwrn7OTT8MpXp8jba/C30gxQOZax+DIyXafYBPzjm5677OKvwny9h6+mXItB5pyfz4vKTS56gjZ/pgTUggzaoaHztIUTjUE6yt+DKW1D5kA4zE85QtfF0o1JsCHceZ6jKAz7BDkqXXEaDQ/m5LyTyd3/tLbmTL2U4NR13jkJk42JTYlyX5azaJWDr1IkPbRUd8ZZF1/Skuzxn2tUKg3M2AgxpgkNHVFW0eaS15kTRU+cicZdmCdYhj5PufBCTu/NsIP/mq6/k//7Pc5nLATyUbd0Pz+4LuXFRd6JyjMCmJ1ceS++QUTS2g76isS/P5Oe/mMjf/9UfkNfyUxlNZzjiXKYj03BS+NqOaPjlGM6PATNeZr4uEvpF/xZUnm5EHLxs3o4yHraKZaVC3T7Gh50aj2G9U9Rzw/0uKpcbJxqVkI06YUxlOn6a1bokSwe+3o4/18ndzYkmD2UaGgdOChQM/QA07Mt8LP/ya6fyO3+wkGl+p/BL1EUD3c3aulEvn6suGl0x32hoWWkNofnBYkhzoBQjIm4QWkWDXUNpVbLY1uhDTwSXGl25L2EOw/6/9McUwaoshZ00dcv/arbuDRgPZqtGjk/YKTCSNDvV/XrAHc/Zj6spGhQHEsaC1k6o2TI0Vqrsv2zQ8Z1lxLWBtlF2+IKe3e6jY7nf7eOP4Y2d4Eap5svYiDeFOVLDs2Ht6Ynf7+p9r2vf1QIbS9lgXCNzqNsjriu4BpSDbi3IbJVe+7gacG26xg2EsVs0XNwenNP6SV0VcGEvl1Ryu9hGcUjQUGBKcvzL6FiD8bM+N0NdnLlA18aqX/wr0qZ5O2jkAW58mztpFiEN1W1gWOYB5KKdLtzR3g+V9EiELdM0D8aV+xC9CQbQZHLIffSni9p0LvwyPOOyV2DsL7diwR/9Xi2YIwlzPbCmgmAh6rANXrg6b66aGJSNsMp1wNgKIq1NWf1wDuwZ8txCrlo7toGHkS4zGecLGTK+fIhiHclwtI+8zmR6+hyObEBlB3CN9Sw0OTKNuU7uC4VxzCBmbQz5V/r5x0HXGarfdppO5pglfCGvoX4CAnZuafdFpCDdgwyl5Vj64zH4aTI90tmXKIcg0WDcqHGISLmOsUhFw+ppA+nk8OdoGpglc27b4Coimt3AiW2Ifl7rownt3O44yPWA2AOopVEAmWElXXcMcfxDDChSlCc/V8DWc3R0KovFUt5845O1RmEaG0ulSbijzNqY5uRA09C0NL0liCbr7CDFS/0UtPG6dDQfbMSQA906N7u/kR9uHa2/GrVdbUocV2lHp0Sa7eR+L+xGRBwox4pd4/b94KSC8vGZ8m3zYsiR5TJbyuQ0k8kEnM4k512OrUCkVwbbzSvb0tpgUYZ4XbBcpmhUI9N5UOAc+KZJKkl+V2R6C4IykHGWg0tLmi0XUiXEp417NYb8OAb99Uijkhff76pwoJ/mdeQIopDKBCONCQQEo0vU8b39fXltbwzektGAt/FhZIozcuitdbwHxvHSg3l0VBHhdrN8d4sG44Zqs+tsHy7eXcUfQpmeHloLWSrLIaRiyKHqAkNWTFAObsFtX56/OkVRU0bMzT3mZ+4NXIe8lhty70MEtWa3rZvXpWtCpRvLwbdXWd/n27vCbUIbH4YLzX2G+kO1mqaKf4lPuDXszo2bXFDVCAYLEpvMFjJZzGSSsZ4XGjf/tL8xesvLDz+3dRK+eT0Ev3uC6by8gsj+7lcf68eS3LMnIhkqhvO9MOijNzB8LIC8b3p5q5p9RKQtpw1lmroaHvCKWbDcHTyVX/7JVP77X/kMzkY4E2FakvBzfbqQyC+wzWFHKTTSot1z68hLdY+ZUqA21FwFfCIezq9LGNFTFGHq4QgG8gL6+SnKOxSWaXqu9eOohK2j5rejDNZCoGwYs17F4roEf5oUpiXGYOHCgS7f3DAYtsPlHA2eJ4ED4X2/r9CevvL1Q/nnfzCFeBxgX9lmUi9eRuE/e8JpX190ral1gUVZCblGmhVUytKMlM78saSbLBoDHOPt9IX87BeG8qs//7Z88jYc0a74AakFgyMMC7IIulm2Ff4hM75AdhT05iej5pBnum2SHxeXF1aNjUSBtky2YZP81LFGmp3J2XiK6OCZ60dmjdMsvKKq5St/+EL+2X88ljy9LYOUUxSDaysa+CWYko/Qxu9SNP5aFA0PZZrtogHVHbyUd96cyeff3oOALCSZo0HhoOcpjh9DArME2QzcrFT+q/qjzR2qmishaPbtzRItfSA0IjIjkHo4E7ODjmIcmMlKWfthy3BuWF7AlWsR1t9JlOlVoN5snNjUQ9URrJaWNFn1dNEmgH/O7nurrkV4OxwGXKtKJcUZYciHE9OhfOfBUv70A5Tb7TsQjjL8dRWNDL9ypPFY/uGmonEI0fgKROO39Vuub2kGeRZeSzRcQwuitq/Laxcq2e+OxNynYKCdohUTzHMnMh5y2IYC1WNH906y4tj1Ya5a0bkpBF1JWrmS78A06x/JLvcSLqSDLVE4uWoyDceFQoxFBJjdW7NJs9hR9jkF3T2HSqcCvIbYEGSFc+PW39/VgE1YryiMGcE9JzX79iYYwEsTeWUei3xio/XqHQPXQhz89J1xqY8fDlDPQ62bIdrILB/LSb4ny9EQYXD6tdA2QIOmYw38j01XvnWf8XomsN6r0XSXlo96Ny+DcnpSfpbxLkXjN+5CNN6Wu9CAtUXjd79mRhonGGmwUQwwRl9PNLoa0vmjui7QBRaJ65ocWaC50AkOWlhFiRUGbZAayqbBtGisdFgtuNKhMgJYgdA7Ktzx+GJljQX8NBr56QBbRbewroeiXMymsPv5qb9Gr0/5+Gd7NWnGTbszaXDsaGL1659plUC6CevYdEtT8zBp5rxMuHj9ND1zGxiNn9qmMLnbLKbWfOKkURGN5LH81l+7K7/RIRqXq1dfGrCkcBZTpmiYFEoQ2yXp7VuLENyg+0puGu4svIg0z0Y0cWv2827MvLhautXt9IP61RMizfUz+vUGBcWxz4FH0YgIo3Imvvq4XkdzsbhA0WDSjudfpTqd6OAuwMG3u215PfIyYjsTZ05Ku6Pvby3i5799exvUY+E0gKzbQZR85azHqccq1lGWmUcbfyUvzn+RdhO8yzTJUY6OSM6x7zTv7NhWP/Hj8WinXOtg/RBbAMsbzaL49YUJV2VExC4RanPkmfpvD4TSJDdHKDZH/MfxOBvXfvz1nzq6RcPEtyHCqTIz5mwOufC4CnpARViPZvdK9PXHrLjsIPqCbdB8WZawoZjBjhiqYRzMYleV1XQcq/DTCqcZiqOZlkkPG912Mxy2jSXq+bSslNcZiJFE1a0N2OfSxNbVvbpgq+2rjRp+d/DTcTwb/JhKur6ntp7H1ikaCF8pxDB0r9JchoTR5cAZPcKTMxUIjDIVzmczRIl6wbZRxcqzm38eih1mq8edG9KeLTJ9gGk45FOvpoPkaJzmCU9z/GrXcsDwnsO+Guudykbt0fjR29QRV0n4xRC6zjJtVqNNx22dGXH5dGFIE3dinhDlk50wO/Lu12oe6jRPkDqWYUN+kR7TZh60wkze6mWkx8+tpS4+11hJM7DfkGna+MB6GZS0+cDUYwiOFgO9wWmYIRQaJa+mdL1ZPRRjG7tRlk9RTqTtQ5uh2rKqKN31Z5MqXFckzVILwg/TRzCU8EfhMGSBc8vOgfmnpf5HRfhzVwb07Y7VcNV9vp8MGVzF4M+Lx5WUmrHP/ilTe1fgPMtkkUM84NV1BnYuR+OGhoot4zIz55Jl2VjCLSuIjmDN5tmWktpB2KnbiP2YmOMEW27NugQ7jUnHZ5nvRBYQnwXMSpgzpYnTHWOdxTEzrAtTuLNDV/37aTshK+4lsYJRiEaNJh+IE3lakJpnKxzcWjp/jpU0mRZonn71iRxgyzUKPjk8QrgR4krTRJIU7iSOLQTNvYZfzW5oTMpGntV9Q3RlQqMO76OtzjpYg+cKloWWh5ct/Vl3sy8M388qv+uinCrBrPnh9WsIRLJAo8wl3R/KYDSQ4+mJ2jO0NIpRzi1KkTRiYuKiexkn6afRTYbVB7RATUPjLd2qRLzsczAX4Qsz3Wv7vLidudgXoB+28MNj1eMNhWvmp2Q9P85uaOqhSVeuSlvOfnmrHayG89MNk8PI4XIhIzAbTOU0mcrRYCYny5lMl3OZ5ws9KRX+PWjL9dLbNvy4t5KGHq+lyb2liZvjKZajS0e3tBtrBSj6i0It4xXbRcCljmaCguVDPOZFLUs5Pn0lGRrW/v5YhmOOOtiIMI7VuwUxFsDoxNVHwpcBwe62FSJcJ60/P6wbJgf9K5F+KC1H7vf9q5s5j2t+rV3d/HBg3e7cGnnyzSSmcX6Ycl/NvbLPlL9vV3p+/fzUy7eR11BcFWIis+Tt0zDD/xLVmg3BEfI4XEoKQU1YQPBbsor2PWeHH7fPzVGPpTTrfysWfYDyQon5gK3/sydWjizYeKtg06yqtHsWwHMCqvGgvhRUPh9nVtsO+PnJsoXMZxN9h8atg1uas/lspvuS8Qj/+YgPA5hhrubdZs7l3cFXZbMrNEe2cXig3yIq7tKIapED+rIZaybU7Htjh6ilyayy29C3pmMjqNSJNgvHWp1wKsE4NJ7mMWs8rp6dneAQpIKqnZdHQ3DtoC1N3e3Z6/lpB6QDasE49bsnw4Wk2UwG01PJJhMZ7N+FiOwjapMBdxx+l3Hm/mnWwbhtPajdoGz7ZRk5MewFW/4OS78z6YGYePR9IJwUoxz44ql76RO9jfw3fvZteR1BmHq91qJoWPj5SflZRkxLeKQnxycyhHhki4U2kPHeUAsZEwf16+bHauY/r2M0GpJXWU0gdO0Ai+PHlg/0hUKqZHjhquXK1FjezZAMwjpty40+oWcXARm7S4H+tem2dHCTfjNcCZRPkWjVh67JBGDyarYh+MesMXr2IJB3c/9Gal7th+2AlYWRR5JlmK7gCJGXaXIgk2RcZNfFe11FQ59yTZ7Ib/118+zJJxBkrWdPbppoOOiwdf5CXhudyuc+/bqcHh/rzUC8csKiGu0hE4NTZMaIBkOUDYY3AVmjRTPLNQ8K+qr6rBeP0aKKq4KLnX5ZVssVQJ5DIw2GdE3QlWszLMMZR9d0OdkxYU04bv2saVRqtvVsaQCf1p+Bi9XA6FDpWwGrn1aRphcPQ1TKgP88exNmJ6WfI4wMkfKBteUCIjJP5WiSyuEMopEeSJZSNDRGlrRuo2jURQNp5Qh8iLx+5WuPIBrH+sAaRWOgxQzRqETkWcq8WGAf/vxzpBOQRgP14nH7XGN2qNt3AYrG3fRIfu7H9+VXf+ETcoA0+V5Olgm0VEacnTAfNo80+tmq1VVlX1+Eiqbr2KtdD0AEznutdhXOyXVAjdsLowiEq8OFZX11he3boUKDF3fcLi2NyqbpQC/19tRsX1UwjC6mgoxX38cKtylmob//Jwv5t18/lJdT7ExZ4QbbEg0nQiWaUuCO2+TUQkWjL2qiUUYIIDVrNaKxQHkZ0bgH0fiHG4kGescLlOBX+NX4+qPxDdHw0Wi+lxaVMvTAY7ydvJRf/Mmx/O1ffkvuYURxgCLK5rnMUCbpyI4s+jYSJNRaXC4TlRbOkZk1OmC3L7ydaKTn2TQKNNAiPbtd1cNWoZHhWg50P9JQ51raK9CIuidWHhLqlPd08H2wBG9J50udM6jIP//6K/nHfzCVqRxglFm26XqcftdZRzSY7iaod9VtgCP/jG+is0+5qmjYNY2NRON3MdL4Z+7R+BsmGr/0kyP5u7+EgpOJHGSYmmQzzHFx9GO+dwEeG1OxEJBIJSGafTvLi/F41JZJVtG7wWh69TQc4F50YJcOzdWz0trok2aRnk3rrGmeEVqeFIx8T+3ZwFxJyfKR/M7Xj+X/+kNedqVoMO/m2OrC4NfJVRUN1kMmc1RPKRq/RdHASOM1ZDMkGs3c2zoOge5t+64/cOBsPLuouIhLC9Y2O+tOOuwVRVDytKCMsTD79psG/1Zitp1NG5ALW2XIbcfkL+S+MS/gGM7IekN2AwpDTvGMhQMkxwo898a+SwkcT4h2FGD+90P7OInxYaOjC7u9qdBGZluZMW8JGm2P+FzyfbgJQvGsQ/NvPdTjOG82gAZuVYNNnUbrWrCOrn2XD35u61wP3ZOr9eO7NigPHSb+oRXp/DYioieoTVz/q/NiwNFygN7akuaXXJHHbtG4oeC7UBMhaeaZhyvsfHiJbrw8VRZ0FaYiuCJtmEno+6EFQ24MU7HnYr4lylvbTYV2k/7gP0jzLI1unV23oXjW4TppOobiOW8iH8lM87ccmGeMFiBvpNNPY25zVHlVgHJZhSgaNbDMKBh8kIlz1eXSfAB6NNyT0XIui9krNKrms6hogmUn18aIjsK3l6MxOrJhGndLty/k5uKxceryfPWDrj057yDirftHOu449Fj0h+NYh4NpO0P+L4wQiuFEFsMTmQ/nMh3mMh+hDaAR3MpQ6/lSiz1IbS1N+KJ0oVN6thmfPtiwC3c+g2OcmV+60GqdgoiiEQDLlI9Ks0/pSAMtYHI8keU8kdfvvSXDjDfC+BzIEH5GoD5ijcZGOz/cPMTZypgZH838oLOx6z6kZdysX4Q3LMMZeuHILNF8VJjzvRCenyIfbXRpl27mo9Spx7q9TobxiHw33HwG94fi3T31/hHeartMteOkvLQ+w0hvDqGc4WSQof5tm9gUrgP6vBiEclHNDarC0NrbEEUjBF6/B7VIocYcrg6HYzSguzI/HaJxjWyndaRwlFvHomNrZyZdB3f7PHJ/fV8Rjvb6Pj9eS39/m586K/Ha/MO9IO2dRJi1/IMV/9UyO08OsyGqd1+SfE/25kOMLlK5kwxlbziSZO8WegdHmZtDuyd1qcYLgY4uLBWUhvLoNK809MhjFI0atPBQKvkIk46h6HsVphjKJvv7IqM9OTnBkBYeMHnxiAkN3dAJFpDqBc0oebO1ZrjTDyc2SpohTErh1sRh/Lh99OfCkQxb3+eT+5w/z97ql2nD7Pk1x+L5c/sd+ewRmUBUyRQdKxmB3NLNN9fp/Hpmhk9h3wEFcVcIMfCZwm2MIcYeOtIYx5SiPKaLpUxgno1QNkN2j769nP4uShH6wOXP5bGaX1R1dWs2QQQfWFssRF7aO0L1NvLMfCwJzYkzIOMviKujQa5w6mDXuJU+lV/8qZH8zV/6jNxL5pKeYo47QqNLBjI9yWRv1HxwSG2Ik/HyNu1wobckWiAcKhgu5LU1+v7xamvwvKvVs+uLrOxlSf7Tx9nVUk+jbifUowfYQ962CPOGNBosfaCehoMFxAKtOh+puL/EVPNf/MmJ/M4fLmSR7WEa0z5Yr3Yd0/a5BuWgSdYPGeCbzTfBWpf76+sYOCEU0NGGiwtTsiX69YCja5E7wyfyj379rvzmT78tryNI76dcM8zlXiIAReO3b6JojA/lZ35yX37hL70p79wW2ZtBNKAZvIhyemL8NWDbvxENY94p2hJoOa7eQLx+i9Bj8uyMvtF2z5JmPa5tA3krdK0Gug0x0tAX+KAjMytz8F9/7aX8i/9vglHXAcKi0lsQRcNDVow0Hstv/96rGyUaLEScb+S1exP55J2l3MJZaDwfyP5oJIMkk9PJVJIUSoKhrINWgS5B88qDKU4uKDXQSJTlZcIpW/MEVMLS3ObZxWdh8xNEKD9oDv44ybSO0p7n2Asrm43eKctdjQZqtz5as7vDNoM0i+btth54gkgTTjCRB367Nc9kiJPDk6NU3nuWSnrwBlpDFI06VorGP/13FI1PwZVFy3sIeMptw2aFcbnALjPH0U5lyBk+ikc/EczTFQrXFBfmxNi4zsX/7SJUQuPYEGs1mC1Ak+tIs7qrelz6MSJvP8tGrV5jVXHtLDTu619e/oeTtBWW1g6gY7FzaYeybRf5gnRgqjKG8xDReHlYV+AqnbNE5d0WFw0c/3I534VofBKuZqRx/UWD4Fm0LBbT2TE3rt3UtW5HvlqigfR6J2nKx8G9d8LAlp3rQPYMaM7I2NcpHP3bU6W+mIw1r4LffzWHnr0Rz9qjIkZQ5svhqotGsBTYtunXMSIiIsLhugwNtoy6VDr7zZFQe32kJ3ZRLpejrHX0EeDmuGxtyOTHH1Vx25XLKBotKD44BDpwetG0r8sy3v4MxbNbstW4jyOvJP36YfuAQ/3G1IR2li/ZM54dQtdiOliFy3cAGoDHSzYCnhNc/mpEfpxgkO6W8q5cMmRExI5x9vPzNuFyc3lydB7wj7rODgR2R9HoBJU4kZTbnCv00F+c+fXU2ih4n5sgFE+dIfT150HPfCtoz0K9WDsvVXcvlavRjGcTrIpFS0jzZXhz4LcPj4G6WVUsWxWN+jdaLzNNobVD7/lcDlGmYxktR5IueCt4KtmAtz8jbJJZQk3U7pGlHmD7E6OLkgOuZIO+G/yYp06R9wbpHqLbj2MhkQHDBPYe7OtPyasjpEmrANJ35YycYB//m3w0CqeTPkyc7mgMcySFrSWhSdegeeMUCgbHItOeWztNvIaeRcGtMzvYuLk9b1Qzax0dfHezz7c6c1uutyoaBjblS88umMZoTOgUORqMMaENYAtWGqxuTSE3yV9iGGyEtbggvEoIRelOWr91VvxYFvsZBsz9tGkm+ZRnF+GHT4J2kXP0Ssp+yVobM05gq8Jh/ZodPh3a3H2UKSo1GWPWfTj2OmxuFCiF4ldNCy6V+qnR82lgY4VIV1PwUfo+X7j8BPKlWTLupg2VcOauXO9ANK4++CzCcMkbvHibl8gpz9zjRPZGCxktjmSw4E1ffJzakR9J8kj7OmwL58cZ2h/yo/4gUQVhxzGUYcoBUScRhg2nk/BH1sP6oEzoO0HwuwxgLtjFHW8MKGyOWgquJOCk//ujUzRc4yDYOG4KeFbhdyB4N2iCXjDLISBDkf3hTPL5iRYK789RwqIs3MwnHkp6+xB3lS6spR8PqqYwK/199Ov21/05ujd9cUpkt+sQv/C0p0rE7IUzaWMyZYjyu0HN5oqhWjPr9G+MTppjOX5N7BXkxN0Rerwwd4TyrSRdd4QGRoWXFubSINkE3zORogy4mpDupTLJpjKbHskbB0s5PjmRfP8uOkdqfdfiwdm8RHWfKZ9QIaHzaa35rMUDISvh9rHTAtp5Cbd1cP78uPrBrP1YSw+wOHkIvES8RNlwMM/gblAfbpRmXzcY0A9s7Bw1+fCbsUvLLzINpXb8q5TlpkCM/kHV8lMF0yvT5LMeO0fRJiz8/BVtjUacgpgfjJiJO6n57snf+tLbchdOSTXriqZowMangUOiwXk2T7k8m4SwTiO7aLSJBud4o/lE3hgv5HPvHEjK18ANFjJdTOUTB4mcnkwlGR+gmJxoEF482iD9eEtzQJ8BuoFFA3SVXYun0tDdPuu3aAQujrNDY1qnQuGVxzfJR/LtRwmmdSgjfv/W5tXvXyXccXSBAf3Axh5FYwUuTDS+CtH4vZshGu65Egz25RNyLP/tF/bkN37+DYw6ppKNE5ng4O4cjGV6vJBbQ7M2oGgcsxen3Tq0l4/dUS/XNv9Fo4cHP0y4Z9bQx49BWOS68TRL5X/53+/L8YBthmAG6wfm0LXPgXnw82HsUTRW4NxFA3G4r8aXIw0ONJGRJO0QjZYdlxBV0eBQ3BViJnez5xCNofzDX/+sjPNX0EnO0QcyHo0lm81lD0Pw+oJfibIMquvSWrS2quqgz+aeqgb4cZX5bmzrwlGpE+4vfRPc7ey+TxRI1Q7Uow7hUX5b/uf/7XtyOHjbujRi0bgLs787GH/dkXbmzfzUpdaEGSnzWm+Oalev5Y56yP4w+SjBOGsJVuClaU9QuwXy5pKsHbO/z4jGAk79RSMsj648lPin5J/pXG28qnB51y3/IAoZ5uUTmLMERYSh14hD7elEUohKls1lnrdxVnCxnMrc44xbCRH++aZzj1nNvlgyPseppbM7P4sAM4+5LHAcSphn4JzEyUDp7OACZeEzy6v2NmbaH9BpUYb1W+ANII/ovYZsNyhXS8xnbCP2CYGokA0dcbGeNDwMAfC+EdPaS5rLpvyVrpvDPw6yzE+Y3nGeC3B0Wk6hI+3atxpdY6obBVZsCRQLGx1Lh89WqAuGxCCaB/b1Y/0Xcmv7IUeN+HqxD9hevG0fRkQ4dIoGOwtJuO3NgTnim3fcERHdaIoGTisqFtw60g62z+OvNtwwOmJb0NYSJNtQxYV2y/VqoBJLjbEumwiVE8gF0s5F3CbCvmviEKsgIuK6w4qIQ0enb4oGPLs1Ekcu3VBH2q6aXBfogh3XMLDl+idJe7UAa4oaEYC2lhZGXD5wtc7WEKYW7kHHNuFoioYHRuTzeqNaQiwYrtbzvtDFIJNshKF1isJcziVfdl9nd9M6xsELWQXh1krrh2E6K2VtIHIPeiKwZgeXX5ZA36mCnkwCNI2tnoIBdzVTj7hIuHrUq01ad8a9C+H2yUiwcWzYryHMZUF7mRBHmYJD4ffMZpINFpKxRw/5RMUMBczb6S15w5tH3udhnlC1Zo8JyEu2yjyvMMmXej9O0YFtYdsNaJ7vyBrkHlR84c+YHbnf92+eEcmUzC/zVCHdAjQfNjXhuolomQukQ7IsCyFi5io5pBvK29I0x350MaxLzUKEB6MUetkYJseusmINVOEJhJqd3ZnB6w0cLVo3h2i8rp/mQxkP9mWZQT6ygeSjsSxSmFFy5BxiMufWcuGZnb2dgwYzj2qHmJHmwTRUbJ3aLQ3ZRU039dgIg0N0BIo6dfYVpD8XhvRHGeaMRU+VEHYLGtWIuFRAmyBt2zDvPLHTE7O7ATTdMLRBcGvNRSTXFP6NODgXo9Pyf4oRwL7syy0ZQCEm6On5+BY6cwomhujMzswbweYQFLLY38aUohBwZ3yW/G5q8e1UViqqiyxWvPUMzYphNYbZOINrZVp3j3znhm9vowvnRgcDP26NHxvTagx1xMGtc4u4jFDRUAGhubumWNPtaBUK7gjxasLc2EXBMHfsZbxDk3d1wjXdH6G9p7I33JPR/h1ZLIeSDEYyGowLDj2OxNI3B4n46Mcx4Mf/hdz0N9jzbc0f4u7zYx76/Pw8hPIz1GbQ3qycfhQ6EnEJQLHv338H6DCNqqt8LOnfHsqx/ViSLgziLHsdYO7LMAVlxAKiwXUFjC/u7R3JL3/plvzSl96Q2zjkMcpjPBaZgqcL3lJedguNxStBjdHa6/uaMOkXqPn167GtG3KtoPO0AJh1BgtrruetbwdWbwjcdjZ6hjL8X/+P9+U4eV3tvJ/WjIbgH2Ws30wtmpzmwhiBNdqtjoI3QTXFzeMhAl3nEqNdyHkc+rnVQSZ3hg/kH/36HfnNn3lHXkdBbfaFtWsqGnWwGCgabFLL7EQO9hfyyTdvYTyQy3AyxRlbZDFcyiTjAii7AiuBZVJthPWOGChzD/WKtMNDY6l2IkTm73Ogl0FFFaqodG71Zmwajga70ze3wsVlt9UccaS2lNlyJB+f7skcW0F55rnplu5IS9FoNuIoGrtEs7wdeByFaKQQjb8WRaMXWAxGNFB4aSrpaCzHk1MttNF8LvsQihyW0/lMMpTBQC+Q1psgC9QaAN27sl2Vlek6uN956o26IgIedMRRQ4eWKEJh2ptWNS+8nu8fnPl+a64juDRlLBhVeE1Ly4JsEY11BIOIorEu2muWx7H7kQYXwwK4SoVopicG9XzT5jdic8kQUxi4qXvL8W+GMq42QWhDm1+Xde73P4xM9y4R0/3GGES1gyGilshYnq58iy29+nmxxqpYVHNwlg7dhmoKaOtXqM2eBbyk2gbWUXWkcVv+FkTjNQQJDRG22fqvFLoEjsVrhMKQ4BWM4srFFqHXauz9EzT7795sI8/oFLHyIqshr1To1pJm3tHQl37YEKv+y/sv6iyEQv+3w12mdUTQiCuAGysaBIXjKo2OrgoK8SC5uMxpX62cO058EZccG4gGa7uNEbvCpiVdCVPtt5cEfg7LheBLmdUrhWq5dgKFrQIPo++7LdT6oqGniC5GbBtasq5iO3pTaJ8f7vLVDnKkCzmGzL7PiLNAW43HdhS+vDZShAhUxI2enuwSXl9oZUTEVUQUjR3BP2O2MSLiMmLV+exGiUZ9tb4v+4Ajh3XD0F99xOGmEn1QuWLRM8wuUD/2CtEE69ddHHn/7bbgFrX7MNebzgyvNth927geWBNuesIt21TbmW392G8grnrTulBsTxe2gliXVRQCQTP/9SigKBo7glu36GJExFVEFI1rgqhBEWeBm96yHTm2IYpGD3BU4M/TN4XOGT12YZP1Cj+M4/bAprLt5sLCdPGSZyjciCp453LB1eVKH0XbpENH22FNRURERPRGFI2IiIi1sLZoVC5f4Wcfs1L6i3yXkcXwq4N1MFwd9XiVdp9DKG4tMa/8+NRwG31/Z+E6QModNMfYcMexc4d/nI3CaYWJ0WfoGPpwHfTK2iVF9fux4bJQVnumDb0dnGmkgbxpdkqa7F1Wso2soo+2RhWKuxfqHuuR+LwANAShQpe1phtRLcOqrRtlzGzsEe3oery9ibJcDbeHOD2JiIhYC1E0IiIi1kIUjQ4Uc/QNwcFk6DKo4/lDc2S364Lh2pqLi7fLT8RmuHzlGms4QrEtDbsQLYzYCrhkUiybdJxXomhcE7Cz+jegtZL+An7ra2z1+Lqgfi2jaFw9sM5cvTlzVz1emGiwHa7iJgjFo+wqBQv14pdajzAN/3XuEJVkeJAFGkdvWMmPv8/Bi9FcO7Xkf/crXfXM1IgjYn24Mgxxt3CjC0cmWdZ6GBcnGsjVKtahB9UBPeZAPErjpUDjujYv94H+vRIsupA/n/hXCeOT+yp+t4xKhVu3qmONRSnU3S38AmOMnl2/8an0giIewyr8Y16HNxMs/y6eD1j6BZGsNouWLMTpyTVCpUNvgSW6O3R7uIirAK03u3VTzK4aj6JxTeAqeltcF2cJG3HxcMKh5tq2jislGhwpnyeY3lkvlTIOxyZY/Od9at5FmoyP8TpGbA3+06rn3lbCiDV8o3A5Gl3E1cZK0Vjyd+MXqyIiIhzColE5Ia06O1FIHC8YV0rTXLlu5+zfL5a2AgqE9qu1V7laj/HEsmW4Cjjfcu1KLSgabEI+fVRGHfyeaO5z2Zt+PG30/YsNw+XdQT7w6Pmphe/iWeCvbwS6m4eBLPkNWEsWd/k2bv/LqZ47P8aLSKsMv9G7Mt8FkxxcDir5axIhcfwVNySiYT1Wy7hazk16bQDxR3Sj+ng77eE2qkRNO8KniWAD8Pu6bWymyzwhUEtybMmdcGGZ/ZY4Inoill/EdcBK0dCmbtXH/IuIiLjJ6CEalwOcBuilS2O9RNCcGePa6AirF849RlxhsP58Xk70zeGVEQ3i8hf3uugK4+LcJN6Iy4erUZ/ufqKuXF4p0YiIiNg+8oBC6OC2RTmiaERERKyFM4oGpYhRnCe7Bk7doKJuRKRZv9xZ0l06rflBOD4Vyj0FBx4V3NYWl3UNg8e5HTQvp/VjxGpUy8y/jFpn1e9lBLJZrBmSXehsnRpBbD+7QSEcEREXBz25WXNftIqGU5xVqhMREXE9wL7ubvijkLSJSVg0WpRiXUW6OdiFtDrJdoy4urj4unQiUGcFDYcwgqJRhK1FwnlPRB27agy7ijfi3KE9FPXoeAHwk/fpQCPFwL/k6u2uoHNNgxgg5gTB3X3qERER1xtdgkGsFo0aIyIirg/qI44+CIoG1/V1bR9DFTdD4ZYrrT7U7cLpXeZcwYRPgloOeFmzLzvl0pWCKykLhFuClTygAJc+vctwTWYec+u2PiO6Eb5E2o+m+zh2QK9loo1ULrevD//J1FVcJlX6YNYd1W42vRE8Wj8Sfas24BKIiIi42eiUSOpEAtUinYJFRETcbKwYV0VERERUEUUj4oZBx88eI9ZFZ6mxeHVCwnWcdVdL1gSjd9wVziONiIjrjtVSix6265UM7chIxF/R3QV80SAjIiLWx5nGZ+zffejDCUQXfAFp0PppA7w007Rh6whdotwlI84LrhW08erAb/t6Yd+zd1Gv8nr00ebeF2ee1CF/naxDD8qa28D9bexCa5qWPmInvu5wraHOqwXXdrW1Ivu+vYt9j5rCwQfUfPjxhNBbNAZMWm902g54o5gjheQ84KfZWZIRETcMFAi/L7YJBrE9FYiIiLgRWC0aVB/1tt1Tc/GhHnDTuVVExPpgg0Z7drwh8PubzzZ09fhgqTnPjFPvsVeDOkVERFwjUDgq/d3v7i19Piwa9Yj4o5s+a+P2REREXHXUdYFdnB+BNNcJ6nsNwuOzynzBRKCEYJgn/Kxd3VbTh0ZddyT8AF3sQKs3f0fQQ8SNARvtOTeERoo87/akb10H9TRbqRHzMode6uiVTsukjtGZ/0Z5YFaxMPcbFNSfTZz+4FZnPQz+QTjCbn1Iv37YOkNphuNBhiMuFdwj52cn42q2A6X+/I8qnwPQE5Etj8hjT/IFWI59OrRDNb12EkjGxE1DD7SsaZgepRGrwZBfD4+IiLiecEKigwTLEFpGGoDqgwnK//HsHBFx/eG6OLt7W4dvFw0LN4TZNnSx1WPETQWboGPERSB06bWr2/esKUYRKzVi29jRGSnizGDNtNVODyXgUGCAv3g2iIhYBzyB663ZxroR3GMPZ41nFfS9otg6mnWNsGwEVMCsK/NvBKFIEdCsOjPn5t7QiIiIHgj3uUsH9m8dEqB/70M8DpJUhhQpKyR1BDQAo4plKsvZUl4/uCV3bx2YkUbCt2tXL1HFd4ZGrAbbiDbJAK9f+1l3ZKClA4/1knBXMs4LvKC7nC3kE6N9+czd12QMN3N5ugnWXBPILGRDPnlvLPcOBjKUhaQDE4WLJApGRMT1AHt1gtHGKF/IQTqXO6OlGWm0qFZQNKg6e6NEXnttJG/eW8recoJIMGlR4XCAKSRDEREV3OyTy1m7iBtx7HLUwV6dDhYyzk/lrU8s5Y03xrCHR0BERTTcXXO8BJogxJ2Dpfzwp/fk9uAVxlsnkg5HhR/8eWbDiAgDNjXSTkHOc5y9EjY/Z+yJbO1+NGeMrh07jdxgvLcnkp3KweBQPv/pA7mN2QVXM1LuDHTr8EhDb5zIZJxk8oUffl0+eWcisjiRQcJoTBAVilCMERGFaDjU7RcNl5+z5UmFo8btw8/r2fIbgi6BDlLJ5yfo51P54g+/qf1eivXL5lE1RIN6waxxjkOJ+MxbQ/nxH74NjzM5OoJ4BMFrK+d0H39ERMQGcDeHN/Hi1Sn6NwTjR+5gpDGCaFAYMmjBQvfXZxHBkQbjTvCjaNxKl/ITP/IWBh7PZW+fO6048Dl5DpnygQpMAmWKwhERUcX2xwabgP2S/RP9FP11YKc6pvvmsjeeozs/l5/4wjtyCzOVIXZwPaNtRlQRDb0ioldFOKcZyAi7BzNMUT5/W37lr35OTo+/I/nyRJIRfCAkP07Mp++GOm2hiKwWDR3JhAUv4hLBX6taTfrn/TyOAT/aPPx9zQ9bwwdoGvjZWGtg/pu6uIsnPEu2+ZJwQuNs4xI9yZG9KuRHe1ttX4JEeTXSkSdYR32my4PxbfLKj4b7eTWZL+HHE6Irj4wjBkSVDoawIt7FAv13Ka8mJzLcz+To+X+VX/nyZ+QnvnhXBwoJ/PDj5cg8/gx9YE8VVJccEVKXEAp5Xegc5xd/5i354ufHItOnkuaocOzLUjKXeT5DJuC/9nXqiIiIzcD7PM4K6heR4gzP2UCeYUQBx2QAaZgvZR/7jx+/Jz/9I7flyz/zAzJEv87yKfp2pv0/Q7jMRFFBRTSYBrVpBnVcMNNwGEII9uDrhz6Vy9/4K2/JPUxTxosT3bdA2otxJpNsCs9UpLS4saXtoClKZMQNgW24ERcDCscI4wdOORaLmSRDjELoPs3kbjaRtwav5G9jFvGjn1zKaDnDaPAUg4a5LOAJ45Fg9RWiwZ2O/M/1CQZJEq5uQJXyuXz5pz4lf+9XPyt7i3dl/uqBjKFei2kud+++IVkGZVpQciIieFZwZwfHEPxWV7a+3WNVvi4Tzp7XBfplnqVy9/ZrspyL7KFvz198KHey78v/9Hd+VL78k29glIHZAkSDt1rkA8wkMB3CREzD12sFUyozqXIzJhJJSArnFPOiHHObDNvlYK7DlePZnvzeH70n//jfPZN3P4aC3XtHbu+/JkPMexaYp2Y69zJww6MQOP3zEUcflwu2WfRErVFzPlzA7bOtq2gfuzzBdOWnCg7XS9g8tqA+eu5qs377prndq8kr4zKpm7y6tPzsmfN+6WDWLfogxZRkrHFlp0cyffaBfO6NmfyD/+5N+fVf+JwMZSoJpiVDPmuG5Llmk+uN5GOENBnjzV4ORWmarDN6DGeQ40RVBFoDxzwZwuOejLOhvAb7r33pL8g/+vXPyo99aiaj00eQsiMkgnlQXQkiIiIuHFyhmCyn+H8qyeKJ/OCnpvJbf/Nz8it/5bMqDUmGQQJEJR0cyGCwB3HhdAY6gP7Ph9i4HuKjGGkUoE1XP/APw5QMgrGAZGAqhAQhIEhARxxQla9/90j+yb/5UP7r9w5FDj4lye1PSJ5CYOyw1H89oFFlRG6FJY40dgBb7v3R5h8ni5VnsY60Os7s5UijDjaIWqNooCPNLvQeafio5ie8RteeH92z6nA8sOrUO/Ja9AWUVT0OXm2prDTQAwL4/ip9CXHkeSanR09lOH0uf+nzr8lv/uLb8nNfvCP39pHWnIKRSYp+i1jQ09n5uZrBSDCEYNnpweCfjbcpGoTWK/9x9MDFzURHHqo4nO9g3yJJ5XieyP1HC/mDrz6Wf/0fviMPFnfkJL0re+MDubV3VxWLl2v0SgvCZMiMLZpOuGOmz1W+nV+Hun0b8PNwGfLjoOWDOuFWX2egqVVTLPqE7Tj6vxCXpn8DxtlfNDQJLxqTlzB4ib4AvJU2hmkPZ9AhRiHYhu7m5vVLhwo/SS8/5jkr5+A81cJ3iZENqiHrwWr2KkxujZd6HdTO+hRgpoN+xq3uQuRcXuATZ9liIYdHz+S15FTeSQ7ll37mB+XLv/COfP4zI9kfwQt65BKCMhxwJoFjYcbQv/V+K9dGeKXFB52CokGYHOCHKFDYLB5z89YCSc3VfYApyyJL5eUrke8/zOX//MrX5TtPJvLyaA7huC3DEYRjdCDJEIMgKFmOiVF3gTFDmq8CVHhbFg3UTxKtJ40twD/TXIb8ECrICeqGry2AWS97OyCDvInHz2Zh1sxbasPHtjEC0KM0xiCqHUZ92gQoOKHyMXVbhvPPjgb1PPiw+XXo6LAOeukQ7RinOLMup6OnMh5N38uo3vSkdrR7zSzCqieXL5OmxlCUoXpbmZ96eTRHLmYEYfoYYW566C4T7uPl1ASjCUjFAiIAocjzqcwnhwi/kL3RUv7yD78hf/8XPi8/+M5ADu4I+uZAhkPOHygQGoOXf5MPk2FwLdEguMfkXMGBC1UMkxbjwDxDNPQ6MNJ8hYHEN+4v5D9/7dvyJ9/6UD54NsFc6kBmyS1ZDg8k17vCTIRa0C3Q+sLWFazWpd3SyQ9bj2cXHbVewfUG4OM88uPA0RurL9OOYcYG9eGr35Q12/X8uIMJVkhbg9VaMEYCRj+0jjRC8SEtf6Shpoo3WgLhFN6RaJ699NuAIJx+UFi12VFYudGdAOPBnL0EO6Bx5ulShQNH4+q/rEsTS3mITYH20b/92OmIJ+DB9lMRKFvbGDFIPpNkfiLj7Eg+88mx/PSPfVa+/N98UT7/aZE7+zr4KPOMKHj7GOcALrZB7sdrsbZo1MDJheoEsskiGsLMKJ0yZfAwmcN+IPLkEKOPJ5m8+8FTefLiRJ4enmKodGoT1U0QdHf7mDFHOnJbCVeLJ3DIW4PffVx+GjjH/Big5G25mDwx9cJmyllbCUizuq4DE08Y1djUp3UyHc6YfZh6L3cUDbhA//T6jDSYgBEwdHw2c5egzZz+dwUIGDvjNYJhRMNtaayGc8dShmsBPNgYFBqrCerBjjS0OxrfpRdG4AeopzWQMeYbb75+Tz779uvy2U/elS/8hUReRz/EaVrmMwRPlzLESF/fk8Eg/AezEQ3TuncgGhzs2bObZtoMNPVmVwz7zHCNd3S4SYwZmWQukxYmJBNWaxC6H3QdlVHTuz1OpYMfT33ftuDSdmhWeInzyI8Dy4cnygwGbl3SfprMj29fa+TTVkm1AvDPpAxhdofCoputyk/PNPtA+7FtcNRTRsFYKjG5RgboPiRPf8yFS7I50jDws9pVri4+h1av8OfHyWTbiqMA9jN+3ozFvsYw0Ae9+kEqkDm99Z1AoXAWy3jpl2sY7LWMaCcjDeo21zMYcgkNM0rLIY65dyzJeW87EtHcmIMxik2LcdZdNLsaaQNzZQPoIdmtOtFg0SjUun0bqGW1K+vnkh8HVzYeCR35WVTKiv88u4E7mMYOi5B7swD8MjHmcLjOulP0Sa+ZfhDWm2s73NKpkq7uMEa3z/mng+6GI7elMNgxRmHftmgYH0xD02mF8cf1LApGpiNNkxfOcJwE8LEQfWbGRubide3E5J2jHOvBx1lFg2OHpZhbxpcyBqlR/BnRSDMICdXKpc0SSDAyqdQSALWrO3XBFTq3DOcf2jrxbAuhsnU41/xoPlgoZsukO7JmCvE80JWJ864vpMcklbaoKnXkjTQUbh88unruM9JgOOutAfXm7axFUwJ+6u2nXBgl6iFLIaBwmKVTzADgWMSDLUdcOohQR7fIoD7x36zjqL0ePXEm0aAvXaAxosELNrmkNnn+5x2kKSK0R6FAIM1RPQlktl+qBojS9+6nsFY820IlAzWcZ36KfHRl6IaD9cH2gy1Pb1pSfhvtqi/jufBuOpW1BMJ5sRboir4CF5gBar23tDZjKw4FW7PXCkalH8JK4dD+yysmXDjgaImikeK/9duMHt6q8RAbiIa9coLEWAW2GgD1oCZmpYp6Es2MRETsGmsNqq8hOOLn1U8zJmEfZE+ldDR7bBfWnJ4QZmwRkoaIiIjLC3Z0c2HeneAN1+vJIv8/6/w36vkwzLMAAAAASUVORK5CYII=;" vertex="1" parent="WIyWlLk6GJQsqaUBKTNV-1">
                    <mxGeometry x="463.25" y="340.41" width="30.34" height="39.59" as="geometry"/>
                </mxCell>
                <mxCell id="73" value="契約先リスト" style="shape=document;whiteSpace=wrap;html=1;boundedLbl=1;" vertex="1" parent="WIyWlLk6GJQsqaUBKTNV-1">
                    <mxGeometry x="153" y="500" width="120" height="80" as="geometry"/>
                </mxCell>
                <mxCell id="74" style="fontStyle=1;strokeColor=#003366;strokeWidth=1;html=1;exitX=1;exitY=0.5;exitDx=0;exitDy=0;entryX=0;entryY=0.5;entryDx=0;entryDy=0;" edge="1" parent="WIyWlLk6GJQsqaUBKTNV-1" source="73" target="149">
                    <mxGeometry relative="1" as="geometry">
                        <mxPoint x="284.91999999999996" y="350.41" as="sourcePoint"/>
                        <mxPoint x="313.25" y="410" as="targetPoint"/>
                    </mxGeometry>
                </mxCell>
                <mxCell id="75" value="" style="shape=image;verticalLabelPosition=bottom;labelBackgroundColor=default;verticalAlign=top;aspect=fixed;imageAspect=0;image=data:image/png,iVBORw0KGgoAAAANSUhEUgAAAMIAAAD1CAYAAAACniokAAAAAXNSR0IArs4c6QAAAARnQU1BAACxjwv8YQUAAAAJcEhZcwAADsMAAA7DAcdvqGQAACHMSURBVHhe7Z3ZjxzHfcd/c+7BvbikKB6mRUmkqMu6bMuK5AM07MRJjESKXoIgQGA/BAhg5CWODf8FcU44zwaMvDmALVl2EASJbcCWHSmWZUkWJdMSVzzF5ZLLvY/ZOXom9e2ZIntnu2eqqqu6q2fr0/pphr3TVdVVv2/9qvrMtRjkcOxy8p1Ph2NX44TgcDCcEBwOhhOCw8FwQnA4GE4IDgfDCcHhYDghOBwMJwSHg+GE4HAwnBAcDkYi1xo1W03aaFSp1vSoVq9RPdfs/MWhi8niCE2URymXy3XWOGQwKoRGo0Er3hbd2FyhC8tzNF9fo9XNDdqgGjUsFgOEmzatZoty+Zz/GSRq3cMTx+iJwydp39C4E4MCRoQAR1qsrtOVlXk6vXKZ3l18n65sLtL1yjJVvDrVWWSotGqdX6dDsxnt7PiblzMeKIVAXQUp5Qv+Z3D9aKFMnzhwP/3R8SfooeljNF3e48QgiXYh1JoNmltfpF9efZd+fv23NLM6S9dqq1RlAqg16p1ftWmyrLF0k2NL2PoootLhhO1iv9TD0ouqqX5ljVPF2LJX+g0miD3FITp16EP02MET9OD0HfTA1AdoemiM8jk3BRRFqxAqbB7w7sL79KPrb9MrV87QexvXaNOrsVDOelgWJeCwIB/orfi6IPg7X9/PyYKiidoVrO2XDoen1yutMPpVY1T+IqXqlTaEMMbmB6cOP0gnp4/SvpExOj55xIlBEm1CQCQ4M3+Rnjv/Mr10/R2a3Voiz/NuOgAcrJtezhkmkCh6pRO2eyIpRzpuRLn6pam8XY9fIE10MHsKw74Q7mVCAKPlYRcZJNFSQxDB+ZVr9B+XfkU/uvommw8sUMNr+I0IAYSJAEStd4jRPQ9AJIVt1rborcWL9Pby+/5czYbJv+3EFgJ6pYXNVV8AP7l6mpZYxaOX6iUAh162dfj5vC+QDScGKWILYYvNAd6+cYlevPQmXd64cVMEjmTYUddsPoY1iAxODOLEEgIqdn5zhV6ce4t+uz7rRJASYf7txCBHLCHgkOiZhcv0+sI5v8JR8TL0mgjaSNSENy1Qnl51iNaAOTH0R1kIaITlrQ16bfWCf7IMuGgQTpoCQufkxNAfZSHg7OtqvUIzC1f8T9lo0AuZQ6cmyFqk6gcXw1a96sQQgbIQcAnCXHWFZlk0UKnQJJzNtqFMmkAM6GDcodVw1IXQ9Ghtc4M2G+1rhmSGRYPW42YFHrXdMGknykJosMqrslBbbzU6a7JBliRoosNwc4ZwlIUAKjn9IrB1ftBrmKVa4rT21IlhJ7GEIAMcjC9RqIggKj03P+iNE8N2YguhQc0ern1LAP1IIhKkIQ2bBYlLMZwY2miLCNzhuxcRVEUQlb6LBuI4MbRJbGgURdpzAhFMzA/iolPsTgwpCyGOCESjjQwm0oyiX05JlgXsdjGkIgQIwFQkcMMidXazGFIfGqmQaM8dJ2pZLMqoku1WMWgRgkjvzqNA3EjQSwRxxvJJD0VsplsMp5cu+WIY5GhrNCLocn7TOBHsBGLAuQaI4TdLl30xLFTXBlYM2oQQdHpTzq8aDVQZ5B5QlN0ihkzMESAAVRHgL72aLU406JlunzL1Ik6ZTNAthsXaxsCJwXohmHQKVXFlHZU9C4rhrQEUg9VCEBFBnJ43DbLsOlwMmEC/uXhhoMSQiaGRjfRq/jjOEVf8puFHk7ZFhkzLu42VQkDF9qtcOEOcaDAIjZcGwaNJNyNDNftisE4IIhXar0c0LYJeW8cRZxLoKkNwzjAIYrBKCEmIQIR+eaSJTWULDpO4GLKKFUKAAJLqTeLm02trmwVkim4xLFTX23/IGKkJgTu/qGPCyeJGA5G8TDmzSKqidWEbgyCG2ELo9eaZKGQbXMQ5k3ChtN3U9oizWt/0xYAnH2ZNDFoiAq5MhHOLLqKIRAEgkmKvfHk+vfLql4dIOXshUy+q6MohrK4QFQqtvC+Gd5avZE4MsYWQz+sfXfVzSg5+IdK4vZxMNJ9eiKQRlyTyiAvEUMyoGFKbI4QhKgAg6hZxRaADG1w4yTJkMTJYIQQZAYAkG7VfXjrE1EusWYQPkzCBzooYYgtBZbLMkRUAkPl13Gigwz21pKFBbEkDMfCjSVkQg5aIINJM3OmDJgN+LboFBIAlCtm8VRHJpVc5dZHM3kaTBTFoGxp1O3m3qYItZbZmuXW+hSNaFpFfxdkvUZLIwyRZiQxWTZa7kXUBXSJIin7l1YHuHFTr0HYxWCsE2epOwqmC9HOIpEqT7F7Hw2YxWCcENKxs4+oWQb/UdIhApMxC+VgW5fphqxhSEQKaLspkgDP1cyg4E7d+iJTBFhHcJJejBnn+V090GwuwTQyJCAHNEzQdiDiTDCKp6RCBCOg1+8HzKuTytNWo0fXKMtWaddai5ppUWJx94Ptn00k3bbWGKooynUAAoiIQbTjdZeyFSNllH4XTbHjMqbaoVqvhxE5nbbL7JQvEYNNJN+vmCFHICkCnCETSE0pHsPyy5Ip5mq+t0hoTgylE61MGmyKD9UJou794I8g0mK6m1ekiKg6XZ8OjxcoazW4sUMVrv9xRZ5lMY8O1SVYLQVYAJkSgqyeU2Zd+dKeEJ5U26nU6u3aVFjZWO+v0oasOepH2MMlKIbRjgHjlyzaU6K9F0jXvIv3BkyUKpSJdWb1BM6uzVMFcIaOkFRlSFwJ3+uAiQ5oi0E0c4bWfX0307uxlOr82R3UWIXREhaTrIa1hUipCUHX6IGggUyIQRTQ9kf2M63D+o9zZpHk5X6E3L8/QxfXrVCOPcvm81mGSTqL2OA0xaBECd2rRJQ4qApBFZ/px9zdI/5Ry1Crk6FJjkV69+A7NLFyherXKWpmJweD5BRMkLQY9QjDomNzxucmCLbj1QyQPqfSEftXOtx9iKbEGzbWb9FLlhh8ZXr9xjlbYBLrVbLajgyURQmR/khSDtd2EquNzsKXM1nHyCiNpEQTTwRCJSnlfDG8wMbx8+g06s3DJF4TntS/HuCmKXsZ+hyfambCCoJWoQJV61ReDyUfF5FgFKnnAWr1C3z//C/rG6R/Q7MYilQvFzl/U0eWMsqmI5iuTrogQdOa7M632y1pyWx7lqy06kNtDB0amaGrfXto/PUW3DU/6vyoXyv6n7dS8Gk0V99DxyUP00UP30KGx6c5f9JC6EBSzj0Q2NZ3OyElfBJz2em+rQflakybW2gOA0bFRXxRgT2nY/8wKpYkR+tMHPkXP3PMkiyz6BjSxhfAvv36B5irLPYWgmIUUsjnodESO6HAIiOQvmlr/tFjJGk2iikeFjQa1qh6Ntm5FgjwbRjXr7WuUgt9tBOX7wqk/pi9/7Fkq5+OPQjixJeXl2s2PxogyU/j5dkwG0TKZKrnOOhFLq31otTVWJG+yRMQ+K8PeTVtvbNFmruZb8LuNZkqk1k6We4GmV3UlU8Jkku98602aIsQktTVcoMaeIvtkVspRs8BkMlTIhAEI1wSZEgKcI46DyIhAJh9REehGRdT+URsmguZYgZpl5lwFFikgiDIbEnUZ1usyCE7VAD5bo0zEw2Zc1nohoKm5qQKHSVsEMmUQ+ZWcCLb/FodFceKNRgrMSZkLFNrehkOmwU+sbyGKaLBcXt0gJNNYKwQ0nUxTRyHnMHryjIP+/MNTRGQgnG9gYkBve1MEEGzn5h7+qQOIIQ4QhElSFQKaKMpU4T0vN1Fk82Wp+4sIouUQzV9mv/oSEINPSHQIM073v0HUv7ujhKyZZHuJFfGdDp+SphNZx+eolEVUAMBmEcC1fPfqEgN33G6HDoK/Bf/O/83XBf+tI7I0WbImo0L0nmYIVedQ2cqECMwhkX93ZNAMF4gIcPpuM00CWZgDjqbibNhCxUVNiUD0l3L7qrCHHTF4pc6/NYBoAEfmnyIWhcnhUY9s7UVVAEBtK2wnvmX6IhBnR6pMDDhm3xyK73TNfMuPBAXmZjIRIYpeIolLZoTAnT+OQ6hsCQGkLQJ5YqaMyIBLLZgY4MzdxuHfg+uD3/PNtpj4v4OHRGXNNNYKIej4cZwfYGuVFGQEAEyJIO7+R9Ez1Y4YfMOQJGDdju+vD/se8qmKaTFYJQRdjs9BKqopmRSBDPLpiv1e6FdcDMUuJwyIgjv+ju+MuM6fJLGE4LU0nnDR7EhxUjMtAnPuYSDlKDH0g4siI8QSgipwnG7TBVKKk5pNIpBLW/y3ciVmv8flGCpiyBCxhIAH0AL/LcsBp+5npoibMitd55sYsvsi82tT9SSbKi+Hkhj4cEmTmZwnpBIRdIDm6TYV4Px8kcEeEeC3Yr+XK/HOcgTF0GIfsKAw/H8rwtPrZaA6JLsXYnSSzw7izd4bFecHcA57RJA8XAz+J/7dZOXtCCPHpoxBp+XfRUyGpoEhmmQR0gGuwU0HKgIAKk6qq8zhiKcuW45e+woR5NkkepsY8BnwJnyHMHTC8zOBlUJAtQZNF6pRAKhEAZktkL5cHuK/lSt5uyz96BYD4I7PP02IwRSxhKDj8CmqvNtMEEcAKiKwBdmyyOzrjsjQ8abuyKCLnGeuZjUWMxoUP8pM044BajnJCgCo5CSfTxI1J0ZYZDCFyTxiCYEfPgVomihLgzgCALtRBCr7DPz7iX0zLwZTJBIRkoI7fxwBgCREgDxMiyBeLYjB6xqPi2mWc20xMK/yj/kHPrWYQQwnnww6nB+oOWcyDiebSzJl2g7ug/bFgE/m/zm2+C3D/q3DTJJpIbTdX0+TqwpAJXeVvGRIqkxhdX9TDGyoxMXgrze7y7GJJQSdF92FwR09aokD7/25yYBfy+aulhfPSXwb1XLJwLbwlyj8B4mxIRIXA+CfqpgWknURgVdyr4qOg0rDBzHcHgHkc0qubP0JikEHpvyBk6oQuMMHF5PEEQBQ3TpuviKo5GC6XNsjQyuWecxTPX3P/N2BNiEEnVl0SQodUUB1a7V85bZRykGxPmTbrS0G3LNsdrIbF+uGRrrgzp+mANTylttGKYcYdSILcmJauCkGWUuKgRICdz4dDR0nBfX85bZTySVO3bCa7XyTh4vBVgZCCLqcnxMnJZtFEIc4IuDIioFf1ZoEmReCbgHESU1nWUygWj5VEYRtZWtkyJQQ0JDdpgOkEieleGWRz10lJ9XysT3rfNOHiBiiooH/iHhNh2SDWC0E7mDxHC0apBg31Xjlkt9WJTcTddePfjm2xcD+F0HSE2c9QpCs6KBz9zLdIMWgxSFeGeVLoFpm1TKyvfMXWWTKmWNqQGSwYaikXALsLJ5eweGOIWJJI9M4/Yi3D2olUc5NsZxsDzvfzIPIYANWD43iouZ24cQXsapTqpGGCFS37DdMSoKBEwIag1tcuPPHE4A66eSqho6ymno3gwgDIwRdzs/R5/xqJYuTe9LRIE5Zg7ApcWqRQVkIlgzt/EbQ1RAcvSKQJ07uSUcvE7mlIYZYk+WkQZ7dpgs4ELc4oFe9tWwvq4jhDo+w9UIWo+zB8iZNWLmTFkOsiJA3HBd4w6g0ECoXNw55Ta+v1ZsNZviMaw1qsE9Vq7LtawpW9zrG0lC1RhN11TFWbyL1LdsmYfQSb5JiyLGCKO3Par1Cz517ib5x+gd0dX2Rivn4Mx0dFcsp5vJULpaonDM/A2vG6Il10O7L9dHwmrTpVZkgvM6anejKUcT9+POMcLa5XmjSVx59lr7yyJ9QOa/vBgVlIawxIXyXCeEff/09urG5IiwEvU0WDnq04xMH6TOHHqIHpo4yURT8nt/RnwJrxzOrs/SD91+hcytz/rrufjlJEQSBIGo5z24hoAJtALuDIcrjt52gv3nwafrEwftYVCixXvvW/dX5wPOYHF2Uc/Tjq6fpX19/gV6ef9evT9xcw0lLBADDtxabRTkhCMCF8OH9d9OX7v0D+sSBe/1opbibuwrU0Gh5hH469zb981sv0C9vzBgRgmpbNFhnhuWrj+gXwuCcR2CV6xtbPC3N5egmTREAOGuORXOdz1PlZFoIN50/RuU6xEhbBKbJlBCCju+cPzlsqWmTT9HSIgTPkFM6xx8cbG8/KyJCt8NzcwwGWWhLLULAocluJ5axNMHNITjPMFQoGbOS4NENlCVse12GciCPJNHVvsxTOt/MoOXw6bWNZVbJlhw+ZQsuVXh8//G+h0/hFJVGldaYbXm1zlr9TJRGaLwwTPl8dL+DI+SoU5yxN0Ej16Sx/DCNF4doKF9m+975QwDUUNjh0zji0SkEDMFbrCh/++gz9NWHLDyPkEUhoHELhQK9sXCBvnPhJZpZvdL5iz4aLE9c6vHU7ffRF+8+ReOlUf8cRzeISNVmnf5r9nX6/sVXaNPb6vxFH9WmR3eP307PHnuKPrz3WGid2CoEHg2cECSQEUKxWKIfvv8Gff2t5+lV1ugmGG8N0dPHf4f+7tE/o8nyHhZ56jsuWcCQpeJV6Rtn/pP+6a3vU75OVCvquyQEQ9dhr0T37D9CX/3QM/TZQw/5eXbXCf6lQwiKLrUDLgCOSSFk6vBpb1BprKJkGsFrUp5FhbHiME2Xx2gvs+nyuDabYBGAeRxrsN6dBC/zKBu2TDGxlIZKNFXao2yTLN/gd+xXs0Q0XCz70cexkwEQQlsAcbmVAk9vp8kuQCVSil0EfYtgnliC65LGVDQwTQaFgAoKmj7CGjFOTkgP18eYIi1njyKrIgDKQkBRcQGUGZB6lCVDsrnJY5MAQJZFALREBE9aENzNoiw90i9B9si6CEAsIeS3bc5dSMTsw85ShTOIw6G0URaC+pFlhyoQgE0i0Ena+6VlaDQI6BQ2ekmdPaWNAtC9j2njhMDAzfc1r+GfiJOx4FMrsH3Nq/uG9beM/a3P/dL8hBXORAe35flg+7jWaOGzoeXebd0CsEHkAyUE6eos5KmUy9NIoUTj5RGaLI/6J6BEDZdMjJVGmA3TBNt+gm2/w9jf/RNrHcIiD3escqnkb4OTaki3va0ew0lDnGCz5ZZaji2RTsslFrMbizSc13e6W4SoQmN3aqz3E7norpDP04X1eXpr+RItbK131uoFF7udnDhMj0/d5Ts6nhsUBk6i/WblCr2xcL6zRi+VXJ0OlSfp4b3H6MjoNOsBd0oSNdTrEgtFVwlFRQDWX2uUhBBEC4ndERVCmxyrYC/WhWW94PkWBJ6c4T+jodU08pQNXg7sZ9SD2fCLKCFE1588qlFg111rhGrqNlPA/8uFon8phAlD2hCiCBBL+76B8LTiGC+HiCCDwGltEIFpUhFC0MHDLEnQyDcfdWjIRB3JdFmQvoxT47c6rx2wVQRAmxC4E4uYw2EbVg6NkgTjXxgmziYMlz2Lzj94ObBNdzpxTaYcJrA5GoBdLwTTtHLiDsCHLZgQ6kamHLqxXQRA21GjoYQPn0aB3RE9aoQe8vrWKr2zfIWWGxudtfo5NnY73TdxuGc58ODii5Ub9Pbipc5avdTzLdqbH/Vv1zw8sjd00oySBY8avTJ/1n9qIIsl7R8ooFMEmTh8mjUh+MOQQoFeuv4uffO3/01n167663vdYC9Kk01Mg3z+6EfoSyc/F3nPMoYuVa9O/37+JfrWez+mTa9Gwzm99VlhaT40dQf9xd2n6IkDJ0jkVs3dJISBHBqJahvP0dysb9Hc1gqdX7tO761eo/dW5pTsPNsW5n9fY9+Zzaxe9T/nWfoAD9MNK1muMxZabWzSBVaOC0iLffJ0dNh7a6xclXmqNM09rSMIBKBTBKYZCCHA8W+aZOXjnmUcZ8dJLESO7uPvIlZkPTqcHNaenGKyi8lp3o88MqCnhiFNno4Ow2S5mFBzZ0kAHC01Eyd0yrLN6Tumg7ziLnQ3OpLhplK5wWIoFilVuutDNy1Dt75qEYKuVyeFOXm32QIrjbFGxy2wSNmevRXDVH10Y0IKeoSAKohw0m5H7mVZgJXUaINnzfmB6Tq5icEstA4as+rcIqChsZggzRNdcTFVJ93AlfgFH1qdtoOWNE2/ZjYtuPMn1dgmwY05WSWJ/tSEuDLPoDg/x0RkTqqOkhpUOCF0aL9ku+l/YvKvxVi6shO79iP2286rakgjeNUpyqITlkvnm1k0F7snTggdcNYShifT+W9v7Fjwe9i/exkO9eUkWhP3LMOR29/beakY9mOHKNl6XfcsDyJaLrHAm/dxYskG0FvhZvWP7j9Of33fHwpdYvHtcy/SzGr75dom+OyRR+gvj3+652Pht5o1+t7cq/Ttd17033pf0nyJRb3VoKMj++iLJz9Dj0/fHVon+FfUJRY2RAHcSYiT8F957Fk7rzWySQjoDWutOn1s/z19hYAzwXOVFZpZn6P1mpkXdIBDo9PCF93NLF9lvbrni0MnSHNqaIyOjx2k/UPj/r6LCiGpYUM/T3RC6EOwt8IwoMZ6v35C4CRx6FKmik2WB8VA8lHlwdrdKoTMzxF0hGxcZ1RgVWHCZG6Iwe/C0tBh/rVGIZde9wIiUOwnpUkom0gyJwQ4fnCJCxoaD+iqs97GhGGCKupM+F1YGjoM5cBnUo4tgw1Fii2EFg7PaXBIEHTwqMUE6K9Nmgxh2+s027BFl7GFgDE5CDqr6pIWuHSaX/5swmSGRmHb6zLsp03YFJwyNzTSDY6mLFbX6UZ11ZjhFbYijY7fhW2vw2YrS/5+Yn9t8D+bRABiHzX6+mvfpbnKMpvB23H4VOaoEW5YubB+nV5ZOUfX1hY7a/XRfr1sju6fPEofP3DSf3gXzvR2g0iAecqvli7QqzfOdtbqBWWZLu2hpw7dSx8c3id0HuHl+Xf93xQEI5ooIU0hhNWHT7MqBDgfjqS8OH+GvvXOj+jVpXOdv+gD8yc4/+eOPEZfe/Bp//WyuDe5G35C7d/O/oS+OfND//5i2SfS9QRC8xp0/9RR+quTn4uskySEoOZtbdzhU1MU8lRt1P17lq9uLPp2bXNZm6GDmF9fptX6ZifDtrN1w+cQmy1WFrbd7CYry+aSPmP7dWVzgebZEAnvc05rPhZHBKbZ9XMEfs8y3nE8Uhii0UJZm5VZNGiyQCn6nmUMoxBByvmSXxadhnMl6EF1n7EWAbtnswjArhfCdlr+oWBdJkrwqNKt3hqfOi0dbBcAxwnBYYysiAAMhBDS7/fsJo05QZZEAJSFgP3EOeWk4Q4ftCyh7/hLf9qnKZOvoayJAFgbEYKOHrQsoXhkWgtpCABkUQRAmxC4o+qyLAMBcBEkLYa0ogDIqgiAmyx38G9xhAt1nFjUtt0iGbhHGKbyVDak2WTb8TREbFsZ2L/DDDQMDWWRfCeLzOKEwPCfWcpG7zAcyhQ1wLeD8eefcsPZ4XJL7rg90sXFcd1pRRn7zz/z28/8+xEMNHfWBcBRvsRitV6h75z7Of3Da8/7Z1CtuWeZ7Y7MJRavL12g71x4iWZWZzt/0Qd6aPCpgw/QF+8+1fOx8Hhh+Qtzv6LnZ/7X3072Jpp+VLw6nZg4SM8ee4o+vPeYlkss1DxHHSuvNcq6EADEUGlUab665juKKfaW99D+8jjl89GvacUJuIXqOi3VzLywBDfmTJZG6LahcRoulDtrtyMqBDWPiY8TggTYHZl7lhEVSgU2aDBY/mbToy2vFlkGDi6vKDIzBcpRZ5En6ql3IkJQ8xY9uIvuDAKn2GRRYb22acyQvkh/s8WiUtj2ugzliBKBCGmKwDRussxAf2faRAjbTrepAAEMsgiAE4IjFDxnyX8Rp4UCMHEQeCCFkOKbVAeM3VORAyUEjMNxgqkbHG939Gc315IeISTYccDZoywMHCLNs6X9kj9n/Yyj9VZRTZi8xNPKiBDm5NxkwMkrXK6AIyV1HDp0JmB12mKGOYJN4DyLSWeNfR7h7197jmY3l2g44vi3YvLKYGiE483HJw75L/p+YOqof64gzmHD3QRu6/zNymV6/vIv6OzSbMcB0x008bv9cO0WziN8+bFn6Wu2nVDjQrDlzfsAYigXiv59yDjRl9vVo195al6dNhpVP0KkCRcAxwlBmpw/JKqyEI9IgO8OcfDwALyfIc2DDN0iAE4IyiTVkEpVaDVhR9+SIkwEwKQQrJws6wMVas5afpPB7F7g1LKWBrw202DAhaCXoHNhyQIp+bQ0aQmA44TQh6w5PgcCyIoIbMAJIYIsOj8nawJIOxoAJwQGd/rgkkWyGAVsEAHYdUIIOjtfsgx3/iwKwBYRgF0hhEFx+m6y5vwcmwTAybwQgk4etQwSWY8ANooAZEIIQafuXnYLWXR+jq3OH8S4EIJOq7rsVrLa+wfJggiANiEEHTe4OOTJuvNzsiICsCsmy1liEAQAsiQC4IRgCYMUBbImAuCEkCLc+Z0A0scJIQUGxfk5WRYAxwkhIQap9w8yCCIATggJMGjOD7I+FOrGCUETwR6/2waJQRMAxwkhJoPo7GEMqgA4TggKDGpvH4UtAth1D/iyiaDT7ybnBzZGAdR/wYAinBAi2G1Oz+HOb5sATKMsBDwopUh2vCVHB9zxd6sAgO3OD2f1HdbAc8eUhYCX3e3Nj1KxYOPzjPrjHH87WYgAGBGV8iWaKI9QAQ840oiyEAr5Au0fnqCp0ij57wXurLeNbofn5miTpWEQ/OzAyATdPjRB+cCTu3UQKyLcPjxJR0f20SiVmHOlW5ndjs7NEU6WBMDJ14mOjO6ju8cP+Y/714myEPBg3cnxcf/tlSNDw4k+Rtw5vDpZFADg/vWhvXfQifGD/nedqAuBKXKyMEJP3H6SThZv98MWokK3g5owhzjc8bMqAE6tWaf7Rg/Rxw/cS+PjY521+og10CoWi3Tn3oP06WOP0HijRPUEo4KjP1l2/CCIBuOtIfrIHSfpySP3U97A23xipYiosG90gn73g4/SJw88QENe3n9JhyNdst77B/GHRLUmnbztKD19xxNssjzZ+YteYksLL+I4sf8IPXPfk3TX0G3UZIWuOzGkwiAJAHARYEj053d+ip44fC8VCmbOXcUWAibN4+UROnX0YfrCw7/nFxqFhxgGqVFshTv/oNU1F8GR4hT9/snH6fN3fZQmyqOdv+pH+UUh3XieR9crK/S9mZfpuTM/o9NLF6ma98gr5ajA9OZe8aqXQe1k8DKQXL29b/eMHKRn7nmKnr3343Ri6pCRuQFHmxAAkprbWKKfXT5Nz138P3rj8gwtb63RRpENlcrtnYAoHPFA/z9ohyVw1LHUaHeWBwuT9NC+Y3Tqrkf8SPCB8f1GRQC0CgEgudXaJp29cYX+59Lr9PrVGbqwdo0uVW7gfa9tUTgcXezJlWiqsIeOju2nJ+98gD558EF65OBd/tULSaBdCBw+VDq/NEdvLJyns2tXaXZjgRaWllmPxrN077uMYnc8HK3d/nuHxmj/9BSdGDtMD+2/k+6ZPkwHx6a1viOtH8aEwEHIW6yu00JljbZqWzTPPmv1Wuevjt1OoVigfeVxGh/dQxOlEf9wfJIC4BgXQje1ZoO8lN/f67CLoULJ+BygH4kLweGwEXcIx+FgOCE4HAwnBIeD4YTgcDCcEBwOhhOCw8FwQnA4GE4IDgfDCcHhYDghOBwMJwSHg+GE4HAQ0f8DACGbNETMLz8AAAAASUVORK5CYII=;" vertex="1" parent="WIyWlLk6GJQsqaUBKTNV-1">
                    <mxGeometry x="253" y="480.00000000000006" width="31.67" height="40" as="geometry"/>
                </mxCell>
                <mxCell id="77" style="fontStyle=1;strokeColor=#003366;strokeWidth=1;html=1;entryX=0.5;entryY=0;entryDx=0;entryDy=0;" edge="1" parent="WIyWlLk6GJQsqaUBKTNV-1" source="62" target="149">
                    <mxGeometry relative="1" as="geometry">
                        <mxPoint x="373.25" y="440" as="sourcePoint"/>
                        <mxPoint x="373.25" y="510" as="targetPoint"/>
                    </mxGeometry>
                </mxCell>
                <mxCell id="78" value="終了" style="shape=mxgraph.flowchart.terminator;strokeWidth=2;gradientColor=none;gradientDirection=north;fontStyle=0;html=1;" vertex="1" parent="WIyWlLk6GJQsqaUBKTNV-1">
                    <mxGeometry x="313" y="640" width="120" height="30" as="geometry"/>
                </mxCell>
                <mxCell id="79" value="設定ファイル&lt;br&gt;未記入" style="html=1;whiteSpace=wrap;aspect=fixed;shape=isoRectangle;" vertex="1" parent="WIyWlLk6GJQsqaUBKTNV-1">
                    <mxGeometry x="473.75000000000006" y="95" width="150" height="90" as="geometry"/>
                </mxCell>
                <mxCell id="80" style="fontStyle=1;strokeColor=#003366;strokeWidth=1;html=1;exitX=1;exitY=0.5;exitDx=0;exitDy=0;entryX=0.024;entryY=0.503;entryDx=0;entryDy=0;entryPerimeter=0;" edge="1" parent="WIyWlLk6GJQsqaUBKTNV-1" source="58" target="79">
                    <mxGeometry relative="1" as="geometry">
                        <mxPoint x="473.75" y="160" as="sourcePoint"/>
                        <mxPoint x="514.25" y="160" as="targetPoint"/>
                    </mxGeometry>
                </mxCell>
                <mxCell id="142" value="Yes" style="edgeStyle=orthogonalEdgeStyle;rounded=0;html=1;labelBackgroundColor=none;startSize=5;endArrow=classicThin;endFill=1;endSize=5;jettySize=auto;orthogonalLoop=1;strokeWidth=1;fontFamily=Verdana;fontSize=8;exitX=1.004;exitY=0.5;exitDx=0;exitDy=0;exitPerimeter=0;strokeColor=#003366;entryX=1;entryY=0.5;entryDx=0;entryDy=0;entryPerimeter=0;" edge="1" parent="WIyWlLk6GJQsqaUBKTNV-1" source="79" target="78">
                    <mxGeometry x="-1" y="10" relative="1" as="geometry">
                        <Array as="points">
                            <mxPoint x="673" y="140"/>
                            <mxPoint x="673" y="655"/>
                        </Array>
                        <mxPoint as="offset"/>
                        <mxPoint x="702.25" y="359.99999999999994" as="sourcePoint"/>
                        <mxPoint x="702.25" y="160" as="targetPoint"/>
                    </mxGeometry>
                </mxCell>
                <mxCell id="143" value="No" style="edgeStyle=orthogonalEdgeStyle;rounded=0;html=1;labelBackgroundColor=none;startSize=5;endArrow=classicThin;endFill=1;endSize=5;jettySize=auto;orthogonalLoop=1;strokeWidth=1;fontFamily=Verdana;fontSize=8;exitX=0.501;exitY=0.963;exitDx=0;exitDy=0;exitPerimeter=0;strokeColor=#003366;entryX=1;entryY=0.5;entryDx=0;entryDy=0;" edge="1" parent="WIyWlLk6GJQsqaUBKTNV-1" source="79">
                    <mxGeometry x="-0.9613" y="12" relative="1" as="geometry">
                        <mxPoint as="offset"/>
                        <mxPoint x="744.5200000000002" y="190" as="sourcePoint"/>
                        <mxPoint x="372.25" y="200" as="targetPoint"/>
                        <Array as="points">
                            <mxPoint x="549" y="200"/>
                        </Array>
                    </mxGeometry>
                </mxCell>
                <mxCell id="149" value="契約先リスト情報を&lt;br&gt;ドキュメントに&lt;br&gt;バインド" style="rounded=0;whiteSpace=wrap;html=1;" vertex="1" parent="WIyWlLk6GJQsqaUBKTNV-1">
                    <mxGeometry x="313" y="510" width="120" height="60" as="geometry"/>
                </mxCell>
                <mxCell id="150" style="fontStyle=1;strokeColor=#003366;strokeWidth=1;html=1;exitX=0.5;exitY=1;exitDx=0;exitDy=0;entryX=0.5;entryY=0;entryDx=0;entryDy=0;entryPerimeter=0;" edge="1" parent="WIyWlLk6GJQsqaUBKTNV-1" source="149" target="78">
                    <mxGeometry relative="1" as="geometry">
                        <mxPoint x="383.25" y="450" as="sourcePoint"/>
                        <mxPoint x="383.0000000000001" y="520" as="targetPoint"/>
                    </mxGeometry>
                </mxCell>
                <mxCell id="151" value="" style="edgeStyle=elbowEdgeStyle;elbow=horizontal;endArrow=classic;html=1;curved=0;rounded=0;endSize=8;startSize=8;exitX=1;exitY=0.25;exitDx=0;exitDy=0;strokeColor=#003366;entryX=0;entryY=0.75;entryDx=0;entryDy=0;" edge="1" parent="WIyWlLk6GJQsqaUBKTNV-1" source="149" target="66">
                    <mxGeometry width="50" height="50" relative="1" as="geometry">
                        <mxPoint x="463.25" y="500" as="sourcePoint"/>
                        <mxPoint x="504" y="605" as="targetPoint"/>
                    </mxGeometry>
                </mxCell>
                <mxCell id="152" value="契約先リスト&lt;br&gt;未記入" style="html=1;whiteSpace=wrap;aspect=fixed;shape=isoRectangle;" vertex="1" parent="WIyWlLk6GJQsqaUBKTNV-1">
                    <mxGeometry x="473.50000000000006" y="495" width="150" height="90" as="geometry"/>
                </mxCell>
                <mxCell id="153" style="fontStyle=1;strokeColor=#003366;strokeWidth=1;html=1;exitX=1;exitY=0.5;exitDx=0;exitDy=0;entryX=0.017;entryY=0.508;entryDx=0;entryDy=0;entryPerimeter=0;" edge="1" parent="WIyWlLk6GJQsqaUBKTNV-1" source="149" target="152">
                    <mxGeometry relative="1" as="geometry">
                        <mxPoint x="457.57" y="610" as="sourcePoint"/>
                        <mxPoint x="501.42000000000013" y="610.27" as="targetPoint"/>
                    </mxGeometry>
                </mxCell>
                <mxCell id="154" value="Yes" style="edgeStyle=orthogonalEdgeStyle;rounded=0;html=1;labelBackgroundColor=none;startSize=5;endArrow=classicThin;endFill=1;endSize=5;jettySize=auto;orthogonalLoop=1;strokeWidth=1;fontFamily=Verdana;fontSize=8;exitX=1.006;exitY=0.507;exitDx=0;exitDy=0;exitPerimeter=0;strokeColor=#003366;entryX=1;entryY=0.5;entryDx=0;entryDy=0;entryPerimeter=0;" edge="1" parent="WIyWlLk6GJQsqaUBKTNV-1" source="152" target="78">
                    <mxGeometry x="-1" y="10" relative="1" as="geometry">
                        <Array as="points">
                            <mxPoint x="673" y="541"/>
                            <mxPoint x="673" y="655"/>
                        </Array>
                        <mxPoint as="offset"/>
                        <mxPoint x="655.6800000000002" y="440" as="sourcePoint"/>
                        <mxPoint x="464.33" y="955" as="targetPoint"/>
                    </mxGeometry>
                </mxCell>
                <mxCell id="155" value="No" style="edgeStyle=orthogonalEdgeStyle;rounded=0;html=1;labelBackgroundColor=none;startSize=5;endArrow=classicThin;endFill=1;endSize=5;jettySize=auto;orthogonalLoop=1;strokeWidth=1;fontFamily=Verdana;fontSize=8;exitX=0.499;exitY=1.003;exitDx=0;exitDy=0;exitPerimeter=0;strokeColor=#003366;" edge="1" parent="WIyWlLk6GJQsqaUBKTNV-1" source="152">
                    <mxGeometry x="-0.9613" y="12" relative="1" as="geometry">
                        <mxPoint as="offset"/>
                        <mxPoint x="565.7800000000001" y="610" as="sourcePoint"/>
                        <mxPoint x="373" y="600" as="targetPoint"/>
                        <Array as="points">
                            <mxPoint x="548" y="600"/>
                        </Array>
                    </mxGeometry>
                </mxCell>
            </root>
        </mxGraphModel>
    </diagram>
</mxfile>